{"glyphs":{"0":{"ha":1111,"x_min":56,"x_max":1056,"o":"m 924 136 q 858 60 924 136 q 556 -17 792 -17 q 188 136 319 -17 q 56 533 56 289 q 190 914 56 764 q 556 1064 325 1064 q 921 914 786 1064 q 1056 533 1056 764 q 924 136 1056 289 m 455 356 q 473 325 455 356 q 556 293 490 293 q 656 356 621 293 q 692 524 692 419 q 657 682 692 625 q 556 739 622 739 q 454 682 489 739 q 419 524 419 625 q 455 356 419 419 z "},"1":{"ha":664,"x_min":28,"x_max":567,"o":"m 567 0 l 189 0 l 189 711 l 28 700 l 28 1031 l 567 1047 l 567 0 z "},"2":{"ha":1068,"x_min":-14,"x_max":1026,"o":"m 1026 0 l -14 0 l -14 4 l 390 368 q 477 446 447 418 q 547 517 507 474 q 603 599 586 561 q 621 672 621 636 q 543 753 621 753 q 442 621 451 753 l 69 621 q 208 954 92 844 q 553 1064 324 1064 q 878 976 760 1064 q 997 722 997 889 q 736 335 997 503 l 701 313 q 1026 322 781 318 l 1026 0 z "},"3":{"ha":1061,"x_min":42,"x_max":1013,"o":"m 539 -17 q 188 75 326 -17 q 42 367 50 167 l 425 367 q 456 281 425 314 q 533 249 488 249 q 607 276 578 249 q 636 344 636 304 q 608 413 636 385 q 540 442 579 442 q 489 436 511 442 l 489 654 q 526 651 506 651 q 578 674 557 651 q 599 726 599 696 q 580 777 599 758 q 529 796 561 796 q 478 774 497 796 q 458 715 458 753 l 83 715 q 536 1064 113 1064 q 679 1047 607 1064 q 818 997 751 1031 q 926 902 885 963 q 968 764 968 842 q 934 642 968 697 q 839 561 900 586 q 964 469 915 536 q 1013 317 1013 403 q 969 158 1013 226 q 852 54 925 90 q 701 1 779 18 q 539 -17 622 -17 z "},"4":{"ha":1067,"x_min":28,"x_max":1039,"o":"m 907 494 l 1039 494 l 1039 199 l 897 199 l 907 0 l 546 0 l 558 199 l 28 199 l 28 474 l 457 1047 l 907 1047 l 907 494 m 567 731 l 383 486 l 561 489 l 560 585 q 567 731 560 638 z "},"5":{"ha":1003,"x_min":42,"x_max":961,"o":"m 460 -17 q 42 68 221 -17 l 83 351 q 244 292 147 318 q 417 265 342 265 q 536 292 492 265 q 581 369 581 319 q 371 474 581 474 q 104 428 232 474 l 94 429 l 185 1047 l 897 1047 l 897 754 l 449 754 q 415 633 435 674 q 490 673 438 657 q 603 689 543 689 q 856 598 751 689 q 961 361 961 507 q 887 147 961 235 q 702 21 813 58 q 460 -17 592 -17 z "},"6":{"ha":1078,"x_min":42,"x_max":1036,"o":"m 544 -17 q 299 34 411 -17 q 114 188 186 85 q 42 426 42 290 q 232 821 42 626 l 454 1047 l 953 1047 l 663 792 q 613 746 639 774 q 693 760 651 760 q 938 659 839 760 q 1036 410 1036 558 q 966 178 1036 276 q 785 31 896 79 q 544 -17 675 -17 m 538 282 q 630 318 592 282 q 668 410 668 354 q 630 504 668 467 q 535 542 592 542 q 445 503 482 542 q 408 410 408 465 q 445 319 408 357 q 538 282 482 282 z "},"7":{"ha":1051,"x_min":49,"x_max":1065,"o":"m 1065 1043 l 469 0 l 49 0 l 488 711 l 49 711 l 49 1047 l 1065 1047 l 1065 1043 z "},"8":{"ha":1053,"x_min":49,"x_max":1004,"o":"m 682 -1 q 643 -9 682 -1 q 526 -17 604 -17 q 371 -1 449 -17 q 218 49 293 15 q 96 147 143 82 q 49 300 49 213 q 101 449 49 383 q 238 544 154 515 q 124 619 167 565 q 82 747 82 674 q 124 893 82 829 q 235 992 167 957 q 377 1046 303 1028 q 526 1064 451 1064 q 676 1046 601 1064 q 818 992 750 1028 q 928 893 886 957 q 971 747 971 829 q 928 619 971 674 q 815 544 886 565 q 952 449 900 515 q 1004 300 1004 382 q 957 147 1004 213 q 835 49 910 82 q 682 -1 760 15 m 472 665 q 484 653 472 665 q 526 642 496 642 q 581 665 557 642 q 604 721 604 689 q 582 778 604 756 q 526 800 560 800 q 471 778 493 800 q 449 721 449 756 q 472 665 449 689 m 453 264 q 468 249 453 264 q 526 235 483 235 q 599 264 569 235 q 629 338 629 293 q 597 410 629 379 q 526 440 565 440 q 456 410 488 440 q 424 338 424 379 q 453 264 424 293 z "},"9":{"ha":1078,"x_min":42,"x_max":1036,"o":"m 846 226 l 624 0 l 125 0 l 383 226 q 460 296 432 269 q 389 288 426 288 q 141 388 240 288 q 42 638 42 489 q 112 869 42 771 q 292 1016 182 968 q 533 1064 403 1064 q 779 1013 667 1064 q 964 860 892 963 q 1036 621 1036 757 q 846 226 1036 421 m 543 506 q 633 544 596 506 q 669 638 669 582 q 633 728 669 690 q 540 765 596 765 q 448 729 486 765 q 410 638 410 693 q 448 543 410 581 q 543 506 486 506 z "},"\u0000":{"ha":0,"x_min":0,"x_max":0,"o":""},"\r":{"ha":347,"x_min":0,"x_max":0,"o":""}," ":{"ha":347,"x_min":0,"x_max":0,"o":""},"!":{"ha":578,"x_min":82,"x_max":496,"o":"m 472 400 l 106 400 l 106 1047 l 472 1047 l 472 400 m 433 31 q 402 7 433 31 q 289 -17 371 -17 q 144 31 207 -17 q 82 156 82 78 q 144 283 82 235 q 289 332 207 332 q 433 283 371 332 q 496 156 496 235 q 433 31 496 78 z "},"\"":{"ha":1108,"x_min":163,"x_max":946,"o":"m 467 529 l 218 529 l 163 1047 l 522 1047 l 467 529 m 890 529 l 642 529 l 586 1047 l 946 1047 l 890 529 z "},"#":{"ha":1033,"x_min":56,"x_max":978,"o":"m 388 0 l 200 0 l 231 250 l 56 250 l 56 413 l 254 413 l 276 594 l 107 594 l 107 756 l 296 756 l 335 1049 l 521 1049 l 483 756 l 635 756 l 672 1049 l 860 1049 l 819 756 l 978 756 l 978 594 l 800 594 l 776 413 l 949 413 l 949 250 l 756 250 l 725 0 l 538 0 l 571 250 l 419 250 l 388 0 m 463 594 l 440 413 l 593 413 l 615 594 l 463 594 z "},"$":{"ha":906,"x_min":21,"x_max":871,"o":"m 871 360 q 786 147 871 233 q 557 33 701 60 l 568 -160 l 343 -160 l 354 26 q 21 132 161 43 l 151 383 q 406 285 286 285 q 490 336 490 285 q 468 370 490 358 q 392 397 446 382 q 388 399 389 399 q 383 400 386 399 q 378 401 381 401 q 263 444 311 422 q 163 502 214 465 q 86 594 113 539 q 60 722 60 650 q 144 934 60 847 q 367 1046 229 1021 l 357 1214 l 582 1214 l 572 1053 q 863 981 733 1040 l 728 726 q 522 794 633 794 q 440 747 440 794 q 470 711 440 725 q 564 681 500 697 q 586 675 578 678 q 794 566 717 639 q 871 360 871 493 z "},"%":{"ha":1582,"x_min":56,"x_max":1526,"o":"m 626 561 q 577 524 626 561 q 389 486 529 486 q 152 561 249 486 q 56 778 56 636 q 149 992 56 919 q 389 1064 243 1064 q 628 992 535 1064 q 722 778 722 919 q 626 561 722 636 m 1232 957 l 492 25 l 367 129 l 1106 1053 l 1232 957 m 339 725 q 347 715 339 725 q 389 704 356 704 q 439 725 422 704 q 456 778 456 746 q 438 833 456 810 q 389 856 421 856 q 340 833 357 856 q 322 778 322 810 q 339 725 322 746 m 1430 58 q 1382 21 1430 58 q 1193 -17 1333 -17 q 956 58 1053 -17 q 860 275 860 133 q 953 489 860 417 q 1193 561 1047 561 q 1433 489 1339 561 q 1526 275 1526 417 q 1430 58 1526 133 m 1143 222 q 1151 212 1143 222 q 1193 201 1160 201 q 1243 222 1226 201 q 1260 275 1260 243 q 1242 330 1260 307 q 1193 353 1225 353 q 1144 330 1161 353 q 1126 275 1126 307 q 1143 222 1126 243 z "},"&":{"ha":1336,"x_min":56,"x_max":1313,"o":"m 1065 239 l 1313 0 l 883 0 l 808 76 q 636 3 713 24 q 456 -17 560 -17 q 313 1 382 -17 q 185 55 244 19 q 91 150 126 90 q 56 285 56 210 q 131 474 56 397 q 313 582 206 550 q 215 799 215 699 q 324 997 215 929 q 601 1064 433 1064 q 877 994 769 1064 q 985 793 985 925 q 928 631 985 706 q 781 513 871 556 l 869 426 q 1036 575 951 490 l 1235 350 q 1065 239 1174 311 m 665 820 q 657 828 665 820 q 622 836 649 836 q 577 821 596 836 q 558 782 558 806 q 606 689 558 749 q 682 781 682 736 q 665 820 682 804 m 504 244 q 618 269 563 244 l 475 414 q 411 324 411 371 q 438 265 411 285 q 504 244 464 244 z "},"'":{"ha":685,"x_min":163,"x_max":522,"o":"m 467 529 l 218 529 l 163 1047 l 522 1047 l 467 529 z "},"(":{"ha":642,"x_min":103,"x_max":597,"o":"m 597 -124 l 336 -278 q 103 469 103 93 q 336 1217 103 846 l 597 1063 q 436 469 436 771 q 597 -124 436 168 z "},")":{"ha":642,"x_min":44,"x_max":539,"o":"m 306 -278 l 44 -124 q 206 469 206 168 q 44 1063 206 771 l 306 1217 q 539 469 539 846 q 306 -278 539 93 z "},"*":{"ha":654,"x_min":21,"x_max":633,"o":"m 328 644 l 208 476 l 65 588 l 207 726 l 21 772 l 72 931 l 250 864 l 232 1047 l 424 1047 l 407 864 l 585 931 l 633 772 l 449 726 l 592 588 l 449 476 l 328 644 z "},"+":{"ha":1111,"x_min":139,"x_max":972,"o":"m 694 14 l 417 14 l 417 292 l 139 292 l 139 569 l 417 569 l 417 847 l 694 847 l 694 569 l 972 569 l 972 292 l 694 292 l 694 14 z "},",":{"ha":578,"x_min":6,"x_max":533,"o":"m 533 300 l 285 -218 l 6 -218 l 174 300 l 533 300 z "},"-":{"ha":551,"x_min":28,"x_max":524,"o":"m 524 229 l 28 229 l 28 535 l 524 535 l 524 229 z "},".":{"ha":578,"x_min":82,"x_max":496,"o":"m 433 31 q 402 7 433 31 q 289 -17 371 -17 q 144 31 207 -17 q 82 156 82 78 q 144 283 82 235 q 289 332 207 332 q 433 283 371 332 q 496 156 496 235 q 433 31 496 78 z "},"/":{"ha":935,"x_min":0,"x_max":935,"o":"m 935 1118 l 163 -237 l 0 -153 l 772 1206 l 935 1118 z "},":":{"ha":578,"x_min":82,"x_max":496,"o":"m 433 453 q 402 429 433 453 q 289 406 371 406 q 144 453 207 406 q 82 578 82 500 q 144 706 82 657 q 289 754 207 754 q 433 706 371 754 q 496 578 496 657 q 433 453 496 500 m 433 31 q 402 7 433 31 q 289 -17 371 -17 q 144 31 207 -17 q 82 156 82 78 q 144 283 82 235 q 289 332 207 332 q 433 283 371 332 q 496 156 496 235 q 433 31 496 78 z "},";":{"ha":578,"x_min":6,"x_max":533,"o":"m 464 453 q 433 429 464 453 q 319 406 401 406 q 175 453 238 406 q 113 578 113 500 q 175 706 113 657 q 319 754 238 754 q 464 706 401 754 q 526 578 526 657 q 464 453 526 500 m 533 300 l 285 -218 l 6 -218 l 174 300 l 533 300 z "},"<":{"ha":1111,"x_min":139,"x_max":972,"o":"m 139 585 l 972 838 l 972 543 l 511 417 l 972 288 l 972 -7 l 139 246 l 139 585 z "},"=":{"ha":1111,"x_min":139,"x_max":972,"o":"m 972 485 l 139 485 l 139 763 l 972 763 l 972 485 m 972 86 l 139 86 l 139 364 l 972 364 l 972 86 z "},">":{"ha":1111,"x_min":139,"x_max":972,"o":"m 139 543 l 139 838 l 972 585 l 972 246 l 139 -7 l 139 288 l 600 417 l 139 543 z "},"?":{"ha":922,"x_min":49,"x_max":874,"o":"m 653 379 l 314 379 l 314 635 l 369 635 q 525 738 525 635 q 461 806 525 806 q 390 726 390 806 l 390 722 l 49 722 l 49 726 q 159 976 49 886 q 457 1065 269 1065 q 760 979 646 1065 q 874 749 874 893 q 653 488 874 531 l 653 379 m 625 31 q 594 7 625 31 q 481 -17 563 -17 q 336 31 399 -17 q 274 156 274 78 q 336 283 274 235 q 481 332 399 332 q 625 283 563 332 q 688 156 688 235 q 625 31 688 78 z "},"@":{"ha":1208,"x_min":49,"x_max":1160,"o":"m 750 806 l 918 806 l 872 472 q 872 400 864 422 q 908 378 881 378 q 983 440 953 378 q 1013 596 1013 503 q 990 711 1013 656 q 924 815 968 767 q 801 892 879 863 q 625 921 724 921 q 326 804 443 921 q 210 501 210 688 q 317 232 210 335 q 593 129 424 129 q 858 193 751 129 l 906 61 q 593 -21 783 -21 q 200 126 351 -21 q 49 501 49 274 q 213 908 49 747 q 625 1068 376 1068 q 858 1026 753 1068 q 1027 915 963 983 q 1126 764 1092 846 q 1160 596 1160 682 q 1089 337 1160 436 q 897 238 1018 238 q 732 325 767 238 q 535 238 667 238 q 347 319 422 238 q 285 531 272 401 q 381 740 297 661 q 581 819 465 819 q 740 739 693 819 l 750 806 m 711 529 q 687 635 718 593 q 597 678 656 678 q 507 635 543 678 q 465 531 471 593 q 490 421 460 463 q 575 379 519 379 q 669 419 635 379 q 711 529 704 458 z "},"A":{"ha":1131,"x_min":-14,"x_max":1144,"o":"m 1144 0 l 732 0 l 700 135 l 414 135 l 379 0 l -14 0 l 350 1047 l 771 1047 l 1144 0 m 518 536 l 479 385 l 640 385 l 604 533 l 563 714 q 518 536 553 669 z "},"B":{"ha":1022,"x_min":76,"x_max":978,"o":"m 594 0 l 76 0 l 76 1047 l 497 1047 q 651 1034 582 1047 q 778 991 719 1021 q 869 907 836 961 q 901 776 901 853 q 864 638 901 699 q 771 553 826 578 l 771 551 q 978 289 978 482 q 952 169 978 222 q 888 86 926 117 q 796 35 849 56 q 694 8 743 15 q 594 0 644 0 m 429 794 l 429 644 l 443 644 q 561 721 561 644 q 535 778 561 761 q 449 794 510 794 l 429 794 m 429 424 l 429 250 l 472 250 q 526 252 506 250 q 572 261 546 254 q 612 287 599 268 q 625 336 625 306 q 601 395 625 375 q 551 419 578 415 q 479 424 524 424 l 429 424 z "},"C":{"ha":918,"x_min":49,"x_max":863,"o":"m 581 -17 q 203 137 357 -17 q 49 514 49 290 q 208 903 49 743 q 596 1064 367 1064 q 851 1021 726 1064 l 863 621 q 639 728 751 728 q 497 672 561 728 q 432 524 432 617 q 495 378 432 438 q 644 319 558 319 q 863 417 763 319 l 851 25 q 726 -6 808 6 q 581 -17 644 -17 z "},"D":{"ha":1133,"x_min":76,"x_max":1085,"o":"m 558 0 l 76 0 l 76 1047 l 464 1047 q 709 1017 599 1047 q 905 923 819 986 q 1038 754 990 860 q 1085 508 1085 649 q 938 139 1085 278 q 558 0 792 0 m 443 719 l 443 314 l 481 314 q 642 363 581 314 q 704 510 704 411 q 481 719 704 719 l 443 719 z "},"E":{"ha":854,"x_min":76,"x_max":792,"o":"m 792 0 l 76 0 l 76 1047 l 781 1047 l 781 761 l 443 761 l 443 665 l 753 665 l 753 393 l 443 393 l 443 286 l 792 286 l 792 0 z "},"F":{"ha":833,"x_min":76,"x_max":778,"o":"m 443 0 l 76 0 l 76 1047 l 778 1047 l 778 747 l 443 747 l 443 639 l 739 639 l 739 364 l 443 364 l 443 0 z "},"G":{"ha":1246,"x_min":49,"x_max":1197,"o":"m 626 -17 q 214 128 379 -17 q 49 517 49 272 q 213 915 49 767 q 629 1064 376 1064 q 940 994 796 1064 q 1143 794 1085 924 l 788 664 q 629 744 740 744 q 485 681 538 744 q 432 515 432 617 q 485 353 432 419 q 628 288 538 288 q 782 368 753 288 l 782 369 l 610 369 l 610 624 l 1197 624 l 1197 567 q 1044 138 1197 293 q 626 -17 892 -17 z "},"H":{"ha":1119,"x_min":76,"x_max":1043,"o":"m 443 0 l 76 0 l 76 1047 l 443 1047 l 443 694 l 676 694 l 676 1047 l 1043 1047 l 1043 0 l 676 0 l 676 364 l 443 364 l 443 0 z "},"I":{"ha":519,"x_min":76,"x_max":443,"o":"m 443 0 l 76 0 l 76 1047 l 443 1047 l 443 0 z "},"J":{"ha":739,"x_min":0,"x_max":669,"o":"m 313 -17 q 0 97 125 -17 l 121 399 q 231 324 178 324 q 297 425 297 324 l 297 1047 l 669 1047 l 669 353 q 572 83 669 183 q 313 -17 475 -17 z "},"K":{"ha":1119,"x_min":76,"x_max":1133,"o":"m 1133 0 l 692 0 l 439 463 l 447 0 l 76 0 l 76 1047 l 447 1047 l 439 593 l 683 1047 l 1099 1047 l 779 528 l 1133 0 z "},"L":{"ha":788,"x_min":76,"x_max":763,"o":"m 763 0 l 76 0 l 76 1047 l 443 1047 l 443 336 l 763 336 l 763 0 z "},"M":{"ha":1461,"x_min":21,"x_max":1440,"o":"m 828 0 l 606 0 l 446 563 l 379 0 l 21 0 l 190 1047 l 582 1047 l 732 511 l 881 1047 l 1268 1047 l 1440 0 l 1063 0 l 1004 563 l 828 0 z "},"N":{"ha":1203,"x_min":76,"x_max":1126,"o":"m 783 478 l 763 1047 l 1126 1047 l 1126 0 l 763 0 l 428 551 l 440 0 l 76 0 l 76 1047 l 442 1047 l 783 478 z "},"O":{"ha":1256,"x_min":49,"x_max":1207,"o":"m 1041 130 q 958 57 1041 130 q 628 -17 875 -17 q 215 130 381 -17 q 49 521 49 276 q 216 913 49 761 q 628 1064 383 1064 q 1040 913 872 1064 q 1207 521 1207 761 q 1041 130 1207 276 m 486 375 q 513 347 486 375 q 628 319 540 319 q 769 375 715 319 q 824 521 824 431 q 770 668 824 608 q 628 728 717 728 q 485 668 539 728 q 432 521 432 608 q 486 375 432 431 z "},"P":{"ha":1013,"x_min":76,"x_max":983,"o":"m 443 0 l 76 0 l 76 1047 l 558 1047 q 865 951 747 1047 q 983 678 983 854 q 865 398 983 494 q 558 301 747 301 l 443 301 l 443 0 m 443 761 l 443 579 l 494 579 q 617 675 617 579 q 493 761 617 761 l 443 761 z "},"Q":{"ha":1256,"x_min":49,"x_max":1217,"o":"m 1104 199 l 1217 83 l 915 -54 l 863 24 q 628 -17 753 -17 q 215 130 381 -17 q 49 521 49 276 q 216 913 49 761 q 628 1064 383 1064 q 1040 913 872 1064 q 1207 521 1207 761 q 1104 199 1207 332 m 432 521 q 486 375 432 431 q 628 319 540 319 l 642 319 l 586 393 l 821 483 q 824 521 824 508 q 770 668 824 608 q 628 728 717 728 q 485 668 539 728 q 432 521 432 608 z "},"R":{"ha":1044,"x_min":76,"x_max":1058,"o":"m 783 393 l 1058 0 l 622 0 l 457 336 l 443 336 l 443 0 l 76 0 l 76 1047 l 536 1047 q 851 958 729 1047 q 972 683 972 869 q 783 393 972 496 m 478 761 l 443 761 l 443 583 l 475 583 q 567 601 533 583 q 600 671 600 618 q 569 744 600 726 q 478 761 538 761 z "},"S":{"ha":906,"x_min":21,"x_max":871,"o":"m 442 -17 q 21 108 190 -17 l 151 364 q 406 264 285 264 q 490 317 490 264 q 468 351 490 339 q 392 378 446 363 q 388 379 389 379 q 383 381 386 379 q 378 382 381 382 q 266 424 314 401 q 169 484 218 447 q 95 578 121 521 q 69 710 69 636 q 185 966 69 868 q 483 1064 301 1064 q 851 974 693 1064 l 717 714 q 522 783 629 783 q 450 736 450 783 q 478 699 450 714 q 565 668 507 685 q 586 663 579 665 q 795 549 719 622 q 871 340 871 476 q 752 81 871 179 q 442 -17 633 -17 z "},"T":{"ha":836,"x_min":18,"x_max":818,"o":"m 608 0 l 228 0 l 228 711 l 18 711 l 18 1047 l 818 1047 l 818 711 l 608 711 l 608 0 z "},"U":{"ha":1108,"x_min":69,"x_max":1039,"o":"m 910 94 q 846 39 910 94 q 554 -17 782 -17 q 198 94 326 -17 q 69 428 69 206 l 69 1047 l 450 1047 l 450 464 q 452 403 450 425 q 464 357 454 382 q 496 321 474 332 q 554 310 518 310 q 613 321 590 310 q 644 357 635 332 q 656 403 654 382 q 658 464 658 425 l 658 1047 l 1039 1047 l 1039 428 q 910 94 1039 206 z "},"V":{"ha":1106,"x_min":-14,"x_max":1119,"o":"m 714 0 l 392 0 l -14 1047 l 383 1047 l 553 431 l 722 1047 l 1119 1047 l 714 0 z "},"W":{"ha":1635,"x_min":-7,"x_max":1642,"o":"m 683 0 l 351 0 l -7 1047 l 388 1047 l 519 436 l 671 1047 l 963 1047 l 1106 436 l 1246 1047 l 1642 1047 l 1279 0 l 940 0 l 817 569 l 683 0 z "},"X":{"ha":1154,"x_min":-6,"x_max":1160,"o":"m 428 0 l -6 0 l 361 557 l 32 1047 l 461 1047 l 575 813 l 685 1047 l 1114 1047 l 786 557 l 1160 0 l 726 0 l 578 286 l 428 0 z "},"Y":{"ha":1068,"x_min":-14,"x_max":1082,"o":"m 724 0 l 351 0 l 351 451 l -14 1047 l 417 1047 l 540 774 l 654 1047 l 1082 1047 l 724 451 l 724 0 z "},"Z":{"ha":1054,"x_min":-14,"x_max":1051,"o":"m 1006 0 l -14 0 l -14 4 l 451 731 l 76 731 l 76 1047 l 1051 1047 l 1051 1044 l 596 324 l 1006 324 l 1006 0 z "},"[":{"ha":642,"x_min":86,"x_max":571,"o":"m 571 -243 l 86 -243 l 86 1193 l 571 1193 l 571 1010 l 390 1010 l 390 -60 l 571 -60 l 571 -243 z "},"\\":{"ha":935,"x_min":0,"x_max":935,"o":"m 935 -153 l 772 -237 l 0 1118 l 163 1206 l 935 -153 z "},"]":{"ha":642,"x_min":71,"x_max":556,"o":"m 556 -243 l 71 -243 l 71 -60 l 251 -60 l 251 1010 l 71 1010 l 71 1193 l 556 1193 l 556 -243 z "},"^":{"ha":944,"x_min":28,"x_max":917,"o":"m 642 1050 l 917 483 l 628 483 l 471 817 l 317 483 l 28 483 l 303 1050 l 642 1050 z "},"_":{"ha":597,"x_min":0,"x_max":597,"o":"m 597 -242 l 0 -242 l 0 -86 l 597 -86 l 597 -242 z "},"`":{"ha":411,"x_min":-42,"x_max":411,"o":"m 411 890 l 229 790 l -42 990 l 201 1161 l 411 890 z "},"a":{"ha":1010,"x_min":40,"x_max":939,"o":"m 365 -17 q 128 95 215 -17 q 40 365 40 207 q 131 639 40 524 q 375 754 221 754 q 590 650 513 754 l 593 650 l 589 738 l 939 738 l 939 0 l 589 0 l 593 97 l 590 97 q 486 11 536 39 q 365 -17 436 -17 m 423 292 q 436 278 423 292 q 496 264 450 264 q 570 292 542 264 q 599 368 599 321 q 570 444 599 415 q 496 474 542 474 q 423 445 450 474 q 396 368 396 417 q 423 292 396 321 z "},"b":{"ha":1008,"x_min":71,"x_max":968,"o":"m 636 -17 q 421 110 497 -17 l 418 110 l 419 0 l 71 0 l 71 1126 l 429 1126 l 429 829 q 421 639 429 769 l 422 639 q 647 754 497 754 q 885 642 801 754 q 968 369 968 531 q 881 97 968 211 q 636 -17 793 -17 m 440 293 q 454 278 440 293 q 514 264 468 264 q 587 292 560 264 q 614 369 614 321 q 587 445 614 417 q 514 474 560 474 q 440 445 468 474 q 413 369 413 417 q 440 293 413 322 z "},"c":{"ha":693,"x_min":42,"x_max":647,"o":"m 451 -17 q 154 84 267 -17 q 42 365 42 185 q 150 642 42 531 q 422 754 258 754 q 647 717 550 754 l 647 418 q 515 479 575 479 q 434 449 465 479 q 403 369 403 419 q 434 295 403 326 q 514 264 465 264 q 647 321 571 264 l 632 18 q 451 -17 556 -17 z "},"d":{"ha":1008,"x_min":40,"x_max":938,"o":"m 372 -17 q 128 97 215 -17 q 40 369 40 211 q 124 642 40 531 q 361 754 207 754 q 586 639 511 754 l 588 639 q 579 829 579 722 l 579 1126 l 938 1126 l 938 0 l 589 0 l 592 110 l 588 110 q 372 -17 511 -17 m 422 292 q 435 278 422 292 q 494 264 449 264 q 568 293 540 264 q 596 369 596 322 q 568 445 596 417 q 494 474 540 474 q 422 445 449 474 q 394 369 394 417 q 422 292 394 321 z "},"e":{"ha":960,"x_min":42,"x_max":918,"o":"m 918 342 q 917 308 918 319 l 394 308 q 481 182 394 182 q 529 199 508 182 q 557 243 550 217 l 901 243 q 747 51 867 118 q 486 -17 626 -17 q 166 82 290 -17 q 42 363 42 181 q 165 649 42 544 q 472 754 289 754 q 794 647 669 754 q 918 342 918 539 m 396 461 l 564 461 q 541 530 563 503 q 481 557 519 557 q 420 530 442 557 q 396 461 399 503 z "},"f":{"ha":597,"x_min":8,"x_max":597,"o":"m 468 0 l 110 0 l 110 450 l 8 450 l 8 738 l 110 738 l 110 819 q 185 1072 110 989 q 422 1156 260 1156 q 597 1138 513 1156 l 597 856 q 538 867 571 867 q 463 772 463 867 l 463 738 l 589 738 l 589 450 l 468 450 l 468 0 z "},"g":{"ha":1000,"x_min":49,"x_max":931,"o":"m 481 -319 q 178 -246 293 -319 q 51 -19 64 -172 l 342 -19 q 465 -99 364 -99 q 558 -58 524 -99 q 593 58 593 -17 l 593 147 l 590 147 q 487 56 538 86 q 365 25 436 25 q 135 132 221 25 q 49 386 49 239 q 138 644 49 535 q 375 754 226 754 q 582 650 504 754 l 585 650 l 581 738 l 931 738 l 931 101 q 895 -90 931 -7 q 797 -222 860 -172 q 656 -295 735 -271 q 481 -319 576 -319 m 497 278 q 563 305 536 278 q 590 375 590 332 q 563 447 590 419 q 497 474 536 474 q 429 447 454 474 q 404 375 404 419 q 429 304 404 331 q 497 278 454 278 z "},"h":{"ha":974,"x_min":69,"x_max":907,"o":"m 428 0 l 69 0 l 69 1126 l 428 1126 l 428 851 q 418 619 428 756 l 421 619 q 524 722 475 690 q 651 754 574 754 q 844 670 781 754 q 907 454 907 586 l 907 0 l 549 0 l 549 360 q 547 412 549 393 q 531 447 544 431 q 493 464 518 464 q 440 435 453 464 q 428 353 428 407 l 428 0 z "},"i":{"ha":497,"x_min":51,"x_max":446,"o":"m 389 853 q 360 832 389 853 q 249 810 332 810 q 108 853 165 810 q 51 983 51 897 q 107 1109 51 1063 q 249 1156 163 1156 q 390 1109 335 1156 q 446 983 446 1063 q 389 853 446 897 m 428 0 l 69 0 l 69 738 l 428 738 l 428 0 z "},"j":{"ha":497,"x_min":51,"x_max":446,"o":"m 389 853 q 360 832 389 853 q 249 810 332 810 q 108 853 165 810 q 51 983 51 897 q 107 1109 51 1063 q 249 1156 163 1156 q 390 1109 335 1156 q 446 983 446 1063 q 389 853 446 897 m 428 -304 l 69 -304 l 69 738 l 428 738 l 428 -304 z "},"k":{"ha":1010,"x_min":69,"x_max":1008,"o":"m 724 376 l 1008 0 l 586 0 l 438 264 l 428 260 l 428 0 l 69 0 l 69 1126 l 428 1126 l 428 464 l 586 738 l 994 738 l 724 376 z "},"l":{"ha":497,"x_min":69,"x_max":428,"o":"m 428 0 l 69 0 l 69 1126 l 428 1126 l 428 0 z "},"m":{"ha":1386,"x_min":69,"x_max":1319,"o":"m 417 0 l 69 0 l 69 738 l 408 738 l 397 607 l 408 607 q 490 714 431 674 q 622 754 550 754 q 833 597 783 754 l 842 597 q 928 716 875 678 q 1065 754 981 754 q 1256 671 1192 754 q 1319 458 1319 588 l 1319 0 l 972 0 l 972 365 q 963 440 972 417 q 919 464 953 464 q 878 440 888 464 q 868 365 868 417 l 868 0 l 521 0 l 521 365 q 511 440 521 417 q 468 464 501 464 q 426 440 436 464 q 417 365 417 417 l 417 0 z "},"n":{"ha":974,"x_min":69,"x_max":907,"o":"m 428 0 l 69 0 l 69 738 l 419 738 l 411 619 l 414 619 q 520 722 469 689 q 651 754 571 754 q 844 670 781 754 q 907 454 907 586 l 907 0 l 549 0 l 549 360 q 547 412 549 393 q 531 447 544 431 q 493 464 518 464 q 440 435 453 464 q 428 353 428 407 l 428 0 z "},"o":{"ha":986,"x_min":42,"x_max":944,"o":"m 817 82 q 753 33 817 82 q 493 -17 689 -17 q 169 82 297 -17 q 42 369 42 181 q 170 653 42 553 q 493 754 299 754 q 816 653 688 754 q 944 369 944 553 q 817 82 944 181 m 420 295 q 434 281 420 295 q 493 267 447 267 q 566 295 539 267 q 593 369 593 324 q 566 443 593 415 q 493 471 539 471 q 420 443 447 471 q 393 369 393 415 q 420 295 393 324 z "},"p":{"ha":1008,"x_min":71,"x_max":968,"o":"m 429 -304 l 71 -304 l 71 738 l 422 738 l 418 639 l 422 639 q 647 754 497 754 q 885 642 801 754 q 968 369 968 531 q 881 98 968 213 q 639 -17 793 -17 q 512 16 569 -17 q 422 101 454 49 l 421 101 q 429 -71 429 21 l 429 -304 m 440 293 q 454 278 440 293 q 514 264 468 264 q 587 292 560 264 q 614 369 614 321 q 587 445 614 417 q 514 474 560 474 q 440 445 468 474 q 413 369 413 417 q 440 293 413 322 z "},"q":{"ha":1008,"x_min":40,"x_max":938,"o":"m 938 -304 l 579 -304 l 579 -90 q 588 101 579 4 l 586 101 q 497 16 554 49 q 369 -17 439 -17 q 128 98 215 -17 q 40 369 40 213 q 124 642 40 531 q 361 754 207 754 q 586 639 511 754 l 590 639 l 586 738 l 938 738 l 938 -304 m 422 292 q 435 278 422 292 q 494 264 449 264 q 568 293 540 264 q 596 369 596 322 q 568 445 596 417 q 494 474 540 474 q 422 445 449 474 q 394 369 394 417 q 422 292 394 321 z "},"r":{"ha":689,"x_min":69,"x_max":678,"o":"m 428 0 l 69 0 l 69 738 l 428 738 l 419 639 l 428 639 q 522 729 471 704 q 653 754 572 754 l 678 754 l 678 390 q 558 431 614 431 q 463 392 497 431 q 428 283 428 353 l 428 0 z "},"s":{"ha":769,"x_min":28,"x_max":721,"o":"m 364 -21 q 28 76 176 -21 l 135 293 q 331 213 233 213 q 382 240 382 213 q 366 261 382 254 q 310 275 350 268 q 74 492 74 314 q 172 691 74 626 q 418 756 269 756 q 693 697 588 756 l 608 479 q 451 535 542 535 q 396 507 396 535 q 401 494 396 499 q 419 485 406 489 q 446 478 432 481 q 489 469 460 475 q 660 403 600 450 q 721 254 721 357 q 624 52 721 125 q 364 -21 528 -21 z "},"t":{"ha":626,"x_min":13,"x_max":614,"o":"m 489 0 l 131 0 l 131 450 l 13 450 l 13 738 l 131 738 l 131 975 l 489 975 l 489 738 l 614 738 l 614 450 l 489 450 l 489 0 z "},"u":{"ha":967,"x_min":67,"x_max":900,"o":"m 787 68 q 730 26 787 68 q 483 -17 674 -17 q 180 68 293 -17 q 67 321 67 153 l 67 738 l 422 738 l 422 357 q 425 313 422 329 q 442 283 428 297 q 483 268 456 268 q 525 283 511 268 q 542 313 539 297 q 544 357 544 329 l 544 738 l 900 738 l 900 321 q 787 68 900 153 z "},"v":{"ha":953,"x_min":-8,"x_max":961,"o":"m 640 0 l 315 0 l -8 738 l 376 738 l 478 389 l 576 738 l 961 738 l 640 0 z "},"w":{"ha":1318,"x_min":-21,"x_max":1339,"o":"m 571 0 l 278 0 l -21 738 l 357 738 l 442 328 l 542 738 l 776 738 l 881 328 l 963 738 l 1339 738 l 1036 0 l 747 0 l 660 328 l 571 0 z "},"x":{"ha":1024,"x_min":0,"x_max":1022,"o":"m 718 378 l 1022 0 l 601 0 l 513 161 l 432 0 l 0 0 l 314 385 l 31 738 l 442 738 l 515 583 l 590 738 l 1001 738 l 718 378 z "},"y":{"ha":958,"x_min":-8,"x_max":967,"o":"m 481 342 l 590 738 l 967 738 l 494 -304 l 117 -304 l 306 76 l -8 738 l 378 738 l 481 342 z "},"z":{"ha":851,"x_min":28,"x_max":824,"o":"m 806 0 l 28 0 l 28 50 l 317 461 l 64 461 l 64 738 l 824 738 l 824 696 l 531 276 l 806 276 l 806 0 z "},"{":{"ha":642,"x_min":50,"x_max":592,"o":"m 589 -254 l 425 -254 q 227 -199 283 -254 q 171 0 171 -143 l 171 249 q 50 378 171 367 l 50 549 q 171 678 171 560 l 171 926 q 231 1124 171 1068 q 436 1181 292 1181 l 592 1181 l 592 986 l 553 986 q 491 966 507 986 q 475 903 475 946 l 475 678 q 296 469 475 515 l 296 467 q 475 249 475 421 l 475 24 q 490 -40 475 -19 q 550 -60 506 -60 l 589 -60 l 589 -254 z "},"|":{"ha":1111,"x_min":417,"x_max":694,"o":"m 694 -306 l 417 -306 l 417 1161 l 694 1161 l 694 -306 z "},"}":{"ha":642,"x_min":50,"x_max":592,"o":"m 217 -254 l 53 -254 l 53 -60 l 92 -60 q 151 -40 136 -60 q 167 24 167 -19 l 167 249 q 346 467 167 421 l 346 469 q 167 678 167 515 l 167 903 q 151 966 167 946 q 89 986 135 986 l 50 986 l 53 1181 l 206 1181 q 410 1124 350 1181 q 471 926 471 1068 l 471 678 q 592 549 471 560 l 592 378 q 471 249 471 367 l 471 0 q 415 -199 471 -143 q 217 -254 358 -254 z "},"~":{"ha":1042,"x_min":58,"x_max":983,"o":"m 707 276 q 510 326 629 276 q 349 375 392 375 q 221 283 271 375 l 58 339 q 168 573 96 493 q 333 653 240 653 q 537 603 411 653 q 699 554 663 554 q 744 564 724 554 q 781 593 765 574 q 804 627 796 613 q 824 667 813 642 l 983 593 q 707 276 897 276 z "}," ":{"ha":347,"x_min":0,"x_max":0,"o":""},"¡":{"ha":578,"x_min":82,"x_max":496,"o":"m 144 797 q 176 821 144 797 q 289 844 207 844 q 433 797 371 844 q 496 672 496 750 q 433 544 496 593 q 289 496 371 496 q 144 544 207 496 q 82 672 82 593 q 144 797 82 750 m 106 -219 l 106 428 l 472 428 l 472 -219 l 106 -219 z "},"¢":{"ha":689,"x_min":42,"x_max":647,"o":"m 515 626 q 434 597 465 626 q 403 517 403 567 q 434 442 403 474 q 514 411 465 411 q 647 468 571 411 l 632 165 q 474 131 560 135 l 481 7 l 364 7 l 371 136 q 131 255 219 157 q 42 513 42 353 q 133 772 42 663 q 371 899 225 881 l 364 1024 l 481 1024 l 474 900 q 647 864 575 892 l 647 565 q 515 626 575 626 z "},"£":{"ha":1079,"x_min":42,"x_max":1079,"o":"m 915 356 l 1079 147 q 913 21 981 56 q 757 -14 846 -14 q 558 21 692 -14 q 378 56 425 56 q 288 42 331 56 q 178 -15 246 28 l 42 211 q 300 326 193 313 q 303 371 303 360 q 296 419 303 392 l 94 419 l 94 642 l 194 642 q 175 754 175 703 q 287 978 175 890 q 604 1065 399 1065 q 901 979 797 1065 q 1010 753 1004 893 l 704 722 q 604 819 694 819 q 540 794 564 819 q 515 726 515 768 q 532 642 515 692 l 738 642 l 738 419 l 618 419 q 625 365 625 389 q 613 290 625 332 q 740 264 703 264 q 824 283 786 264 q 915 356 861 303 z "},"¤":{"ha":872,"x_min":69,"x_max":803,"o":"m 703 606 q 729 486 729 549 q 703 367 729 424 l 803 267 l 656 119 l 556 219 q 436 193 499 193 q 317 219 374 193 l 217 119 l 69 267 l 169 367 q 143 486 143 424 q 169 606 143 549 l 69 706 l 217 853 l 317 753 q 436 779 374 779 q 556 753 499 779 l 656 853 l 803 706 l 703 606 m 376 547 q 364 534 376 547 q 351 486 351 522 q 376 426 351 450 q 436 401 400 401 q 497 426 472 401 q 521 486 521 450 q 497 547 521 522 q 436 571 472 571 q 376 547 400 571 z "},"¥":{"ha":1074,"x_min":-11,"x_max":1085,"o":"m 657 1047 l 1085 1047 l 835 632 l 949 632 l 949 438 l 726 438 l 726 335 l 949 335 l 949 140 l 726 140 l 726 0 l 354 0 l 354 140 l 131 140 l 131 335 l 354 335 l 354 438 l 131 438 l 131 632 l 243 632 l -11 1047 l 419 1047 l 543 774 l 657 1047 z "},"¦":{"ha":1111,"x_min":417,"x_max":694,"o":"m 694 569 l 417 569 l 417 1161 l 694 1161 l 694 569 m 694 -306 l 417 -306 l 417 286 l 694 286 l 694 -306 z "},"§":{"ha":822,"x_min":24,"x_max":783,"o":"m 372 -325 q 29 -236 168 -325 l 133 -11 q 356 -87 247 -87 q 447 -37 447 -87 q 418 9 447 -11 q 279 72 389 29 q 81 193 138 129 q 24 357 24 257 q 193 603 24 525 l 193 606 q 53 811 53 672 q 152 999 53 932 q 435 1067 251 1067 q 613 1044 528 1067 q 751 988 699 1022 l 642 775 q 456 829 561 829 q 351 779 351 829 q 383 734 351 753 q 511 688 415 715 q 722 576 660 643 q 783 399 783 510 q 613 153 783 233 l 613 151 q 716 56 686 106 q 746 -64 746 7 q 642 -256 746 -187 q 372 -325 538 -325 m 313 304 q 329 290 313 304 q 403 276 346 276 q 493 304 460 276 q 526 376 526 332 q 493 449 526 422 q 403 476 460 476 q 313 449 346 476 q 279 378 279 422 q 313 304 279 332 z "},"¨":{"ha":653,"x_min":-19,"x_max":672,"o":"m 244 853 q 222 832 244 853 q 135 810 200 810 q 25 853 69 810 q -19 963 -19 897 q 25 1072 -19 1028 q 135 1117 69 1117 q 244 1072 200 1117 q 288 963 288 1028 q 244 853 288 897 m 628 853 q 607 832 628 853 q 519 810 585 810 q 410 853 454 810 q 365 963 365 897 q 410 1072 365 1028 q 519 1117 454 1117 q 628 1072 585 1117 q 672 963 672 1028 q 628 853 672 897 z "},"©":{"ha":1142,"x_min":28,"x_max":1114,"o":"m 956 138 q 876 58 956 138 q 571 -21 797 -21 q 186 138 344 -21 q 28 522 28 296 q 186 906 28 747 q 571 1064 344 1064 q 956 906 797 1064 q 1114 522 1114 747 q 956 138 1114 296 m 571 121 q 856 231 744 121 q 967 522 967 342 q 856 812 967 701 q 571 922 746 922 q 285 813 394 922 q 175 522 175 703 q 285 231 175 342 q 571 121 394 121 m 594 242 q 394 322 475 242 q 314 522 314 403 q 398 728 314 643 q 603 814 482 814 q 739 790 668 814 l 744 579 q 626 635 685 635 q 551 606 585 635 q 517 528 517 576 q 550 451 517 482 q 629 419 583 419 q 744 471 693 419 l 739 264 q 594 242 694 242 z "},"ª":{"ha":583,"x_min":38,"x_max":538,"o":"m 231 606 q 92 672 146 606 q 38 832 38 739 q 92 990 38 922 q 231 1057 147 1057 q 349 1000 303 1057 l 350 1000 l 349 1047 l 538 1047 l 538 617 l 349 617 l 350 665 l 349 665 q 295 619 321 632 q 231 606 269 606 m 292 765 q 340 783 324 765 q 357 831 357 801 q 340 878 357 860 q 293 897 324 897 q 247 878 264 897 q 231 832 231 860 q 292 765 231 765 z "},"«":{"ha":926,"x_min":42,"x_max":885,"o":"m 496 126 l 279 15 l 42 375 l 279 733 l 496 622 l 358 375 l 496 126 m 885 126 l 668 15 l 431 375 l 668 733 l 885 622 l 747 375 l 885 126 z "},"¬":{"ha":1111,"x_min":139,"x_max":972,"o":"m 972 85 l 694 85 l 694 322 l 139 322 l 139 600 l 972 600 l 972 85 z "},"­":{"ha":551,"x_min":28,"x_max":524,"o":"m 524 229 l 28 229 l 28 535 l 524 535 l 524 229 z "},"®":{"ha":706,"x_min":28,"x_max":678,"o":"m 123 963 q 170 1011 123 963 q 353 1060 218 1060 q 583 963 488 1060 q 678 735 678 867 q 583 506 678 603 q 353 408 488 408 q 123 506 218 408 q 28 735 28 603 q 123 963 28 867 m 353 494 q 523 565 454 494 q 592 735 592 635 q 523 904 592 835 q 353 974 454 974 q 182 905 250 974 q 114 735 114 836 q 182 564 114 633 q 353 494 250 494 m 488 793 q 435 699 488 725 l 518 571 l 404 571 l 346 685 l 329 685 l 329 571 l 228 571 l 228 907 l 340 907 q 488 793 488 907 m 346 819 l 329 819 l 329 761 l 346 761 q 389 792 389 761 q 346 819 389 819 z "},"¯":{"ha":604,"x_min":35,"x_max":569,"o":"m 569 847 l 35 847 l 35 1049 l 569 1049 l 569 847 z "},"°":{"ha":588,"x_min":42,"x_max":546,"o":"m 292 550 q 115 624 188 550 q 42 803 42 697 q 115 980 42 907 q 292 1053 189 1053 q 471 978 396 1053 q 546 799 546 903 q 470 624 546 697 q 292 550 394 550 m 226 735 q 240 721 226 735 q 293 707 254 707 q 360 735 332 707 q 389 801 389 763 q 360 868 389 840 q 292 896 332 896 q 226 868 253 896 q 199 801 199 840 q 226 735 199 763 z "},"±":{"ha":1111,"x_min":139,"x_max":972,"o":"m 694 411 l 417 411 l 417 550 l 139 550 l 139 828 l 417 828 l 417 967 l 694 967 l 694 828 l 972 828 l 972 550 l 694 550 l 694 411 m 972 56 l 139 56 l 139 333 l 972 333 l 972 56 z "},"²":{"ha":649,"x_min":-14,"x_max":600,"o":"m 410 833 l 369 810 q 600 840 507 840 l 600 625 l -14 625 l -14 626 l 215 856 q 317 965 288 928 q 347 1031 347 1003 q 321 1058 347 1058 q 283 1001 290 1058 l 40 1001 q 130 1203 63 1140 q 331 1265 197 1265 q 522 1213 453 1265 q 590 1060 590 1160 q 410 833 590 939 z "},"³":{"ha":671,"x_min":35,"x_max":615,"o":"m 332 615 q 35 849 50 615 l 281 849 q 329 799 285 799 q 372 846 372 799 q 318 894 372 894 q 293 892 301 894 l 293 1019 q 318 1018 303 1018 q 360 1054 360 1018 q 331 1085 360 1085 q 300 1053 306 1085 l 57 1053 q 339 1264 85 1264 q 517 1218 440 1264 q 593 1088 593 1172 q 511 963 593 1003 q 587 910 558 949 q 615 819 615 871 q 529 667 615 719 q 332 615 443 615 z "},"´":{"ha":411,"x_min":0,"x_max":453,"o":"m 453 990 l 182 790 l 0 890 l 210 1161 l 453 990 z "},"µ":{"ha":978,"x_min":69,"x_max":908,"o":"m 400 -304 l 69 -304 l 69 738 l 428 738 l 428 335 q 446 283 428 301 q 490 264 464 264 q 533 283 515 264 q 550 335 550 301 l 550 738 l 908 738 l 908 0 l 578 0 l 565 46 l 563 46 q 486 -8 536 -8 q 408 43 433 -8 l 406 43 l 400 -304 z "},"¶":{"ha":1079,"x_min":76,"x_max":988,"o":"m 649 -235 l 385 -235 l 385 321 q 167 429 257 335 q 76 675 76 524 q 177 941 76 835 q 432 1047 278 1047 l 988 1047 l 988 -235 l 724 -235 l 724 783 l 649 783 l 649 -235 z "},"·":{"ha":525,"x_min":82,"x_max":443,"o":"m 390 359 q 363 332 390 359 q 263 306 336 306 q 135 359 189 306 q 82 486 82 413 q 135 613 82 560 q 263 667 189 667 q 390 613 336 667 q 443 486 443 560 q 390 359 443 413 z "},"¸":{"ha":583,"x_min":125,"x_max":476,"o":"m 476 -135 l 257 -324 l 125 -240 l 301 -7 l 476 -135 z "},"¹":{"ha":442,"x_min":28,"x_max":372,"o":"m 372 625 l 128 625 l 128 1031 l 28 1025 l 28 1244 l 372 1253 l 372 625 z "},"º":{"ha":568,"x_min":38,"x_max":531,"o":"m 282 606 q 106 667 174 606 q 38 835 38 729 q 106 995 38 933 q 283 1057 175 1057 q 461 995 392 1057 q 531 831 531 933 q 462 667 531 728 q 282 606 393 606 m 283 765 q 339 831 339 765 q 283 897 339 897 q 243 879 257 897 q 229 833 229 861 q 283 765 229 765 z "},"»":{"ha":926,"x_min":42,"x_max":885,"o":"m 496 375 l 258 15 l 42 126 l 179 375 l 42 622 l 258 733 l 496 375 m 885 375 l 647 15 l 431 126 l 568 375 l 431 622 l 647 733 l 885 375 z "},"¼":{"ha":1265,"x_min":28,"x_max":1228,"o":"m 372 1047 l 372 419 l 128 419 l 128 825 l 28 819 l 28 1039 l 372 1047 m 138 0 l 856 1047 l 1006 1047 l 292 0 l 138 0 m 1164 282 l 1228 282 l 1228 103 l 1158 103 l 1164 0 l 926 0 l 933 103 l 640 103 l 640 229 l 935 638 l 1164 638 l 1164 282 m 857 282 l 933 282 l 936 336 q 943 407 940 385 l 857 282 z "},"½":{"ha":1267,"x_min":28,"x_max":1218,"o":"m 372 419 l 128 419 l 128 825 l 28 819 l 28 1039 l 372 1047 l 372 419 m 124 0 l 842 1047 l 992 1047 l 278 0 l 124 0 m 1028 208 l 988 185 q 1218 215 1125 215 l 1218 0 l 604 0 l 604 1 l 833 231 q 935 340 906 303 q 965 406 965 378 q 939 433 965 433 q 901 376 908 433 l 658 376 q 748 578 681 515 q 949 640 815 640 q 1140 588 1071 640 q 1208 435 1208 535 q 1028 208 1208 314 z "},"¾":{"ha":1494,"x_min":35,"x_max":1457,"o":"m 615 614 q 529 462 615 514 q 332 410 443 410 q 35 643 50 410 l 281 643 q 329 593 285 593 q 372 640 372 593 q 318 689 372 689 q 293 686 301 689 l 293 814 q 303 813 294 814 q 318 813 313 813 q 360 849 360 813 q 331 879 360 879 q 300 847 306 879 l 57 847 q 339 1058 85 1058 q 517 1013 440 1058 q 593 882 593 967 q 511 757 593 797 q 587 704 558 743 q 615 614 615 665 m 353 0 l 1071 1047 l 1221 1047 l 507 0 l 353 0 m 1393 282 l 1457 282 l 1457 103 l 1388 103 l 1393 0 l 1156 0 l 1163 103 l 869 103 l 869 229 l 1164 638 l 1393 638 l 1393 282 m 1086 282 l 1163 282 l 1165 336 q 1172 407 1169 385 l 1086 282 z "},"¿":{"ha":922,"x_min":49,"x_max":874,"o":"m 586 544 q 555 520 586 544 q 442 496 524 496 q 297 544 360 496 q 235 672 235 593 q 297 797 235 750 q 442 844 360 844 q 586 797 524 844 q 649 672 649 750 q 586 544 649 593 m 465 -237 q 163 -151 276 -237 q 49 79 49 -65 q 269 340 49 297 l 269 449 l 608 449 l 608 193 l 553 193 q 397 90 397 193 q 461 22 397 22 q 532 101 532 22 l 532 106 l 874 106 l 874 101 q 763 -148 874 -58 q 465 -237 653 -237 z "},"À":{"ha":1131,"x_min":-14,"x_max":1144,"o":"m 538 1493 l 747 1222 l 565 1122 l 294 1322 l 538 1493 m 1144 0 l 732 0 l 700 135 l 414 135 l 379 0 l -14 0 l 350 1047 l 771 1047 l 1144 0 m 518 536 l 479 385 l 640 385 l 604 533 l 563 714 q 518 536 553 669 z "},"Á":{"ha":1131,"x_min":-14,"x_max":1144,"o":"m 553 1493 l 796 1322 l 525 1122 l 343 1222 l 553 1493 m 1144 0 l 732 0 l 700 135 l 414 135 l 379 0 l -14 0 l 350 1047 l 771 1047 l 1144 0 m 518 536 l 479 385 l 640 385 l 604 533 l 563 714 q 518 536 553 669 z "},"Â":{"ha":1131,"x_min":-14,"x_max":1144,"o":"m 789 1139 l 565 1224 l 342 1139 l 247 1306 l 565 1479 l 883 1306 l 789 1139 m 1144 0 l 732 0 l 700 135 l 414 135 l 379 0 l -14 0 l 350 1047 l 771 1047 l 1144 0 m 518 536 l 479 385 l 640 385 l 604 533 l 563 714 q 518 536 553 669 z "},"Ã":{"ha":1131,"x_min":-14,"x_max":1144,"o":"m 451 1193 q 369 1115 407 1193 l 228 1213 q 330 1347 269 1293 q 464 1400 390 1400 q 576 1355 511 1400 q 671 1310 642 1310 q 710 1324 692 1310 q 735 1351 728 1339 q 753 1388 742 1364 l 906 1304 q 681 1103 810 1103 q 556 1148 639 1103 q 451 1193 474 1193 m 1144 0 l 732 0 l 700 135 l 414 135 l 379 0 l -14 0 l 350 1047 l 771 1047 l 1144 0 m 518 536 l 479 385 l 640 385 l 604 533 l 563 714 q 518 536 553 669 z "},"Ä":{"ha":1131,"x_min":-14,"x_max":1144,"o":"m 483 1194 q 461 1172 483 1194 q 374 1150 439 1150 q 264 1194 308 1150 q 219 1303 219 1238 q 264 1413 219 1368 q 374 1457 308 1457 q 483 1413 439 1457 q 526 1303 526 1368 q 483 1194 526 1239 m 867 1194 q 845 1172 867 1194 q 758 1150 824 1150 q 649 1194 693 1150 q 604 1303 604 1238 q 649 1413 604 1368 q 758 1457 693 1457 q 867 1413 824 1457 q 911 1303 911 1368 q 867 1194 911 1238 m 1144 0 l 732 0 l 700 135 l 414 135 l 379 0 l -14 0 l 350 1047 l 771 1047 l 1144 0 m 518 536 l 479 385 l 640 385 l 604 533 l 563 714 q 518 536 553 669 z "},"Å":{"ha":1131,"x_min":-14,"x_max":1144,"o":"m 711 1128 q 680 1106 711 1128 q 564 1083 649 1083 q 417 1128 479 1083 q 354 1256 354 1174 q 417 1384 354 1338 q 564 1431 479 1431 q 711 1384 649 1431 q 774 1256 774 1338 q 711 1128 774 1174 m 609 1300 q 600 1308 609 1300 q 564 1317 590 1317 q 519 1300 538 1317 q 500 1257 500 1283 q 519 1214 500 1231 q 564 1197 538 1197 q 609 1214 590 1197 q 628 1257 628 1231 q 609 1300 628 1283 m 1144 0 l 732 0 l 700 135 l 414 135 l 379 0 l -14 0 l 350 1047 l 771 1047 l 1144 0 m 518 536 l 479 385 l 640 385 l 604 533 l 563 714 q 518 536 553 669 z "},"Æ":{"ha":1440,"x_min":-14,"x_max":1454,"o":"m 386 0 l -14 0 l 351 1047 l 1082 1047 l 1185 761 l 872 761 l 904 665 l 1218 665 l 1314 393 l 1004 393 l 1040 286 l 1354 286 l 1454 0 l 740 0 l 704 133 l 419 133 l 386 0 m 536 576 l 485 379 l 640 379 l 586 576 q 567 697 572 628 l 556 697 q 536 576 549 631 z "},"Ç":{"ha":918,"x_min":49,"x_max":863,"o":"m 581 -17 q 203 137 357 -17 q 49 514 49 290 q 208 903 49 743 q 596 1064 367 1064 q 851 1021 726 1064 l 863 621 q 639 728 751 728 q 497 672 561 728 q 432 524 432 617 q 495 378 432 438 q 644 319 558 319 q 863 417 763 319 l 851 25 q 726 -6 808 6 q 581 -17 644 -17 m 613 -135 l 393 -324 l 261 -240 l 438 -7 l 613 -135 z "},"È":{"ha":854,"x_min":76,"x_max":792,"o":"m 611 1222 l 429 1122 l 158 1322 l 401 1493 l 611 1222 m 792 0 l 76 0 l 76 1047 l 781 1047 l 781 761 l 443 761 l 443 665 l 753 665 l 753 393 l 443 393 l 443 286 l 792 286 l 792 0 z "},"É":{"ha":854,"x_min":76,"x_max":792,"o":"m 660 1322 l 389 1122 l 207 1222 l 417 1493 l 660 1322 m 792 0 l 76 0 l 76 1047 l 781 1047 l 781 761 l 443 761 l 443 665 l 753 665 l 753 393 l 443 393 l 443 286 l 792 286 l 792 0 z "},"Ê":{"ha":854,"x_min":76,"x_max":792,"o":"m 429 1224 l 206 1139 l 111 1306 l 429 1479 l 747 1306 l 653 1139 l 429 1224 m 792 0 l 76 0 l 76 1047 l 781 1047 l 781 761 l 443 761 l 443 665 l 753 665 l 753 393 l 443 393 l 443 286 l 792 286 l 792 0 z "},"Ë":{"ha":854,"x_min":76,"x_max":792,"o":"m 347 1194 q 325 1172 347 1194 q 238 1150 303 1150 q 128 1194 172 1150 q 83 1303 83 1238 q 128 1413 83 1368 q 238 1457 172 1457 q 347 1413 303 1457 q 390 1303 390 1368 q 347 1194 390 1239 m 731 1194 q 709 1172 731 1194 q 622 1150 688 1150 q 513 1194 557 1150 q 468 1303 468 1238 q 513 1413 468 1368 q 622 1457 557 1457 q 731 1413 688 1457 q 775 1303 775 1368 q 731 1194 775 1238 m 792 0 l 76 0 l 76 1047 l 781 1047 l 781 761 l 443 761 l 443 665 l 753 665 l 753 393 l 443 393 l 443 286 l 792 286 l 792 0 z "},"Ì":{"ha":519,"x_min":-11,"x_max":443,"o":"m 442 1222 l 260 1122 l -11 1322 l 232 1493 l 442 1222 m 443 0 l 76 0 l 76 1047 l 443 1047 l 443 0 z "},"Í":{"ha":519,"x_min":38,"x_max":490,"o":"m 490 1322 l 219 1122 l 38 1222 l 247 1493 l 490 1322 m 443 0 l 76 0 l 76 1047 l 443 1047 l 443 0 z "},"Î":{"ha":519,"x_min":-58,"x_max":578,"o":"m 260 1224 l 36 1139 l -58 1306 l 260 1479 l 578 1306 l 483 1139 l 260 1224 m 443 0 l 76 0 l 76 1047 l 443 1047 l 443 0 z "},"Ï":{"ha":519,"x_min":-86,"x_max":606,"o":"m 177 1194 q 155 1172 177 1194 q 68 1150 133 1150 q -42 1194 3 1150 q -86 1303 -86 1238 q -42 1413 -86 1368 q 68 1457 3 1457 q 177 1413 133 1457 q 221 1303 221 1368 q 177 1194 221 1239 m 562 1194 q 540 1172 562 1194 q 453 1150 518 1150 q 343 1194 388 1150 q 299 1303 299 1238 q 343 1413 299 1368 q 453 1457 388 1457 q 562 1413 518 1457 q 606 1303 606 1368 q 562 1194 606 1238 m 443 0 l 76 0 l 76 1047 l 443 1047 l 443 0 z "},"Ð":{"ha":1133,"x_min":3,"x_max":1085,"o":"m 76 1047 l 464 1047 q 709 1017 599 1047 q 905 923 819 986 q 1038 754 990 860 q 1085 508 1085 649 q 938 139 1085 278 q 558 0 792 0 l 76 0 l 76 443 l 3 443 l 3 592 l 76 592 l 76 1047 m 443 314 l 481 314 q 642 363 581 314 q 704 510 704 411 q 481 719 704 719 l 443 719 l 443 592 l 583 592 l 583 443 l 443 443 l 443 314 z "},"Ñ":{"ha":1203,"x_min":76,"x_max":1126,"o":"m 501 1193 q 419 1115 457 1193 l 278 1213 q 380 1347 319 1293 q 514 1400 440 1400 q 626 1355 561 1400 q 721 1310 692 1310 q 760 1324 742 1310 q 785 1351 778 1339 q 803 1388 792 1364 l 956 1304 q 731 1103 860 1103 q 606 1148 689 1103 q 501 1193 524 1193 m 783 478 l 763 1047 l 1126 1047 l 1126 0 l 763 0 l 428 551 l 440 0 l 76 0 l 76 1047 l 442 1047 l 783 478 z "},"Ò":{"ha":1256,"x_min":49,"x_max":1207,"o":"m 810 1222 l 628 1122 l 357 1322 l 600 1493 l 810 1222 m 1041 130 q 958 57 1041 130 q 628 -17 875 -17 q 215 130 381 -17 q 49 521 49 276 q 216 913 49 761 q 628 1064 383 1064 q 1040 913 872 1064 q 1207 521 1207 761 q 1041 130 1207 276 m 486 375 q 513 347 486 375 q 628 319 540 319 q 769 375 715 319 q 824 521 824 431 q 770 668 824 608 q 628 728 717 728 q 485 668 539 728 q 432 521 432 608 q 486 375 432 431 z "},"Ó":{"ha":1256,"x_min":49,"x_max":1207,"o":"m 858 1322 l 588 1122 l 406 1222 l 615 1493 l 858 1322 m 1041 130 q 958 57 1041 130 q 628 -17 875 -17 q 215 130 381 -17 q 49 521 49 276 q 216 913 49 761 q 628 1064 383 1064 q 1040 913 872 1064 q 1207 521 1207 761 q 1041 130 1207 276 m 486 375 q 513 347 486 375 q 628 319 540 319 q 769 375 715 319 q 824 521 824 431 q 770 668 824 608 q 628 728 717 728 q 485 668 539 728 q 432 521 432 608 q 486 375 432 431 z "},"Ô":{"ha":1256,"x_min":49,"x_max":1207,"o":"m 628 1224 l 404 1139 l 310 1306 l 628 1479 l 946 1306 l 851 1139 l 628 1224 m 1041 130 q 958 57 1041 130 q 628 -17 875 -17 q 215 130 381 -17 q 49 521 49 276 q 216 913 49 761 q 628 1064 383 1064 q 1040 913 872 1064 q 1207 521 1207 761 q 1041 130 1207 276 m 486 375 q 513 347 486 375 q 628 319 540 319 q 769 375 715 319 q 824 521 824 431 q 770 668 824 608 q 628 728 717 728 q 485 668 539 728 q 432 521 432 608 q 486 375 432 431 z "},"Õ":{"ha":1256,"x_min":49,"x_max":1207,"o":"m 743 1103 q 619 1148 701 1103 q 514 1193 536 1193 q 432 1115 469 1193 l 290 1213 q 392 1347 332 1293 q 526 1400 453 1400 q 639 1355 574 1400 q 733 1310 704 1310 q 772 1324 754 1310 q 797 1351 790 1339 q 815 1388 804 1364 l 968 1304 q 743 1103 872 1103 m 1041 130 q 958 57 1041 130 q 628 -17 875 -17 q 215 130 381 -17 q 49 521 49 276 q 216 913 49 761 q 628 1064 383 1064 q 1040 913 872 1064 q 1207 521 1207 761 q 1041 130 1207 276 m 486 375 q 513 347 486 375 q 628 319 540 319 q 769 375 715 319 q 824 521 824 431 q 770 668 824 608 q 628 728 717 728 q 485 668 539 728 q 432 521 432 608 q 486 375 432 431 z "},"Ö":{"ha":1256,"x_min":49,"x_max":1207,"o":"m 436 1150 q 326 1194 371 1150 q 282 1303 282 1238 q 326 1413 282 1368 q 436 1457 371 1457 q 545 1413 501 1457 q 589 1303 589 1368 q 544 1194 589 1239 q 436 1150 500 1150 m 930 1194 q 908 1172 930 1194 q 821 1150 886 1150 q 711 1194 756 1150 q 667 1303 667 1238 q 711 1413 667 1368 q 821 1457 756 1457 q 930 1413 886 1457 q 974 1303 974 1368 q 930 1194 974 1238 m 1041 130 q 958 57 1041 130 q 628 -17 875 -17 q 215 130 381 -17 q 49 521 49 276 q 216 913 49 761 q 628 1064 383 1064 q 1040 913 872 1064 q 1207 521 1207 761 q 1041 130 1207 276 m 486 375 q 513 347 486 375 q 628 319 540 319 q 769 375 715 319 q 824 521 824 431 q 770 668 824 608 q 628 728 717 728 q 485 668 539 728 q 432 521 432 608 q 486 375 432 431 z "},"×":{"ha":1111,"x_min":139,"x_max":972,"o":"m 556 221 l 336 0 l 139 196 l 360 417 l 139 638 l 336 833 l 556 613 l 776 833 l 972 638 l 753 417 l 972 196 l 776 0 l 556 221 z "},"Ø":{"ha":1256,"x_min":36,"x_max":1219,"o":"m 1133 1139 l 1219 1064 l 1058 894 q 1207 521 1207 743 q 1041 130 1207 276 q 628 -17 875 -17 q 283 78 432 -17 l 122 -92 l 36 -11 l 192 151 q 49 521 49 299 q 216 913 49 761 q 628 1064 383 1064 q 969 967 821 1064 l 1133 1139 m 432 521 q 453 425 432 467 l 721 706 q 628 728 679 728 q 485 668 539 728 q 432 521 432 608 m 824 521 q 801 624 824 575 l 533 340 q 628 319 574 319 q 769 375 715 319 q 824 521 824 431 z "},"Ù":{"ha":1108,"x_min":69,"x_max":1039,"o":"m 738 1222 l 556 1122 l 285 1322 l 528 1493 l 738 1222 m 910 94 q 846 39 910 94 q 554 -17 782 -17 q 198 94 326 -17 q 69 428 69 206 l 69 1047 l 450 1047 l 450 464 q 452 403 450 425 q 464 357 454 382 q 496 321 474 332 q 554 310 518 310 q 613 321 590 310 q 644 357 635 332 q 656 403 654 382 q 658 464 658 425 l 658 1047 l 1039 1047 l 1039 428 q 910 94 1039 206 z "},"Ú":{"ha":1108,"x_min":69,"x_max":1039,"o":"m 786 1322 l 515 1122 l 333 1222 l 543 1493 l 786 1322 m 910 94 q 846 39 910 94 q 554 -17 782 -17 q 198 94 326 -17 q 69 428 69 206 l 69 1047 l 450 1047 l 450 464 q 452 403 450 425 q 464 357 454 382 q 496 321 474 332 q 554 310 518 310 q 613 321 590 310 q 644 357 635 332 q 656 403 654 382 q 658 464 658 425 l 658 1047 l 1039 1047 l 1039 428 q 910 94 1039 206 z "},"Û":{"ha":1108,"x_min":69,"x_max":1039,"o":"m 556 1224 l 332 1139 l 238 1306 l 556 1479 l 874 1306 l 779 1139 l 556 1224 m 910 94 q 846 39 910 94 q 554 -17 782 -17 q 198 94 326 -17 q 69 428 69 206 l 69 1047 l 450 1047 l 450 464 q 452 403 450 425 q 464 357 454 382 q 496 321 474 332 q 554 310 518 310 q 613 321 590 310 q 644 357 635 332 q 656 403 654 382 q 658 464 658 425 l 658 1047 l 1039 1047 l 1039 428 q 910 94 1039 206 z "},"Ü":{"ha":1108,"x_min":69,"x_max":1039,"o":"m 364 1150 q 254 1194 299 1150 q 210 1303 210 1238 q 254 1413 210 1368 q 364 1457 299 1457 q 473 1413 429 1457 q 517 1303 517 1368 q 472 1194 517 1239 q 364 1150 428 1150 m 858 1194 q 836 1172 858 1194 q 749 1150 814 1150 q 639 1194 683 1150 q 594 1303 594 1238 q 639 1413 594 1368 q 749 1457 683 1457 q 858 1413 814 1457 q 901 1303 901 1368 q 858 1194 901 1238 m 910 94 q 846 39 910 94 q 554 -17 782 -17 q 198 94 326 -17 q 69 428 69 206 l 69 1047 l 450 1047 l 450 464 q 452 403 450 425 q 464 357 454 382 q 496 321 474 332 q 554 310 518 310 q 613 321 590 310 q 644 357 635 332 q 656 403 654 382 q 658 464 658 425 l 658 1047 l 1039 1047 l 1039 428 q 910 94 1039 206 z "},"Ý":{"ha":1068,"x_min":-14,"x_max":1082,"o":"m 765 1322 l 494 1122 l 313 1222 l 522 1493 l 765 1322 m 724 0 l 351 0 l 351 451 l -14 1047 l 417 1047 l 540 774 l 654 1047 l 1082 1047 l 724 451 l 724 0 z "},"Þ":{"ha":1013,"x_min":76,"x_max":983,"o":"m 443 0 l 76 0 l 76 1047 l 443 1047 l 443 908 l 558 908 q 866 813 749 908 q 983 539 983 717 q 867 259 983 356 q 558 163 750 163 l 443 163 l 443 0 m 443 622 l 443 440 l 494 440 q 619 536 619 440 q 493 622 619 622 l 443 622 z "},"ß":{"ha":1057,"x_min":8,"x_max":1015,"o":"m 818 626 q 963 524 910 594 q 1015 350 1015 454 q 913 88 1015 178 q 632 -3 810 -3 l 554 -3 l 554 197 l 561 197 q 661 356 661 203 q 557 500 661 500 l 557 697 q 624 722 597 697 q 651 782 651 746 q 561 857 651 857 q 468 756 468 857 l 468 0 l 110 0 l 110 450 l 8 450 l 8 738 l 110 738 l 110 746 q 214 1039 110 938 q 557 1140 318 1140 q 844 1065 731 1140 q 957 857 957 990 q 818 626 957 700 z "},"à":{"ha":1010,"x_min":40,"x_max":939,"o":"m 690 890 l 508 790 l 238 990 l 481 1161 l 690 890 m 365 -17 q 128 95 215 -17 q 40 365 40 207 q 131 639 40 524 q 375 754 221 754 q 590 650 513 754 l 593 650 l 589 738 l 939 738 l 939 0 l 589 0 l 593 97 l 590 97 q 486 11 536 39 q 365 -17 436 -17 m 423 292 q 436 278 423 292 q 496 264 450 264 q 570 292 542 264 q 599 368 599 321 q 570 444 599 415 q 496 474 542 474 q 423 445 450 474 q 396 368 396 417 q 423 292 396 321 z "},"á":{"ha":1010,"x_min":40,"x_max":939,"o":"m 792 990 l 521 790 l 339 890 l 549 1161 l 792 990 m 365 -17 q 128 95 215 -17 q 40 365 40 207 q 131 639 40 524 q 375 754 221 754 q 590 650 513 754 l 593 650 l 589 738 l 939 738 l 939 0 l 589 0 l 593 97 l 590 97 q 486 11 536 39 q 365 -17 436 -17 m 423 292 q 436 278 423 292 q 496 264 450 264 q 570 292 542 264 q 599 368 599 321 q 570 444 599 415 q 496 474 542 474 q 423 445 450 474 q 396 368 396 417 q 423 292 396 321 z "},"â":{"ha":1010,"x_min":40,"x_max":939,"o":"m 513 875 l 289 790 l 194 957 l 513 1131 l 831 957 l 736 790 l 513 875 m 365 -17 q 128 95 215 -17 q 40 365 40 207 q 131 639 40 524 q 375 754 221 754 q 590 650 513 754 l 593 650 l 589 738 l 939 738 l 939 0 l 589 0 l 593 97 l 590 97 q 486 11 536 39 q 365 -17 436 -17 m 423 292 q 436 278 423 292 q 496 264 450 264 q 570 292 542 264 q 599 368 599 321 q 570 444 599 415 q 496 474 542 474 q 423 445 450 474 q 396 368 396 417 q 423 292 396 321 z "},"ã":{"ha":1010,"x_min":40,"x_max":939,"o":"m 626 811 q 502 856 585 811 q 397 901 419 901 q 315 824 353 901 l 174 921 q 276 1055 215 1001 q 410 1108 336 1108 q 522 1063 457 1108 q 617 1018 588 1018 q 656 1033 638 1018 q 681 1060 674 1047 q 699 1096 688 1072 l 851 1013 q 626 811 756 811 m 365 -17 q 128 95 215 -17 q 40 365 40 207 q 131 639 40 524 q 375 754 221 754 q 590 650 513 754 l 593 650 l 589 738 l 939 738 l 939 0 l 589 0 l 593 97 l 590 97 q 486 11 536 39 q 365 -17 436 -17 m 423 292 q 436 278 423 292 q 496 264 450 264 q 570 292 542 264 q 599 368 599 321 q 570 444 599 415 q 496 474 542 474 q 423 445 450 474 q 396 368 396 417 q 423 292 396 321 z "},"ä":{"ha":1010,"x_min":40,"x_max":939,"o":"m 328 806 q 228 846 268 806 q 188 944 188 886 q 228 1044 188 1004 q 328 1085 268 1085 q 426 1044 386 1085 q 467 944 467 1004 q 426 846 467 886 q 328 806 386 806 m 798 846 q 778 826 798 846 q 699 806 758 806 q 599 846 639 806 q 558 944 558 886 q 599 1044 558 1004 q 699 1085 639 1085 q 798 1044 758 1085 q 838 944 838 1004 q 798 846 838 886 m 365 -17 q 128 95 215 -17 q 40 365 40 207 q 131 639 40 524 q 375 754 221 754 q 590 650 513 754 l 593 650 l 589 738 l 939 738 l 939 0 l 589 0 l 593 97 l 590 97 q 486 11 536 39 q 365 -17 436 -17 m 423 292 q 436 278 423 292 q 496 264 450 264 q 570 292 542 264 q 599 368 599 321 q 570 444 599 415 q 496 474 542 474 q 423 445 450 474 q 396 368 396 417 q 423 292 396 321 z "},"å":{"ha":1010,"x_min":40,"x_max":939,"o":"m 660 851 q 628 828 660 851 q 513 806 597 806 q 365 851 428 806 q 303 978 303 896 q 365 1106 303 1060 q 513 1153 428 1153 q 660 1106 597 1153 q 722 978 722 1060 q 660 851 722 896 m 472 940 q 480 932 472 940 q 513 925 489 925 q 553 940 536 925 q 571 979 571 954 q 553 1019 571 1004 q 513 1033 536 1033 q 472 1019 489 1033 q 454 979 454 1004 q 472 940 454 954 m 365 -17 q 128 95 215 -17 q 40 365 40 207 q 131 639 40 524 q 375 754 221 754 q 590 650 513 754 l 593 650 l 589 738 l 939 738 l 939 0 l 589 0 l 593 97 l 590 97 q 486 11 536 39 q 365 -17 436 -17 m 423 292 q 436 278 423 292 q 496 264 450 264 q 570 292 542 264 q 599 368 599 321 q 570 444 599 415 q 496 474 542 474 q 423 445 450 474 q 396 368 396 417 q 423 292 396 321 z "},"æ":{"ha":1433,"x_min":38,"x_max":1392,"o":"m 1392 342 q 1390 308 1392 319 l 868 308 q 954 182 868 182 q 1003 199 982 182 q 1031 243 1024 217 l 1375 243 q 1220 51 1340 118 q 960 -17 1100 -17 q 665 96 772 -17 q 542 8 613 35 q 354 -18 471 -18 q 126 48 214 -18 q 38 226 38 114 q 124 406 38 342 q 354 469 211 469 q 546 431 472 469 l 546 442 q 411 542 546 542 q 221 501 318 542 l 143 686 q 479 753 294 753 q 719 678 633 753 q 960 754 822 754 q 1271 647 1150 754 q 1392 342 1392 539 m 869 461 l 1038 461 q 1015 530 1036 503 q 954 557 993 557 q 894 530 915 557 q 869 461 872 503 m 389 182 q 402 171 389 182 q 456 160 415 160 q 522 182 496 160 q 549 240 549 204 q 522 298 549 276 q 456 319 496 319 q 389 298 415 319 q 363 240 363 276 q 389 182 363 204 z "},"ç":{"ha":693,"x_min":42,"x_max":647,"o":"m 515 479 q 434 449 465 479 q 403 369 403 419 q 434 295 403 326 q 514 264 465 264 q 647 321 571 264 l 632 18 q 451 -17 556 -17 q 394 -14 431 -17 l 560 -135 l 340 -324 l 208 -240 l 381 -12 q 133 105 225 7 q 42 365 42 203 q 150 642 42 531 q 422 754 258 754 q 647 717 550 754 l 647 418 q 515 479 575 479 z "},"è":{"ha":960,"x_min":42,"x_max":918,"o":"m 447 1161 l 657 890 l 475 790 l 204 990 l 447 1161 m 918 342 q 917 308 918 319 l 394 308 q 481 182 394 182 q 529 199 508 182 q 557 243 550 217 l 901 243 q 747 51 867 118 q 486 -17 626 -17 q 166 82 290 -17 q 42 363 42 181 q 165 649 42 544 q 472 754 289 754 q 794 647 669 754 q 918 342 918 539 m 396 461 l 564 461 q 541 530 563 503 q 481 557 519 557 q 420 530 442 557 q 396 461 399 503 z "},"é":{"ha":960,"x_min":42,"x_max":918,"o":"m 515 1161 l 758 990 l 488 790 l 306 890 l 515 1161 m 918 342 q 917 308 918 319 l 394 308 q 481 182 394 182 q 529 199 508 182 q 557 243 550 217 l 901 243 q 747 51 867 118 q 486 -17 626 -17 q 166 82 290 -17 q 42 363 42 181 q 165 649 42 544 q 472 754 289 754 q 794 647 669 754 q 918 342 918 539 m 396 461 l 564 461 q 541 530 563 503 q 481 557 519 557 q 420 530 442 557 q 396 461 399 503 z "},"ê":{"ha":960,"x_min":42,"x_max":918,"o":"m 703 790 l 479 875 l 256 790 l 161 957 l 479 1131 l 797 957 l 703 790 m 918 342 q 917 308 918 319 l 394 308 q 481 182 394 182 q 529 199 508 182 q 557 243 550 217 l 901 243 q 747 51 867 118 q 486 -17 626 -17 q 166 82 290 -17 q 42 363 42 181 q 165 649 42 544 q 472 754 289 754 q 794 647 669 754 q 918 342 918 539 m 396 461 l 564 461 q 541 530 563 503 q 481 557 519 557 q 420 530 442 557 q 396 461 399 503 z "},"ë":{"ha":960,"x_min":42,"x_max":918,"o":"m 294 806 q 194 846 235 806 q 154 944 154 886 q 194 1044 154 1004 q 294 1085 235 1085 q 393 1044 353 1085 q 433 944 433 1004 q 393 846 433 886 q 294 806 353 806 m 765 846 q 745 826 765 846 q 665 806 725 806 q 565 846 606 806 q 525 944 525 886 q 565 1044 525 1004 q 665 1085 606 1085 q 765 1044 725 1085 q 804 944 804 1004 q 765 846 804 886 m 918 342 q 917 308 918 319 l 394 308 q 481 182 394 182 q 529 199 508 182 q 557 243 550 217 l 901 243 q 747 51 867 118 q 486 -17 626 -17 q 166 82 290 -17 q 42 363 42 181 q 165 649 42 544 q 472 754 289 754 q 794 647 669 754 q 918 342 918 539 m 396 461 l 564 461 q 541 530 563 503 q 481 557 519 557 q 420 530 442 557 q 396 461 399 503 z "},"ì":{"ha":497,"x_min":-26,"x_max":428,"o":"m 426 890 l 244 790 l -26 990 l 217 1161 l 426 890 m 428 0 l 69 0 l 69 738 l 428 738 l 428 0 z "},"í":{"ha":497,"x_min":69,"x_max":528,"o":"m 528 990 l 257 790 l 75 890 l 285 1161 l 528 990 m 428 0 l 69 0 l 69 738 l 428 738 l 428 0 z "},"î":{"ha":497,"x_min":-69,"x_max":567,"o":"m 249 875 l 25 790 l -69 957 l 249 1131 l 567 957 l 472 790 l 249 875 m 428 0 l 69 0 l 69 738 l 428 738 l 428 0 z "},"ï":{"ha":497,"x_min":-76,"x_max":574,"o":"m 64 806 q -36 846 4 806 q -76 944 -76 886 q -36 1044 -76 1004 q 64 1085 4 1085 q 163 1044 122 1085 q 203 944 203 1004 q 163 846 203 886 q 64 806 122 806 m 534 846 q 514 826 534 846 q 435 806 494 806 q 335 846 375 806 q 294 944 294 886 q 335 1044 294 1004 q 435 1085 375 1085 q 534 1044 494 1085 q 574 944 574 1004 q 534 846 574 886 m 428 0 l 69 0 l 69 738 l 428 738 l 428 0 z "},"ð":{"ha":978,"x_min":42,"x_max":936,"o":"m 814 1024 l 674 953 q 936 432 936 713 q 897 233 936 321 q 793 92 858 144 q 649 11 728 39 q 485 -17 571 -17 q 333 6 408 -17 q 192 72 258 28 q 83 192 125 115 q 42 367 42 269 q 156 637 42 539 q 422 735 269 735 q 553 711 506 735 q 432 829 514 761 l 238 731 l 153 847 l 306 925 q 176 1008 231 976 l 400 1142 q 551 1050 482 1100 l 729 1140 l 814 1024 m 418 292 q 433 278 418 292 q 489 264 447 264 q 560 292 531 264 q 589 365 589 321 q 561 442 589 411 q 489 474 533 474 q 417 442 444 474 q 389 365 389 411 q 418 292 389 321 z "},"ñ":{"ha":974,"x_min":69,"x_max":907,"o":"m 603 811 q 478 856 561 811 q 374 901 396 901 q 292 824 329 901 l 150 921 q 252 1055 192 1001 q 386 1108 313 1108 q 499 1063 433 1108 q 593 1018 564 1018 q 632 1033 614 1018 q 657 1060 650 1047 q 675 1096 664 1072 l 828 1013 q 603 811 732 811 m 428 0 l 69 0 l 69 738 l 419 738 l 411 619 l 414 619 q 520 722 469 689 q 651 754 571 754 q 844 670 781 754 q 907 454 907 586 l 907 0 l 549 0 l 549 360 q 547 412 549 393 q 531 447 544 431 q 493 464 518 464 q 440 435 453 464 q 428 353 428 407 l 428 0 z "},"ò":{"ha":986,"x_min":42,"x_max":944,"o":"m 671 890 l 489 790 l 218 990 l 461 1161 l 671 890 m 817 82 q 753 33 817 82 q 493 -17 689 -17 q 169 82 297 -17 q 42 369 42 181 q 170 653 42 553 q 493 754 299 754 q 816 653 688 754 q 944 369 944 553 q 817 82 944 181 m 420 295 q 434 281 420 295 q 493 267 447 267 q 566 295 539 267 q 593 369 593 324 q 566 443 593 415 q 493 471 539 471 q 420 443 447 471 q 393 369 393 415 q 420 295 393 324 z "},"ó":{"ha":986,"x_min":42,"x_max":944,"o":"m 772 990 l 501 790 l 319 890 l 529 1161 l 772 990 m 817 82 q 753 33 817 82 q 493 -17 689 -17 q 169 82 297 -17 q 42 369 42 181 q 170 653 42 553 q 493 754 299 754 q 816 653 688 754 q 944 369 944 553 q 817 82 944 181 m 420 295 q 434 281 420 295 q 493 267 447 267 q 566 295 539 267 q 593 369 593 324 q 566 443 593 415 q 493 471 539 471 q 420 443 447 471 q 393 369 393 415 q 420 295 393 324 z "},"ô":{"ha":986,"x_min":42,"x_max":944,"o":"m 493 875 l 269 790 l 175 957 l 493 1131 l 811 957 l 717 790 l 493 875 m 817 82 q 753 33 817 82 q 493 -17 689 -17 q 169 82 297 -17 q 42 369 42 181 q 170 653 42 553 q 493 754 299 754 q 816 653 688 754 q 944 369 944 553 q 817 82 944 181 m 420 295 q 434 281 420 295 q 493 267 447 267 q 566 295 539 267 q 593 369 593 324 q 566 443 593 415 q 493 471 539 471 q 420 443 447 471 q 393 369 393 415 q 420 295 393 324 z "},"õ":{"ha":986,"x_min":42,"x_max":944,"o":"m 607 811 q 483 856 565 811 q 378 901 400 901 q 296 824 333 901 l 154 921 q 256 1055 196 1001 q 390 1108 317 1108 q 503 1063 438 1108 q 597 1018 568 1018 q 636 1033 618 1018 q 661 1060 654 1047 q 679 1096 668 1072 l 832 1013 q 607 811 736 811 m 817 82 q 753 33 817 82 q 493 -17 689 -17 q 169 82 297 -17 q 42 369 42 181 q 170 653 42 553 q 493 754 299 754 q 816 653 688 754 q 944 369 944 553 q 817 82 944 181 m 420 295 q 434 281 420 295 q 493 267 447 267 q 566 295 539 267 q 593 369 593 324 q 566 443 593 415 q 493 471 539 471 q 420 443 447 471 q 393 369 393 415 q 420 295 393 324 z "},"ö":{"ha":986,"x_min":42,"x_max":944,"o":"m 308 806 q 208 846 249 806 q 168 944 168 886 q 208 1044 168 1004 q 308 1085 249 1085 q 407 1044 367 1085 q 447 944 447 1004 q 407 846 447 886 q 308 806 367 806 m 778 846 q 759 826 778 846 q 679 806 739 806 q 579 846 619 806 q 539 944 539 886 q 579 1044 539 1004 q 679 1085 619 1085 q 778 1044 739 1085 q 818 944 818 1004 q 778 846 818 886 m 817 82 q 753 33 817 82 q 493 -17 689 -17 q 169 82 297 -17 q 42 369 42 181 q 170 653 42 553 q 493 754 299 754 q 816 653 688 754 q 944 369 944 553 q 817 82 944 181 m 420 295 q 434 281 420 295 q 493 267 447 267 q 566 295 539 267 q 593 369 593 324 q 566 443 593 415 q 493 471 539 471 q 420 443 447 471 q 393 369 393 415 q 420 295 393 324 z "},"÷":{"ha":1111,"x_min":139,"x_max":972,"o":"m 676 654 q 650 635 676 654 q 556 615 624 615 q 435 654 488 615 q 383 758 383 693 q 435 865 383 825 q 556 906 488 906 q 676 865 624 906 q 728 758 728 825 q 676 654 728 693 m 972 290 l 139 290 l 139 568 l 972 568 l 972 290 m 676 -8 q 650 -28 676 -8 q 556 -47 624 -47 q 435 -8 488 -47 q 383 96 383 31 q 435 203 383 163 q 556 243 488 243 q 676 203 624 243 q 728 96 728 163 q 676 -8 728 31 z "},"ø":{"ha":986,"x_min":42,"x_max":944,"o":"m 932 749 l 829 642 q 944 369 944 538 q 817 82 944 181 q 493 -17 689 -17 q 242 36 347 -17 l 125 -85 l 54 -14 l 157 93 q 42 369 42 194 q 170 653 42 553 q 493 754 299 754 q 744 699 638 754 l 861 819 l 932 749 m 393 369 q 396 339 393 358 l 539 486 q 493 499 518 499 q 420 463 447 499 q 393 369 393 428 m 493 239 q 566 275 539 239 q 593 369 593 311 q 592 397 593 388 l 449 250 q 493 239 471 239 z "},"ù":{"ha":967,"x_min":67,"x_max":900,"o":"m 661 890 l 479 790 l 208 990 l 451 1161 l 661 890 m 787 68 q 730 26 787 68 q 483 -17 674 -17 q 180 68 293 -17 q 67 321 67 153 l 67 738 l 422 738 l 422 357 q 425 313 422 329 q 442 283 428 297 q 483 268 456 268 q 525 283 511 268 q 542 313 539 297 q 544 357 544 329 l 544 738 l 900 738 l 900 321 q 787 68 900 153 z "},"ú":{"ha":967,"x_min":67,"x_max":900,"o":"m 763 990 l 492 790 l 310 890 l 519 1161 l 763 990 m 787 68 q 730 26 787 68 q 483 -17 674 -17 q 180 68 293 -17 q 67 321 67 153 l 67 738 l 422 738 l 422 357 q 425 313 422 329 q 442 283 428 297 q 483 268 456 268 q 525 283 511 268 q 542 313 539 297 q 544 357 544 329 l 544 738 l 900 738 l 900 321 q 787 68 900 153 z "},"û":{"ha":967,"x_min":67,"x_max":900,"o":"m 483 875 l 260 790 l 165 957 l 483 1131 l 801 957 l 707 790 l 483 875 m 787 68 q 730 26 787 68 q 483 -17 674 -17 q 180 68 293 -17 q 67 321 67 153 l 67 738 l 422 738 l 422 357 q 425 313 422 329 q 442 283 428 297 q 483 268 456 268 q 525 283 511 268 q 542 313 539 297 q 544 357 544 329 l 544 738 l 900 738 l 900 321 q 787 68 900 153 z "},"ü":{"ha":967,"x_min":67,"x_max":900,"o":"m 299 806 q 199 846 239 806 q 158 944 158 886 q 199 1044 158 1004 q 299 1085 239 1085 q 397 1044 357 1085 q 438 944 438 1004 q 397 846 438 886 q 299 806 357 806 m 769 846 q 749 826 769 846 q 669 806 729 806 q 569 846 610 806 q 529 944 529 886 q 569 1044 529 1004 q 669 1085 610 1085 q 769 1044 729 1085 q 808 944 808 1004 q 769 846 808 886 m 787 68 q 730 26 787 68 q 483 -17 674 -17 q 180 68 293 -17 q 67 321 67 153 l 67 738 l 422 738 l 422 357 q 425 313 422 329 q 442 283 428 297 q 483 268 456 268 q 525 283 511 268 q 542 313 539 297 q 544 357 544 329 l 544 738 l 900 738 l 900 321 q 787 68 900 153 z "},"ý":{"ha":958,"x_min":-8,"x_max":967,"o":"m 515 1161 l 758 990 l 488 790 l 306 890 l 515 1161 m 481 342 l 590 738 l 967 738 l 494 -304 l 117 -304 l 306 76 l -8 738 l 378 738 l 481 342 z "},"þ":{"ha":1008,"x_min":71,"x_max":968,"o":"m 429 -304 l 71 -304 l 71 1126 l 429 1126 l 429 829 q 421 639 429 740 l 422 639 q 647 754 497 754 q 885 642 801 754 q 968 369 968 531 q 881 98 968 213 q 639 -17 793 -17 q 512 16 569 -17 q 422 101 454 49 l 421 101 q 429 -71 429 10 l 429 -304 m 440 293 q 454 278 440 293 q 514 264 468 264 q 587 292 560 264 q 614 369 614 321 q 587 445 614 417 q 514 474 560 474 q 440 445 468 474 q 413 369 413 417 q 440 293 413 322 z "},"ÿ":{"ha":958,"x_min":-8,"x_max":967,"o":"m 294 806 q 194 846 235 806 q 154 944 154 886 q 194 1044 154 1004 q 294 1085 235 1085 q 393 1044 353 1085 q 433 944 433 1004 q 393 846 433 886 q 294 806 353 806 m 765 846 q 745 826 765 846 q 665 806 725 806 q 565 846 606 806 q 525 944 525 886 q 565 1044 525 1004 q 665 1085 606 1085 q 765 1044 725 1085 q 804 944 804 1004 q 765 846 804 886 m 481 342 l 590 738 l 967 738 l 494 -304 l 117 -304 l 306 76 l -8 738 l 378 738 l 481 342 z "},"Ā":{"ha":1131,"x_min":-14,"x_max":1144,"o":"m 326 1292 l 806 1292 l 806 1132 l 326 1132 l 326 1292 m 1144 0 l 732 0 l 700 135 l 414 135 l 379 0 l -14 0 l 350 1047 l 771 1047 l 1144 0 m 518 536 l 479 385 l 640 385 l 604 533 l 563 714 q 518 536 553 669 z "},"ā":{"ha":1010,"x_min":40,"x_max":939,"o":"m 781 847 l 246 847 l 246 1049 l 781 1049 l 781 847 m 365 -17 q 128 95 215 -17 q 40 365 40 207 q 131 639 40 524 q 375 754 221 754 q 590 650 513 754 l 593 650 l 589 738 l 939 738 l 939 0 l 589 0 l 593 97 l 590 97 q 486 11 536 39 q 365 -17 436 -17 m 423 292 q 436 278 423 292 q 496 264 450 264 q 570 292 542 264 q 599 368 599 321 q 570 444 599 415 q 496 474 542 474 q 423 445 450 474 q 396 368 396 417 q 423 292 396 321 z "},"Ă":{"ha":1131,"x_min":-14,"x_max":1144,"o":"m 565 1146 q 353 1219 435 1146 q 263 1415 272 1293 l 454 1415 q 565 1332 475 1332 q 676 1415 656 1332 l 869 1415 q 776 1228 863 1310 q 565 1146 690 1146 m 1144 0 l 732 0 l 700 135 l 414 135 l 379 0 l -14 0 l 350 1047 l 771 1047 l 1144 0 m 518 536 l 479 385 l 640 385 l 604 533 l 563 714 q 518 536 553 669 z "},"ă":{"ha":1010,"x_min":40,"x_max":939,"o":"m 513 808 q 301 882 382 808 q 210 1078 219 956 l 401 1078 q 513 994 422 994 q 624 1078 603 994 l 817 1078 q 724 890 810 972 q 513 808 638 808 m 365 -17 q 128 95 215 -17 q 40 365 40 207 q 131 639 40 524 q 375 754 221 754 q 590 650 513 754 l 593 650 l 589 738 l 939 738 l 939 0 l 589 0 l 593 97 l 590 97 q 486 11 536 39 q 365 -17 436 -17 m 423 292 q 436 278 423 292 q 496 264 450 264 q 570 292 542 264 q 599 368 599 321 q 570 444 599 415 q 496 474 542 474 q 423 445 450 474 q 396 368 396 417 q 423 292 396 321 z "},"Ą":{"ha":1131,"x_min":-14,"x_max":1144,"o":"m 1011 -121 q 1079 -106 1046 -121 l 1126 -264 q 938 -304 1039 -304 q 791 -263 851 -304 q 731 -151 731 -222 q 839 0 731 -56 l 732 0 l 700 135 l 414 135 l 379 0 l -14 0 l 350 1047 l 771 1047 l 1144 0 l 1046 0 q 960 -82 960 -40 q 974 -110 960 -99 q 1011 -121 988 -121 m 518 536 l 479 385 l 640 385 l 604 533 l 563 714 q 518 536 553 669 z "},"ą":{"ha":1010,"x_min":40,"x_max":958,"o":"m 911 -106 l 958 -264 q 769 -304 871 -304 q 623 -263 683 -304 q 563 -151 563 -222 q 671 0 563 -56 l 589 0 l 593 97 l 590 97 q 486 11 536 39 q 365 -17 436 -17 q 128 95 215 -17 q 40 365 40 207 q 131 639 40 524 q 375 754 221 754 q 590 650 513 754 l 593 650 l 589 738 l 939 738 l 939 0 l 878 0 q 792 -82 792 -40 q 806 -110 792 -99 q 843 -121 819 -121 q 911 -106 878 -121 m 423 292 q 436 278 423 292 q 496 264 450 264 q 570 292 542 264 q 599 368 599 321 q 570 444 599 415 q 496 474 542 474 q 423 445 450 474 q 396 368 396 417 q 423 292 396 321 z "},"Ć":{"ha":918,"x_min":49,"x_max":863,"o":"m 761 1322 l 490 1122 l 308 1222 l 518 1493 l 761 1322 m 581 -17 q 203 137 357 -17 q 49 514 49 290 q 208 903 49 743 q 596 1064 367 1064 q 851 1021 726 1064 l 863 621 q 639 728 751 728 q 497 672 561 728 q 432 524 432 617 q 495 378 432 438 q 644 319 558 319 q 863 417 763 319 l 851 25 q 726 -6 808 6 q 581 -17 644 -17 z "},"ć":{"ha":693,"x_min":42,"x_max":682,"o":"m 682 990 l 411 790 l 229 890 l 439 1161 l 682 990 m 451 -17 q 154 84 267 -17 q 42 365 42 185 q 150 642 42 531 q 422 754 258 754 q 647 717 550 754 l 647 418 q 515 479 575 479 q 434 449 465 479 q 403 369 403 419 q 434 295 403 326 q 514 264 465 264 q 647 321 571 264 l 632 18 q 451 -17 556 -17 z "},"Ĉ":{"ha":918,"x_min":49,"x_max":863,"o":"m 531 1224 l 307 1139 l 213 1306 l 531 1479 l 849 1306 l 754 1139 l 531 1224 m 581 -17 q 203 137 357 -17 q 49 514 49 290 q 208 903 49 743 q 596 1064 367 1064 q 851 1021 726 1064 l 863 621 q 639 728 751 728 q 497 672 561 728 q 432 524 432 617 q 495 378 432 438 q 644 319 558 319 q 863 417 763 319 l 851 25 q 726 -6 808 6 q 581 -17 644 -17 z "},"ĉ":{"ha":693,"x_min":42,"x_max":721,"o":"m 403 875 l 179 790 l 85 957 l 403 1131 l 721 957 l 626 790 l 403 875 m 451 -17 q 154 84 267 -17 q 42 365 42 185 q 150 642 42 531 q 422 754 258 754 q 647 717 550 754 l 647 418 q 515 479 575 479 q 434 449 465 479 q 403 369 403 419 q 434 295 403 326 q 514 264 465 264 q 647 321 571 264 l 632 18 q 451 -17 556 -17 z "},"Ċ":{"ha":918,"x_min":49,"x_max":863,"o":"m 671 1194 q 642 1172 671 1194 q 531 1150 614 1150 q 390 1194 447 1150 q 333 1324 333 1238 q 389 1449 333 1403 q 531 1496 444 1496 q 672 1449 617 1496 q 728 1324 728 1403 q 671 1194 728 1238 m 581 -17 q 203 137 357 -17 q 49 514 49 290 q 208 903 49 743 q 596 1064 367 1064 q 851 1021 726 1064 l 863 621 q 639 728 751 728 q 497 672 561 728 q 432 524 432 617 q 495 378 432 438 q 644 319 558 319 q 863 417 763 319 l 851 25 q 726 -6 808 6 q 581 -17 644 -17 z "},"ċ":{"ha":693,"x_min":42,"x_max":647,"o":"m 543 853 q 515 832 543 853 q 403 810 486 810 q 263 853 319 810 q 206 983 206 897 q 261 1109 206 1063 q 403 1156 317 1156 q 544 1109 489 1156 q 600 983 600 1063 q 543 853 600 897 m 451 -17 q 154 84 267 -17 q 42 365 42 185 q 150 642 42 531 q 422 754 258 754 q 647 717 550 754 l 647 418 q 515 479 575 479 q 434 449 465 479 q 403 369 403 419 q 434 295 403 326 q 514 264 465 264 q 647 321 571 264 l 632 18 q 451 -17 556 -17 z "},"Č":{"ha":918,"x_min":49,"x_max":863,"o":"m 849 1310 l 531 1136 l 213 1310 l 307 1476 l 531 1392 l 754 1476 l 849 1310 m 581 -17 q 203 137 357 -17 q 49 514 49 290 q 208 903 49 743 q 596 1064 367 1064 q 851 1021 726 1064 l 863 621 q 639 728 751 728 q 497 672 561 728 q 432 524 432 617 q 495 378 432 438 q 644 319 558 319 q 863 417 763 319 l 851 25 q 726 -6 808 6 q 581 -17 644 -17 z "},"č":{"ha":693,"x_min":42,"x_max":721,"o":"m 721 964 l 403 790 l 85 964 l 179 1131 l 403 1046 l 626 1131 l 721 964 m 451 -17 q 154 84 267 -17 q 42 365 42 185 q 150 642 42 531 q 422 754 258 754 q 647 717 550 754 l 647 418 q 515 479 575 479 q 434 449 465 479 q 403 369 403 419 q 434 295 403 326 q 514 264 465 264 q 647 321 571 264 l 632 18 q 451 -17 556 -17 z "},"Ď":{"ha":1133,"x_min":76,"x_max":1085,"o":"m 881 1310 l 563 1136 l 244 1310 l 339 1476 l 563 1392 l 786 1476 l 881 1310 m 558 0 l 76 0 l 76 1047 l 464 1047 q 709 1017 599 1047 q 905 923 819 986 q 1038 754 990 860 q 1085 508 1085 649 q 938 139 1085 278 q 558 0 792 0 m 443 719 l 443 314 l 481 314 q 642 363 581 314 q 704 510 704 411 q 481 719 704 719 l 443 719 z "},"ď":{"ha":1008,"x_min":40,"x_max":1321,"o":"m 1321 1038 l 1153 756 l 975 815 l 1082 1131 l 1321 1038 m 372 -17 q 128 97 215 -17 q 40 369 40 211 q 124 642 40 531 q 361 754 207 754 q 586 639 511 754 l 588 639 q 579 829 579 722 l 579 1126 l 938 1126 l 938 0 l 589 0 l 592 110 l 588 110 q 372 -17 511 -17 m 422 292 q 435 278 422 292 q 494 264 449 264 q 568 293 540 264 q 596 369 596 322 q 568 445 596 417 q 494 474 540 474 q 422 445 449 474 q 394 369 394 417 q 422 292 394 321 z "},"Đ":{"ha":1133,"x_min":3,"x_max":1085,"o":"m 76 1047 l 464 1047 q 709 1017 599 1047 q 905 923 819 986 q 1038 754 990 860 q 1085 508 1085 649 q 938 139 1085 278 q 558 0 792 0 l 76 0 l 76 443 l 3 443 l 3 592 l 76 592 l 76 1047 m 443 314 l 481 314 q 642 363 581 314 q 704 510 704 411 q 481 719 704 719 l 443 719 l 443 592 l 583 592 l 583 443 l 443 443 l 443 314 z "},"đ":{"ha":1008,"x_min":42,"x_max":1008,"o":"m 939 986 l 1008 986 l 1008 861 l 939 861 l 939 0 l 590 0 l 597 110 l 589 110 q 374 -17 513 -17 q 129 97 217 -17 q 42 369 42 211 q 125 642 42 531 q 363 754 208 754 q 588 639 513 754 l 597 639 q 581 829 581 801 l 581 861 l 407 861 l 407 986 l 581 986 l 581 1126 l 939 1126 l 939 986 m 423 292 q 436 278 423 292 q 496 264 450 264 q 569 293 542 264 q 597 369 597 322 q 569 445 597 417 q 496 474 542 474 q 423 445 450 474 q 396 369 396 417 q 423 292 396 321 z "},"Ē":{"ha":854,"x_min":76,"x_max":792,"o":"m 669 1132 l 190 1132 l 190 1292 l 669 1292 l 669 1132 m 792 0 l 76 0 l 76 1047 l 781 1047 l 781 761 l 443 761 l 443 665 l 753 665 l 753 393 l 443 393 l 443 286 l 792 286 l 792 0 z "},"ē":{"ha":960,"x_min":42,"x_max":918,"o":"m 213 1049 l 747 1049 l 747 847 l 213 847 l 213 1049 m 918 342 q 917 308 918 319 l 394 308 q 481 182 394 182 q 529 199 508 182 q 557 243 550 217 l 901 243 q 747 51 867 118 q 486 -17 626 -17 q 166 82 290 -17 q 42 363 42 181 q 165 649 42 544 q 472 754 289 754 q 794 647 669 754 q 918 342 918 539 m 396 461 l 564 461 q 541 530 563 503 q 481 557 519 557 q 420 530 442 557 q 396 461 399 503 z "},"Ĕ":{"ha":854,"x_min":76,"x_max":792,"o":"m 429 1146 q 217 1219 299 1146 q 126 1415 136 1293 l 318 1415 q 429 1332 339 1332 q 540 1415 519 1332 l 733 1415 q 640 1228 726 1310 q 429 1146 554 1146 m 792 0 l 76 0 l 76 1047 l 781 1047 l 781 761 l 443 761 l 443 665 l 753 665 l 753 393 l 443 393 l 443 286 l 792 286 l 792 0 z "},"ĕ":{"ha":960,"x_min":42,"x_max":918,"o":"m 479 808 q 267 882 349 808 q 176 1078 186 956 l 368 1078 q 479 994 389 994 q 590 1078 569 994 l 783 1078 q 690 890 776 972 q 479 808 604 808 m 918 342 q 917 308 918 319 l 394 308 q 481 182 394 182 q 529 199 508 182 q 557 243 550 217 l 901 243 q 747 51 867 118 q 486 -17 626 -17 q 166 82 290 -17 q 42 363 42 181 q 165 649 42 544 q 472 754 289 754 q 794 647 669 754 q 918 342 918 539 m 396 461 l 564 461 q 541 530 563 503 q 481 557 519 557 q 420 530 442 557 q 396 461 399 503 z "},"Ė":{"ha":854,"x_min":76,"x_max":792,"o":"m 569 1194 q 541 1172 569 1194 q 429 1150 513 1150 q 289 1194 346 1150 q 232 1324 232 1238 q 288 1449 232 1403 q 429 1496 343 1496 q 571 1449 515 1496 q 626 1324 626 1403 q 569 1194 626 1238 m 792 0 l 76 0 l 76 1047 l 781 1047 l 781 761 l 443 761 l 443 665 l 753 665 l 753 393 l 443 393 l 443 286 l 792 286 l 792 0 z "},"ė":{"ha":960,"x_min":42,"x_max":918,"o":"m 619 853 q 591 832 619 853 q 479 810 563 810 q 339 853 396 810 q 282 983 282 897 q 338 1109 282 1063 q 479 1156 393 1156 q 621 1109 565 1156 q 676 983 676 1063 q 619 853 676 897 m 918 342 q 917 308 918 319 l 394 308 q 481 182 394 182 q 529 199 508 182 q 557 243 550 217 l 901 243 q 747 51 867 118 q 486 -17 626 -17 q 166 82 290 -17 q 42 363 42 181 q 165 649 42 544 q 472 754 289 754 q 794 647 669 754 q 918 342 918 539 m 396 461 l 564 461 q 541 530 563 503 q 481 557 519 557 q 420 530 442 557 q 396 461 399 503 z "},"Ę":{"ha":854,"x_min":76,"x_max":792,"o":"m 792 0 l 700 0 q 614 -82 614 -40 q 628 -110 614 -99 q 665 -121 642 -121 q 733 -106 700 -121 l 781 -264 q 592 -304 693 -304 q 445 -263 506 -304 q 385 -151 385 -222 q 493 0 385 -56 l 76 0 l 76 1047 l 781 1047 l 781 761 l 443 761 l 443 665 l 753 665 l 753 393 l 443 393 l 443 286 l 792 286 l 792 0 z "},"ę":{"ha":960,"x_min":42,"x_max":918,"o":"m 918 342 q 917 308 918 319 l 394 308 q 481 182 394 182 q 529 199 508 182 q 557 243 550 217 l 901 243 q 804 92 876 153 q 633 3 732 31 q 540 -82 540 -39 q 554 -110 540 -99 q 592 -121 568 -121 q 660 -106 626 -121 l 707 -264 q 518 -304 619 -304 q 372 -263 432 -304 q 311 -151 311 -222 q 399 -11 311 -65 q 140 106 238 10 q 42 363 42 201 q 165 649 42 544 q 472 754 289 754 q 794 647 669 754 q 918 342 918 539 m 396 461 l 564 461 q 541 530 563 503 q 481 557 519 557 q 420 530 442 557 q 396 461 399 503 z "},"Ě":{"ha":854,"x_min":76,"x_max":792,"o":"m 747 1310 l 429 1136 l 111 1310 l 206 1476 l 429 1392 l 653 1476 l 747 1310 m 792 0 l 76 0 l 76 1047 l 781 1047 l 781 761 l 443 761 l 443 665 l 753 665 l 753 393 l 443 393 l 443 286 l 792 286 l 792 0 z "},"ě":{"ha":960,"x_min":42,"x_max":918,"o":"m 703 1131 l 797 964 l 479 790 l 161 964 l 256 1131 l 479 1046 l 703 1131 m 918 342 q 917 308 918 319 l 394 308 q 481 182 394 182 q 529 199 508 182 q 557 243 550 217 l 901 243 q 747 51 867 118 q 486 -17 626 -17 q 166 82 290 -17 q 42 363 42 181 q 165 649 42 544 q 472 754 289 754 q 794 647 669 754 q 918 342 918 539 m 396 461 l 564 461 q 541 530 563 503 q 481 557 519 557 q 420 530 442 557 q 396 461 399 503 z "},"Ĝ":{"ha":1246,"x_min":49,"x_max":1197,"o":"m 624 1224 l 400 1139 l 306 1306 l 624 1479 l 942 1306 l 847 1139 l 624 1224 m 626 -17 q 214 128 379 -17 q 49 517 49 272 q 213 915 49 767 q 629 1064 376 1064 q 940 994 796 1064 q 1143 794 1085 924 l 788 664 q 629 744 740 744 q 485 681 538 744 q 432 515 432 617 q 485 353 432 419 q 628 288 538 288 q 782 368 753 288 l 782 369 l 610 369 l 610 624 l 1197 624 l 1197 567 q 1044 138 1197 293 q 626 -17 892 -17 z "},"ĝ":{"ha":1000,"x_min":49,"x_max":931,"o":"m 501 875 l 278 790 l 183 957 l 501 1131 l 819 957 l 725 790 l 501 875 m 481 -319 q 178 -246 293 -319 q 51 -19 64 -172 l 342 -19 q 465 -99 364 -99 q 558 -58 524 -99 q 593 58 593 -17 l 593 147 l 590 147 q 487 56 538 86 q 365 25 436 25 q 135 132 221 25 q 49 386 49 239 q 138 644 49 535 q 375 754 226 754 q 582 650 504 754 l 585 650 l 581 738 l 931 738 l 931 101 q 895 -90 931 -7 q 797 -222 860 -172 q 656 -295 735 -271 q 481 -319 576 -319 m 497 278 q 563 305 536 278 q 590 375 590 332 q 563 447 590 419 q 497 474 536 474 q 429 447 454 474 q 404 375 404 419 q 429 304 404 331 q 497 278 454 278 z "},"Ğ":{"ha":1246,"x_min":49,"x_max":1197,"o":"m 624 1146 q 412 1219 493 1146 q 321 1415 331 1293 l 513 1415 q 624 1332 533 1332 q 735 1415 714 1332 l 928 1415 q 835 1228 921 1310 q 624 1146 749 1146 m 626 -17 q 214 128 379 -17 q 49 517 49 272 q 213 915 49 767 q 629 1064 376 1064 q 940 994 796 1064 q 1143 794 1085 924 l 788 664 q 629 744 740 744 q 485 681 538 744 q 432 515 432 617 q 485 353 432 419 q 628 288 538 288 q 782 368 753 288 l 782 369 l 610 369 l 610 624 l 1197 624 l 1197 567 q 1044 138 1197 293 q 626 -17 892 -17 z "},"ğ":{"ha":1000,"x_min":49,"x_max":931,"o":"m 501 808 q 290 882 371 808 q 199 1078 208 956 l 390 1078 q 501 994 411 994 q 613 1078 592 994 l 806 1078 q 713 890 799 972 q 501 808 626 808 m 481 -319 q 178 -246 293 -319 q 51 -19 64 -172 l 342 -19 q 465 -99 364 -99 q 558 -58 524 -99 q 593 58 593 -17 l 593 147 l 590 147 q 487 56 538 86 q 365 25 436 25 q 135 132 221 25 q 49 386 49 239 q 138 644 49 535 q 375 754 226 754 q 582 650 504 754 l 585 650 l 581 738 l 931 738 l 931 101 q 895 -90 931 -7 q 797 -222 860 -172 q 656 -295 735 -271 q 481 -319 576 -319 m 497 278 q 563 305 536 278 q 590 375 590 332 q 563 447 590 419 q 497 474 536 474 q 429 447 454 474 q 404 375 404 419 q 429 304 404 331 q 497 278 454 278 z "},"Ġ":{"ha":1246,"x_min":49,"x_max":1197,"o":"m 764 1194 q 735 1172 764 1194 q 624 1150 707 1150 q 483 1194 540 1150 q 426 1324 426 1238 q 482 1449 426 1403 q 624 1496 538 1496 q 765 1449 710 1496 q 821 1324 821 1403 q 764 1194 821 1238 m 626 -17 q 214 128 379 -17 q 49 517 49 272 q 213 915 49 767 q 629 1064 376 1064 q 940 994 796 1064 q 1143 794 1085 924 l 788 664 q 629 744 740 744 q 485 681 538 744 q 432 515 432 617 q 485 353 432 419 q 628 288 538 288 q 782 368 753 288 l 782 369 l 610 369 l 610 624 l 1197 624 l 1197 567 q 1044 138 1197 293 q 626 -17 892 -17 z "},"ġ":{"ha":1000,"x_min":49,"x_max":931,"o":"m 642 853 q 613 832 642 853 q 501 810 585 810 q 361 853 418 810 q 304 983 304 897 q 360 1109 304 1063 q 501 1156 415 1156 q 643 1109 588 1156 q 699 983 699 1063 q 642 853 699 897 m 481 -319 q 178 -246 293 -319 q 51 -19 64 -172 l 342 -19 q 465 -99 364 -99 q 558 -58 524 -99 q 593 58 593 -17 l 593 147 l 590 147 q 487 56 538 86 q 365 25 436 25 q 135 132 221 25 q 49 386 49 239 q 138 644 49 535 q 375 754 226 754 q 582 650 504 754 l 585 650 l 581 738 l 931 738 l 931 101 q 895 -90 931 -7 q 797 -222 860 -172 q 656 -295 735 -271 q 481 -319 576 -319 m 497 278 q 563 305 536 278 q 590 375 590 332 q 563 447 590 419 q 497 474 536 474 q 429 447 454 474 q 404 375 404 419 q 429 304 404 331 q 497 278 454 278 z "},"Ģ":{"ha":1246,"x_min":49,"x_max":1197,"o":"m 626 -17 q 214 128 379 -17 q 49 517 49 272 q 213 915 49 767 q 629 1064 376 1064 q 940 994 796 1064 q 1143 794 1085 924 l 788 664 q 629 744 740 744 q 485 681 538 744 q 432 515 432 617 q 485 353 432 419 q 628 288 538 288 q 782 368 753 288 l 782 369 l 610 369 l 610 624 l 1197 624 l 1197 567 q 1044 138 1197 293 q 626 -17 892 -17 m 785 -50 l 621 -304 l 383 -304 l 489 -50 l 785 -50 z "},"ģ":{"ha":1000,"x_min":49,"x_max":931,"o":"m 742 1131 l 622 835 l 354 835 l 504 1131 l 742 1131 m 481 -319 q 178 -246 293 -319 q 51 -19 64 -172 l 342 -19 q 465 -99 364 -99 q 558 -58 524 -99 q 593 58 593 -17 l 593 147 l 590 147 q 487 56 538 86 q 365 25 436 25 q 135 132 221 25 q 49 386 49 239 q 138 644 49 535 q 375 754 226 754 q 582 650 504 754 l 585 650 l 581 738 l 931 738 l 931 101 q 895 -90 931 -7 q 797 -222 860 -172 q 656 -295 735 -271 q 481 -319 576 -319 m 497 278 q 563 305 536 278 q 590 375 590 332 q 563 447 590 419 q 497 474 536 474 q 429 447 454 474 q 404 375 404 419 q 429 304 404 331 q 497 278 454 278 z "},"Ĥ":{"ha":1119,"x_min":76,"x_max":1043,"o":"m 560 1224 l 336 1139 l 242 1306 l 560 1479 l 878 1306 l 783 1139 l 560 1224 m 443 0 l 76 0 l 76 1047 l 443 1047 l 443 694 l 676 694 l 676 1047 l 1043 1047 l 1043 0 l 676 0 l 676 364 l 443 364 l 443 0 z "},"ĥ":{"ha":974,"x_min":69,"x_max":907,"o":"m 535 1247 l 311 1163 l 217 1329 l 535 1503 l 853 1329 l 758 1163 l 535 1247 m 428 0 l 69 0 l 69 1126 l 428 1126 l 428 851 q 418 619 428 756 l 421 619 q 524 722 475 690 q 651 754 574 754 q 844 670 781 754 q 907 454 907 586 l 907 0 l 549 0 l 549 360 q 547 412 549 393 q 531 447 544 431 q 493 464 518 464 q 440 435 453 464 q 428 353 428 407 l 428 0 z "},"Ħ":{"ha":1119,"x_min":7,"x_max":1113,"o":"m 1043 926 l 1113 926 l 1113 778 l 1043 778 l 1043 0 l 676 0 l 676 364 l 443 364 l 443 0 l 76 0 l 76 778 l 7 778 l 7 926 l 76 926 l 76 1047 l 443 1047 l 443 926 l 676 926 l 676 1047 l 1043 1047 l 1043 926 m 443 653 l 676 653 l 676 778 l 443 778 l 443 653 z "},"ħ":{"ha":974,"x_min":0,"x_max":907,"o":"m 651 754 q 844 670 781 754 q 907 454 907 586 l 907 0 l 549 0 l 549 360 q 547 412 549 393 q 531 447 544 431 q 493 464 518 464 q 440 435 453 464 q 428 353 428 407 l 428 0 l 69 0 l 69 861 l 0 861 l 0 986 l 69 986 l 69 1126 l 428 1126 l 428 986 l 601 986 l 601 861 l 428 861 l 428 851 q 411 619 428 760 l 414 619 q 520 722 469 689 q 651 754 571 754 z "},"Ĩ":{"ha":519,"x_min":-78,"x_max":600,"o":"m 375 1103 q 251 1148 333 1103 q 146 1193 168 1193 q 64 1115 101 1193 l -78 1213 q 24 1347 -36 1293 q 158 1400 85 1400 q 271 1355 206 1400 q 365 1310 336 1310 q 404 1324 386 1310 q 429 1351 422 1339 q 447 1388 436 1364 l 600 1304 q 375 1103 504 1103 m 443 0 l 76 0 l 76 1047 l 443 1047 l 443 0 z "},"ĩ":{"ha":497,"x_min":-90,"x_max":588,"o":"m 363 811 q 238 856 321 811 q 133 901 156 901 q 51 824 89 901 l -90 921 q 12 1055 -49 1001 q 146 1108 72 1108 q 258 1063 193 1108 q 353 1018 324 1018 q 392 1033 374 1018 q 417 1060 410 1047 q 435 1096 424 1072 l 588 1013 q 363 811 492 811 m 428 0 l 69 0 l 69 738 l 428 738 l 428 0 z "},"Ī":{"ha":519,"x_min":19,"x_max":499,"o":"m 499 1132 l 19 1132 l 19 1292 l 499 1292 l 499 1132 m 443 0 l 76 0 l 76 1047 l 443 1047 l 443 0 z "},"ī":{"ha":497,"x_min":-19,"x_max":515,"o":"m 515 847 l -19 847 l -19 1049 l 515 1049 l 515 847 m 428 0 l 69 0 l 69 738 l 428 738 l 428 0 z "},"Ĭ":{"ha":519,"x_min":-44,"x_max":563,"o":"m 258 1146 q 47 1219 128 1146 q -44 1415 -35 1293 l 147 1415 q 258 1332 168 1332 q 369 1415 349 1332 l 563 1415 q 469 1228 556 1310 q 258 1146 383 1146 m 443 0 l 76 0 l 76 1047 l 443 1047 l 443 0 z "},"ĭ":{"ha":497,"x_min":-56,"x_max":551,"o":"m 247 808 q 35 882 117 808 q -56 1078 -46 956 l 136 1078 q 247 994 157 994 q 358 1078 338 994 l 551 1078 q 458 890 544 972 q 247 808 372 808 m 428 0 l 69 0 l 69 738 l 428 738 l 428 0 z "},"Į":{"ha":519,"x_min":51,"x_max":447,"o":"m 400 -106 l 447 -264 q 258 -304 360 -304 q 112 -263 172 -304 q 51 -151 51 -222 q 160 0 51 -56 l 76 0 l 76 1047 l 443 1047 l 443 0 l 367 0 q 281 -82 281 -40 q 294 -110 281 -99 q 332 -121 308 -121 q 400 -106 367 -121 z "},"į":{"ha":497,"x_min":51,"x_max":447,"o":"m 389 853 q 360 832 389 853 q 249 810 332 810 q 108 853 165 810 q 51 983 51 897 q 107 1109 51 1063 q 249 1156 163 1156 q 390 1109 335 1156 q 446 983 446 1063 q 389 853 446 897 m 400 -106 l 447 -264 q 258 -304 360 -304 q 112 -263 172 -304 q 51 -151 51 -222 q 160 0 51 -56 l 69 0 l 69 738 l 428 738 l 428 0 l 367 0 q 281 -82 281 -40 q 294 -110 281 -99 q 332 -121 308 -121 q 400 -106 367 -121 z "},"İ":{"ha":519,"x_min":63,"x_max":457,"o":"m 400 1194 q 372 1172 400 1194 q 260 1150 343 1150 q 119 1194 176 1150 q 63 1324 63 1238 q 118 1449 63 1403 q 260 1496 174 1496 q 401 1449 346 1496 q 457 1324 457 1403 q 400 1194 457 1238 m 443 0 l 76 0 l 76 1047 l 443 1047 l 443 0 z "},"ı":{"ha":497,"x_min":69,"x_max":428,"o":"m 428 0 l 69 0 l 69 738 l 428 738 l 428 0 z "},"Ĳ":{"ha":1258,"x_min":76,"x_max":1189,"o":"m 443 0 l 76 0 l 76 1047 l 443 1047 l 443 0 m 832 -17 q 519 97 644 -17 l 640 399 q 750 324 697 324 q 817 425 817 324 l 817 1047 l 1189 1047 l 1189 353 q 1092 83 1189 183 q 832 -17 994 -17 z "},"ĳ":{"ha":994,"x_min":51,"x_max":943,"o":"m 389 853 q 360 832 389 853 q 249 810 332 810 q 108 853 165 810 q 51 983 51 897 q 107 1109 51 1063 q 249 1156 163 1156 q 390 1109 335 1156 q 446 983 446 1063 q 389 853 446 897 m 886 853 q 858 832 886 853 q 746 810 829 810 q 606 853 663 810 q 549 983 549 897 q 604 1109 549 1063 q 746 1156 660 1156 q 888 1109 832 1156 q 943 983 943 1063 q 886 853 943 897 m 428 0 l 69 0 l 69 738 l 428 738 l 428 0 m 925 -304 l 567 -304 l 567 738 l 925 738 l 925 -304 z "},"Ĵ":{"ha":739,"x_min":0,"x_max":799,"o":"m 481 1224 l 257 1139 l 163 1306 l 481 1479 l 799 1306 l 704 1139 l 481 1224 m 313 -17 q 0 97 125 -17 l 121 399 q 231 324 178 324 q 297 425 297 324 l 297 1047 l 669 1047 l 669 353 q 572 83 669 183 q 313 -17 475 -17 z "},"ĵ":{"ha":497,"x_min":-69,"x_max":567,"o":"m 249 875 l 25 790 l -69 957 l 249 1131 l 567 957 l 472 790 l 249 875 m 428 -304 l 69 -304 l 69 738 l 428 738 l 428 -304 z "},"Ķ":{"ha":1119,"x_min":76,"x_max":1133,"o":"m 439 463 l 447 0 l 76 0 l 76 1047 l 447 1047 l 439 593 l 683 1047 l 1099 1047 l 779 528 l 1133 0 l 692 0 l 439 463 m 564 -304 l 326 -304 l 432 -50 l 728 -50 l 564 -304 z "},"ķ":{"ha":1010,"x_min":69,"x_max":1008,"o":"m 438 264 l 428 260 l 428 0 l 69 0 l 69 1126 l 428 1126 l 428 464 l 586 738 l 994 738 l 724 376 l 1008 0 l 586 0 l 438 264 m 510 -304 l 272 -304 l 378 -50 l 674 -50 l 510 -304 z "},"ĸ":{"ha":1010,"x_min":69,"x_max":1008,"o":"m 724 376 l 1008 0 l 586 0 l 438 264 l 428 260 l 428 0 l 69 0 l 69 738 l 428 738 l 428 464 l 586 738 l 994 738 l 724 376 z "},"Ĺ":{"ha":788,"x_min":42,"x_max":763,"o":"m 494 1322 l 224 1122 l 42 1222 l 251 1493 l 494 1322 m 763 0 l 76 0 l 76 1047 l 443 1047 l 443 336 l 763 336 l 763 0 z "},"ĺ":{"ha":497,"x_min":26,"x_max":479,"o":"m 479 1401 l 208 1201 l 26 1301 l 236 1572 l 479 1401 m 428 0 l 69 0 l 69 1126 l 428 1126 l 428 0 z "},"Ļ":{"ha":788,"x_min":76,"x_max":763,"o":"m 763 0 l 76 0 l 76 1047 l 443 1047 l 443 336 l 763 336 l 763 0 m 585 -50 l 421 -304 l 183 -304 l 289 -50 l 585 -50 z "},"ļ":{"ha":497,"x_min":8,"x_max":428,"o":"m 428 0 l 69 0 l 69 1126 l 428 1126 l 428 0 m 410 -50 l 246 -304 l 8 -304 l 114 -50 l 410 -50 z "},"Ľ":{"ha":788,"x_min":76,"x_max":803,"o":"m 763 0 l 76 0 l 76 1047 l 443 1047 l 443 336 l 763 336 l 763 0 m 803 954 l 635 672 l 457 732 l 564 1047 l 803 954 z "},"ľ":{"ha":497,"x_min":69,"x_max":811,"o":"m 811 1038 l 643 756 l 465 815 l 572 1131 l 811 1038 m 428 0 l 69 0 l 69 1126 l 428 1126 l 428 0 z "},"Ŀ":{"ha":788,"x_min":76,"x_max":814,"o":"m 763 0 l 76 0 l 76 1047 l 443 1047 l 443 336 l 763 336 l 763 0 m 768 526 q 745 502 768 526 q 653 479 722 479 q 538 526 583 479 q 492 640 492 572 q 538 755 492 708 q 653 801 583 801 q 768 755 722 801 q 814 640 814 708 q 768 526 814 572 z "},"ŀ":{"ha":818,"x_min":69,"x_max":840,"o":"m 428 0 l 69 0 l 69 1126 l 428 1126 l 428 0 m 787 441 q 760 414 787 441 q 660 388 733 388 q 533 441 586 388 q 479 568 479 494 q 533 695 479 642 q 660 749 586 749 q 787 695 733 749 q 840 568 840 642 q 787 441 840 494 z "},"Ł":{"ha":788,"x_min":-21,"x_max":763,"o":"m 443 560 l 443 336 l 763 336 l 763 0 l 76 0 l 76 324 l -21 243 l -21 469 l 76 550 l 76 1047 l 443 1047 l 443 788 l 589 900 l 589 672 l 443 560 z "},"ł":{"ha":549,"x_min":0,"x_max":549,"o":"m 453 808 l 549 885 l 549 685 l 453 607 l 453 0 l 94 0 l 94 374 l 0 297 l 0 497 l 94 574 l 94 1126 l 453 1126 l 453 808 z "},"Ń":{"ha":1203,"x_min":76,"x_max":1126,"o":"m 603 1493 l 846 1322 l 575 1122 l 393 1222 l 603 1493 m 783 478 l 763 1047 l 1126 1047 l 1126 0 l 763 0 l 428 551 l 440 0 l 76 0 l 76 1047 l 442 1047 l 783 478 z "},"ń":{"ha":974,"x_min":69,"x_max":907,"o":"m 768 990 l 497 790 l 315 890 l 525 1161 l 768 990 m 428 0 l 69 0 l 69 738 l 419 738 l 411 619 l 414 619 q 520 722 469 689 q 651 754 571 754 q 844 670 781 754 q 907 454 907 586 l 907 0 l 549 0 l 549 360 q 547 412 549 393 q 531 447 544 431 q 493 464 518 464 q 440 435 453 464 q 428 353 428 407 l 428 0 z "},"Ņ":{"ha":1203,"x_min":76,"x_max":1126,"o":"m 783 478 l 763 1047 l 1126 1047 l 1126 0 l 763 0 l 428 551 l 440 0 l 76 0 l 76 1047 l 442 1047 l 783 478 m 599 -304 l 361 -304 l 467 -50 l 763 -50 l 599 -304 z "},"ņ":{"ha":974,"x_min":69,"x_max":907,"o":"m 428 0 l 69 0 l 69 738 l 419 738 l 411 619 l 414 619 q 520 722 469 689 q 651 754 571 754 q 844 670 781 754 q 907 454 907 586 l 907 0 l 549 0 l 549 360 q 547 412 549 393 q 531 447 544 431 q 493 464 518 464 q 440 435 453 464 q 428 353 428 407 l 428 0 m 650 -50 l 486 -304 l 249 -304 l 354 -50 l 650 -50 z "},"Ň":{"ha":1203,"x_min":76,"x_max":1126,"o":"m 839 1476 l 933 1310 l 615 1136 l 297 1310 l 392 1476 l 615 1392 l 839 1476 m 783 478 l 763 1047 l 1126 1047 l 1126 0 l 763 0 l 428 551 l 440 0 l 76 0 l 76 1047 l 442 1047 l 783 478 z "},"ň":{"ha":974,"x_min":69,"x_max":907,"o":"m 807 964 l 489 790 l 171 964 l 265 1131 l 489 1046 l 713 1131 l 807 964 m 428 0 l 69 0 l 69 738 l 419 738 l 411 619 l 414 619 q 520 722 469 689 q 651 754 571 754 q 844 670 781 754 q 907 454 907 586 l 907 0 l 549 0 l 549 360 q 547 412 549 393 q 531 447 544 431 q 493 464 518 464 q 440 435 453 464 q 428 353 428 407 l 428 0 z "},"ŉ":{"ha":1325,"x_min":-71,"x_max":1258,"o":"m 457 1047 l 208 529 l -71 529 l 97 1047 l 457 1047 m 779 0 l 421 0 l 421 738 l 771 738 l 763 619 l 765 619 q 872 722 821 689 q 1003 754 922 754 q 1195 670 1132 754 q 1258 454 1258 586 l 1258 0 l 900 0 l 900 360 q 898 412 900 393 q 883 447 896 431 q 844 464 869 464 q 792 435 804 464 q 779 353 779 407 l 779 0 z "},"Ŋ":{"ha":1203,"x_min":76,"x_max":1126,"o":"m 782 496 l 763 1047 l 1126 1047 l 1126 26 q 1028 -258 1126 -151 q 769 -364 929 -364 q 517 -290 636 -364 l 615 -17 q 689 -36 649 -36 q 754 29 754 -36 l 754 36 l 428 551 l 440 0 l 76 0 l 76 1047 l 442 1047 l 782 496 z "},"ŋ":{"ha":974,"x_min":69,"x_max":907,"o":"m 589 -326 q 425 -310 518 -326 l 425 -67 q 479 -79 456 -79 q 531 -56 514 -79 q 549 6 549 -32 l 549 360 q 547 412 549 393 q 531 447 544 431 q 493 464 518 464 q 440 435 453 464 q 428 353 428 407 l 428 0 l 69 0 l 69 738 l 419 738 l 411 619 l 414 619 q 520 722 469 689 q 651 754 571 754 q 844 670 781 754 q 907 454 907 586 l 907 -33 q 589 -326 907 -326 z "},"Ō":{"ha":1256,"x_min":49,"x_max":1207,"o":"m 868 1132 l 389 1132 l 389 1292 l 868 1292 l 868 1132 m 1041 130 q 958 57 1041 130 q 628 -17 875 -17 q 215 130 381 -17 q 49 521 49 276 q 216 913 49 761 q 628 1064 383 1064 q 1040 913 872 1064 q 1207 521 1207 761 q 1041 130 1207 276 m 486 375 q 513 347 486 375 q 628 319 540 319 q 769 375 715 319 q 824 521 824 431 q 770 668 824 608 q 628 728 717 728 q 485 668 539 728 q 432 521 432 608 q 486 375 432 431 z "},"ō":{"ha":986,"x_min":42,"x_max":944,"o":"m 761 847 l 226 847 l 226 1049 l 761 1049 l 761 847 m 817 82 q 753 33 817 82 q 493 -17 689 -17 q 169 82 297 -17 q 42 369 42 181 q 170 653 42 553 q 493 754 299 754 q 816 653 688 754 q 944 369 944 553 q 817 82 944 181 m 420 295 q 434 281 420 295 q 493 267 447 267 q 566 295 539 267 q 593 369 593 324 q 566 443 593 415 q 493 471 539 471 q 420 443 447 471 q 393 369 393 415 q 420 295 393 324 z "},"Ŏ":{"ha":1256,"x_min":49,"x_max":1207,"o":"m 628 1146 q 416 1219 497 1146 q 325 1415 335 1293 l 517 1415 q 628 1332 538 1332 q 739 1415 718 1332 l 932 1415 q 839 1228 925 1310 q 628 1146 753 1146 m 1041 130 q 958 57 1041 130 q 628 -17 875 -17 q 215 130 381 -17 q 49 521 49 276 q 216 913 49 761 q 628 1064 383 1064 q 1040 913 872 1064 q 1207 521 1207 761 q 1041 130 1207 276 m 486 375 q 513 347 486 375 q 628 319 540 319 q 769 375 715 319 q 824 521 824 431 q 770 668 824 608 q 628 728 717 728 q 485 668 539 728 q 432 521 432 608 q 486 375 432 431 z "},"ŏ":{"ha":986,"x_min":42,"x_max":944,"o":"m 493 808 q 281 882 363 808 q 190 1078 200 956 l 382 1078 q 493 994 403 994 q 604 1078 583 994 l 797 1078 q 704 890 790 972 q 493 808 618 808 m 817 82 q 753 33 817 82 q 493 -17 689 -17 q 169 82 297 -17 q 42 369 42 181 q 170 653 42 553 q 493 754 299 754 q 816 653 688 754 q 944 369 944 553 q 817 82 944 181 m 420 295 q 434 281 420 295 q 493 267 447 267 q 566 295 539 267 q 593 369 593 324 q 566 443 593 415 q 493 471 539 471 q 420 443 447 471 q 393 369 393 415 q 420 295 393 324 z "},"Ő":{"ha":1256,"x_min":49,"x_max":1207,"o":"m 711 1415 l 547 1140 l 346 1175 l 444 1454 l 711 1415 m 1050 1415 l 872 1140 l 671 1175 l 783 1454 l 1050 1415 m 1041 130 q 958 57 1041 130 q 628 -17 875 -17 q 215 130 381 -17 q 49 521 49 276 q 216 913 49 761 q 628 1064 383 1064 q 1040 913 872 1064 q 1207 521 1207 761 q 1041 130 1207 276 m 486 375 q 513 347 486 375 q 628 319 540 319 q 769 375 715 319 q 824 521 824 431 q 770 668 824 608 q 628 728 717 728 q 485 668 539 728 q 432 521 432 608 q 486 375 432 431 z "},"ő":{"ha":986,"x_min":42,"x_max":944,"o":"m 563 1064 l 399 789 l 197 824 l 296 1103 l 563 1064 m 901 1064 l 724 789 l 522 824 l 635 1103 l 901 1064 m 817 82 q 753 33 817 82 q 493 -17 689 -17 q 169 82 297 -17 q 42 369 42 181 q 170 653 42 553 q 493 754 299 754 q 816 653 688 754 q 944 369 944 553 q 817 82 944 181 m 420 295 q 434 281 420 295 q 493 267 447 267 q 566 295 539 267 q 593 369 593 324 q 566 443 593 415 q 493 471 539 471 q 420 443 447 471 q 393 369 393 415 q 420 295 393 324 z "},"Œ":{"ha":1625,"x_min":49,"x_max":1563,"o":"m 558 -17 q 195 131 342 -17 q 49 521 49 278 q 196 912 49 760 q 558 1064 343 1064 q 849 924 739 1064 l 851 924 l 851 1047 l 1551 1047 l 1551 761 l 1214 761 l 1214 665 l 1524 665 l 1524 393 l 1214 393 l 1214 286 l 1563 286 l 1563 0 l 851 0 l 851 118 l 849 118 q 558 -17 740 -17 m 628 319 q 759 375 708 319 q 810 521 810 431 q 760 668 810 608 q 628 728 710 728 q 485 668 539 728 q 432 521 432 608 q 486 375 432 431 q 628 319 540 319 z "},"œ":{"ha":1506,"x_min":42,"x_max":1464,"o":"m 1464 342 q 1463 308 1464 319 l 940 308 q 1026 182 940 182 q 1075 199 1054 182 q 1103 243 1096 217 l 1447 243 q 1292 51 1413 118 q 1032 -17 1172 -17 q 743 82 853 -17 q 465 -17 633 -17 q 166 84 290 -17 q 42 369 42 185 q 167 651 42 549 q 465 754 292 754 q 746 650 635 754 q 1032 754 858 754 q 1343 647 1222 754 q 1464 342 1464 539 m 942 461 l 1110 461 q 1087 530 1108 503 q 1026 557 1065 557 q 966 530 988 557 q 942 461 944 503 m 420 295 q 434 281 420 295 q 493 267 447 267 q 566 295 539 267 q 593 369 593 324 q 566 443 593 415 q 493 471 539 471 q 420 443 447 471 q 393 369 393 415 q 420 295 393 324 z "},"Ŕ":{"ha":1044,"x_min":76,"x_max":1058,"o":"m 504 1493 l 747 1322 l 476 1122 l 294 1222 l 504 1493 m 783 393 l 1058 0 l 622 0 l 457 336 l 443 336 l 443 0 l 76 0 l 76 1047 l 536 1047 q 851 958 729 1047 q 972 683 972 869 q 783 393 972 496 m 478 761 l 443 761 l 443 583 l 475 583 q 567 601 533 583 q 600 671 600 618 q 569 744 600 726 q 478 761 538 761 z "},"ŕ":{"ha":689,"x_min":69,"x_max":678,"o":"m 625 990 l 354 790 l 172 890 l 382 1161 l 625 990 m 428 0 l 69 0 l 69 738 l 428 738 l 419 639 l 428 639 q 522 729 471 704 q 653 754 572 754 l 678 754 l 678 390 q 558 431 614 431 q 463 392 497 431 q 428 283 428 353 l 428 0 z "},"Ŗ":{"ha":1044,"x_min":76,"x_max":1058,"o":"m 457 336 l 443 336 l 443 0 l 76 0 l 76 1047 l 536 1047 q 851 958 729 1047 q 972 683 972 869 q 783 393 972 496 l 1058 0 l 622 0 l 457 336 m 478 761 l 443 761 l 443 583 l 475 583 q 567 601 533 583 q 600 671 600 618 q 569 744 600 726 q 478 761 538 761 m 529 -304 l 292 -304 l 397 -50 l 693 -50 l 529 -304 z "},"ŗ":{"ha":689,"x_min":-3,"x_max":678,"o":"m 428 0 l 69 0 l 69 738 l 428 738 l 419 639 l 428 639 q 522 729 471 704 q 653 754 572 754 l 678 754 l 678 390 q 558 431 614 431 q 463 392 497 431 q 428 283 428 353 l 428 0 m 399 -50 l 235 -304 l -3 -304 l 103 -50 l 399 -50 z "},"Ř":{"ha":1044,"x_min":76,"x_max":1058,"o":"m 740 1476 l 835 1310 l 517 1136 l 199 1310 l 293 1476 l 517 1392 l 740 1476 m 783 393 l 1058 0 l 622 0 l 457 336 l 443 336 l 443 0 l 76 0 l 76 1047 l 536 1047 q 851 958 729 1047 q 972 683 972 869 q 783 393 972 496 m 478 761 l 443 761 l 443 583 l 475 583 q 567 601 533 583 q 600 671 600 618 q 569 744 600 726 q 478 761 538 761 z "},"ř":{"ha":689,"x_min":28,"x_max":678,"o":"m 664 964 l 346 790 l 28 964 l 122 1131 l 346 1046 l 569 1131 l 664 964 m 428 0 l 69 0 l 69 738 l 428 738 l 419 639 l 428 639 q 522 729 471 704 q 653 754 572 754 l 678 754 l 678 390 q 558 431 614 431 q 463 392 497 431 q 428 283 428 353 l 428 0 z "},"Ś":{"ha":906,"x_min":21,"x_max":871,"o":"m 697 1322 l 426 1122 l 244 1222 l 454 1493 l 697 1322 m 442 -17 q 21 108 190 -17 l 151 364 q 406 264 285 264 q 490 317 490 264 q 468 351 490 339 q 392 378 446 363 q 388 379 389 379 q 383 381 386 379 q 378 382 381 382 q 266 424 314 401 q 169 484 218 447 q 95 578 121 521 q 69 710 69 636 q 185 966 69 868 q 483 1064 301 1064 q 851 974 693 1064 l 717 714 q 522 783 629 783 q 450 736 450 783 q 478 699 450 714 q 565 668 507 685 q 586 663 579 665 q 795 549 719 622 q 871 340 871 476 q 752 81 871 179 q 442 -17 633 -17 z "},"ś":{"ha":769,"x_min":28,"x_max":721,"o":"m 664 990 l 393 790 l 211 890 l 421 1161 l 664 990 m 364 -21 q 28 76 176 -21 l 135 293 q 331 213 233 213 q 382 240 382 213 q 366 261 382 254 q 310 275 350 268 q 74 492 74 314 q 172 691 74 626 q 418 756 269 756 q 693 697 588 756 l 608 479 q 451 535 542 535 q 396 507 396 535 q 401 494 396 499 q 419 485 406 489 q 446 478 432 481 q 489 469 460 475 q 660 403 600 450 q 721 254 721 357 q 624 52 721 125 q 364 -21 528 -21 z "},"Ŝ":{"ha":906,"x_min":21,"x_max":871,"o":"m 467 1224 l 243 1139 l 149 1306 l 467 1479 l 785 1306 l 690 1139 l 467 1224 m 442 -17 q 21 108 190 -17 l 151 364 q 406 264 285 264 q 490 317 490 264 q 468 351 490 339 q 392 378 446 363 q 388 379 389 379 q 383 381 386 379 q 378 382 381 382 q 266 424 314 401 q 169 484 218 447 q 95 578 121 521 q 69 710 69 636 q 185 966 69 868 q 483 1064 301 1064 q 851 974 693 1064 l 717 714 q 522 783 629 783 q 450 736 450 783 q 478 699 450 714 q 565 668 507 685 q 586 663 579 665 q 795 549 719 622 q 871 340 871 476 q 752 81 871 179 q 442 -17 633 -17 z "},"ŝ":{"ha":769,"x_min":28,"x_max":721,"o":"m 385 875 l 161 790 l 67 957 l 385 1131 l 703 957 l 608 790 l 385 875 m 364 -21 q 28 76 176 -21 l 135 293 q 331 213 233 213 q 382 240 382 213 q 366 261 382 254 q 310 275 350 268 q 74 492 74 314 q 172 691 74 626 q 418 756 269 756 q 693 697 588 756 l 608 479 q 451 535 542 535 q 396 507 396 535 q 401 494 396 499 q 419 485 406 489 q 446 478 432 481 q 489 469 460 475 q 660 403 600 450 q 721 254 721 357 q 624 52 721 125 q 364 -21 528 -21 z "},"Ş":{"ha":906,"x_min":21,"x_max":871,"o":"m 871 340 q 754 83 871 181 q 449 -17 638 -14 l 610 -135 l 390 -324 l 258 -240 l 428 -17 q 21 108 185 -12 l 151 364 q 406 264 285 264 q 490 317 490 264 q 468 351 490 339 q 392 378 446 363 q 388 379 389 379 q 383 381 386 379 q 378 382 381 382 q 266 424 314 401 q 169 484 218 447 q 95 578 121 521 q 69 710 69 636 q 185 966 69 868 q 483 1064 301 1064 q 851 974 693 1064 l 717 714 q 522 783 629 783 q 450 736 450 783 q 478 699 450 714 q 565 668 507 685 q 586 663 579 665 q 795 549 719 622 q 871 340 871 476 z "},"ş":{"ha":769,"x_min":28,"x_max":721,"o":"m 721 254 q 626 55 721 128 q 372 -21 532 -18 l 528 -135 l 308 -324 l 176 -240 l 343 -21 q 28 76 168 -15 l 135 293 q 331 213 233 213 q 382 240 382 213 q 366 261 382 254 q 310 275 350 268 q 74 492 74 314 q 172 691 74 626 q 418 756 269 756 q 693 697 588 756 l 608 479 q 451 535 542 535 q 396 507 396 535 q 401 494 396 499 q 419 485 406 489 q 446 478 432 481 q 489 469 460 475 q 660 403 600 450 q 721 254 721 357 z "},"Š":{"ha":906,"x_min":21,"x_max":871,"o":"m 785 1310 l 467 1136 l 149 1310 l 243 1476 l 467 1392 l 690 1476 l 785 1310 m 442 -17 q 21 108 190 -17 l 151 364 q 406 264 285 264 q 490 317 490 264 q 468 351 490 339 q 392 378 446 363 q 388 379 389 379 q 383 381 386 379 q 378 382 381 382 q 266 424 314 401 q 169 484 218 447 q 95 578 121 521 q 69 710 69 636 q 185 966 69 868 q 483 1064 301 1064 q 851 974 693 1064 l 717 714 q 522 783 629 783 q 450 736 450 783 q 478 699 450 714 q 565 668 507 685 q 586 663 579 665 q 795 549 719 622 q 871 340 871 476 q 752 81 871 179 q 442 -17 633 -17 z "},"š":{"ha":769,"x_min":28,"x_max":721,"o":"m 703 964 l 385 790 l 67 964 l 161 1131 l 385 1046 l 608 1131 l 703 964 m 364 -21 q 28 76 176 -21 l 135 293 q 331 213 233 213 q 382 240 382 213 q 366 261 382 254 q 310 275 350 268 q 74 492 74 314 q 172 691 74 626 q 418 756 269 756 q 693 697 588 756 l 608 479 q 451 535 542 535 q 396 507 396 535 q 401 494 396 499 q 419 485 406 489 q 446 478 432 481 q 489 469 460 475 q 660 403 600 450 q 721 254 721 357 q 624 52 721 125 q 364 -21 528 -21 z "},"Ţ":{"ha":836,"x_min":18,"x_max":818,"o":"m 608 0 l 228 0 l 228 711 l 18 711 l 18 1047 l 818 1047 l 818 711 l 608 711 l 608 0 m 575 -135 l 356 -324 l 224 -240 l 400 -7 l 575 -135 z "},"ţ":{"ha":626,"x_min":13,"x_max":614,"o":"m 489 0 l 131 0 l 131 450 l 13 450 l 13 738 l 131 738 l 131 975 l 489 975 l 489 738 l 614 738 l 614 450 l 489 450 l 489 0 m 471 -135 l 251 -324 l 119 -240 l 296 -7 l 471 -135 z "},"Ť":{"ha":836,"x_min":18,"x_max":818,"o":"m 736 1310 l 418 1136 l 100 1310 l 194 1476 l 418 1392 l 642 1476 l 736 1310 m 608 0 l 228 0 l 228 711 l 18 711 l 18 1047 l 818 1047 l 818 711 l 608 711 l 608 0 z "},"ť":{"ha":626,"x_min":13,"x_max":863,"o":"m 863 1058 l 694 776 l 517 836 l 624 1151 l 863 1058 m 489 0 l 131 0 l 131 450 l 13 450 l 13 738 l 131 738 l 131 975 l 489 975 l 489 738 l 614 738 l 614 450 l 489 450 l 489 0 z "},"Ŧ":{"ha":836,"x_min":18,"x_max":818,"o":"m 818 1047 l 818 711 l 608 711 l 608 567 l 729 567 l 729 418 l 608 418 l 608 0 l 228 0 l 228 418 l 107 418 l 107 567 l 228 567 l 228 711 l 18 711 l 18 1047 l 818 1047 z "},"ŧ":{"ha":626,"x_min":13,"x_max":614,"o":"m 614 738 l 614 450 l 489 450 l 489 354 l 578 354 l 578 229 l 489 229 l 489 0 l 131 0 l 131 229 l 33 229 l 33 354 l 131 354 l 131 450 l 13 450 l 13 738 l 131 738 l 131 975 l 489 975 l 489 738 l 614 738 z "},"Ũ":{"ha":1108,"x_min":69,"x_max":1039,"o":"m 671 1103 q 547 1148 629 1103 q 442 1193 464 1193 q 360 1115 397 1193 l 218 1213 q 320 1347 260 1293 q 454 1400 381 1400 q 567 1355 501 1400 q 661 1310 632 1310 q 700 1324 682 1310 q 725 1351 718 1339 q 743 1388 732 1364 l 896 1304 q 671 1103 800 1103 m 910 94 q 846 39 910 94 q 554 -17 782 -17 q 198 94 326 -17 q 69 428 69 206 l 69 1047 l 450 1047 l 450 464 q 452 403 450 425 q 464 357 454 382 q 496 321 474 332 q 554 310 518 310 q 613 321 590 310 q 644 357 635 332 q 656 403 654 382 q 658 464 658 425 l 658 1047 l 1039 1047 l 1039 428 q 910 94 1039 206 z "},"ũ":{"ha":967,"x_min":67,"x_max":900,"o":"m 597 811 q 473 856 556 811 q 368 901 390 901 q 286 824 324 901 l 144 921 q 247 1055 186 1001 q 381 1108 307 1108 q 493 1063 428 1108 q 588 1018 558 1018 q 626 1033 608 1018 q 651 1060 644 1047 q 669 1096 658 1072 l 822 1013 q 597 811 726 811 m 787 68 q 730 26 787 68 q 483 -17 674 -17 q 180 68 293 -17 q 67 321 67 153 l 67 738 l 422 738 l 422 357 q 425 313 422 329 q 442 283 428 297 q 483 268 456 268 q 525 283 511 268 q 542 313 539 297 q 544 357 544 329 l 544 738 l 900 738 l 900 321 q 787 68 900 153 z "},"Ū":{"ha":1108,"x_min":69,"x_max":1039,"o":"m 796 1132 l 317 1132 l 317 1292 l 796 1292 l 796 1132 m 910 94 q 846 39 910 94 q 554 -17 782 -17 q 198 94 326 -17 q 69 428 69 206 l 69 1047 l 450 1047 l 450 464 q 452 403 450 425 q 464 357 454 382 q 496 321 474 332 q 554 310 518 310 q 613 321 590 310 q 644 357 635 332 q 656 403 654 382 q 658 464 658 425 l 658 1047 l 1039 1047 l 1039 428 q 910 94 1039 206 z "},"ū":{"ha":967,"x_min":67,"x_max":900,"o":"m 751 847 l 217 847 l 217 1049 l 751 1049 l 751 847 m 787 68 q 730 26 787 68 q 483 -17 674 -17 q 180 68 293 -17 q 67 321 67 153 l 67 738 l 422 738 l 422 357 q 425 313 422 329 q 442 283 428 297 q 483 268 456 268 q 525 283 511 268 q 542 313 539 297 q 544 357 544 329 l 544 738 l 900 738 l 900 321 q 787 68 900 153 z "},"Ŭ":{"ha":1108,"x_min":69,"x_max":1039,"o":"m 556 1146 q 344 1219 425 1146 q 253 1415 263 1293 l 444 1415 q 556 1332 465 1332 q 667 1415 646 1332 l 860 1415 q 767 1228 853 1310 q 556 1146 681 1146 m 910 94 q 846 39 910 94 q 554 -17 782 -17 q 198 94 326 -17 q 69 428 69 206 l 69 1047 l 450 1047 l 450 464 q 452 403 450 425 q 464 357 454 382 q 496 321 474 332 q 554 310 518 310 q 613 321 590 310 q 644 357 635 332 q 656 403 654 382 q 658 464 658 425 l 658 1047 l 1039 1047 l 1039 428 q 910 94 1039 206 z "},"ŭ":{"ha":967,"x_min":67,"x_max":900,"o":"m 483 808 q 272 882 353 808 q 181 1078 190 956 l 372 1078 q 483 994 393 994 q 594 1078 574 994 l 788 1078 q 694 890 781 972 q 483 808 608 808 m 787 68 q 730 26 787 68 q 483 -17 674 -17 q 180 68 293 -17 q 67 321 67 153 l 67 738 l 422 738 l 422 357 q 425 313 422 329 q 442 283 428 297 q 483 268 456 268 q 525 283 511 268 q 542 313 539 297 q 544 357 544 329 l 544 738 l 900 738 l 900 321 q 787 68 900 153 z "},"Ů":{"ha":1108,"x_min":69,"x_max":1039,"o":"m 701 1128 q 670 1106 701 1128 q 554 1083 639 1083 q 407 1128 469 1083 q 344 1256 344 1174 q 407 1384 344 1338 q 554 1431 469 1431 q 701 1384 639 1431 q 764 1256 764 1338 q 701 1128 764 1174 m 509 1214 q 518 1206 509 1214 q 554 1197 528 1197 q 599 1214 581 1197 q 618 1257 618 1231 q 599 1300 618 1283 q 554 1317 581 1317 q 509 1300 528 1317 q 490 1257 490 1283 q 509 1214 490 1231 m 910 94 q 846 39 910 94 q 554 -17 782 -17 q 198 94 326 -17 q 69 428 69 206 l 69 1047 l 450 1047 l 450 464 q 452 403 450 425 q 464 357 454 382 q 496 321 474 332 q 554 310 518 310 q 613 321 590 310 q 644 357 635 332 q 656 403 654 382 q 658 464 658 425 l 658 1047 l 1039 1047 l 1039 428 q 910 94 1039 206 z "},"ů":{"ha":967,"x_min":67,"x_max":900,"o":"m 631 851 q 599 828 631 851 q 483 806 568 806 q 336 851 399 806 q 274 978 274 896 q 336 1106 274 1060 q 483 1153 399 1153 q 631 1106 568 1153 q 693 978 693 1060 q 631 851 693 896 m 442 940 q 451 932 442 940 q 483 925 460 925 q 524 940 507 925 q 542 979 542 954 q 524 1019 542 1004 q 483 1033 507 1033 q 442 1019 460 1033 q 425 979 425 1004 q 442 940 425 954 m 787 68 q 730 26 787 68 q 483 -17 674 -17 q 180 68 293 -17 q 67 321 67 153 l 67 738 l 422 738 l 422 357 q 425 313 422 329 q 442 283 428 297 q 483 268 456 268 q 525 283 511 268 q 542 313 539 297 q 544 357 544 329 l 544 738 l 900 738 l 900 321 q 787 68 900 153 z "},"Ű":{"ha":1108,"x_min":69,"x_max":1039,"o":"m 639 1415 l 475 1140 l 274 1175 l 372 1454 l 639 1415 m 978 1415 l 800 1140 l 599 1175 l 711 1454 l 978 1415 m 910 94 q 846 39 910 94 q 554 -17 782 -17 q 198 94 326 -17 q 69 428 69 206 l 69 1047 l 450 1047 l 450 464 q 452 403 450 425 q 464 357 454 382 q 496 321 474 332 q 554 310 518 310 q 613 321 590 310 q 644 357 635 332 q 656 403 654 382 q 658 464 658 425 l 658 1047 l 1039 1047 l 1039 428 q 910 94 1039 206 z "},"ű":{"ha":967,"x_min":67,"x_max":900,"o":"m 553 1064 l 389 789 l 188 824 l 286 1103 l 553 1064 m 892 1064 l 714 789 l 513 824 l 625 1103 l 892 1064 m 787 68 q 730 26 787 68 q 483 -17 674 -17 q 180 68 293 -17 q 67 321 67 153 l 67 738 l 422 738 l 422 357 q 425 313 422 329 q 442 283 428 297 q 483 268 456 268 q 525 283 511 268 q 542 313 539 297 q 544 357 544 329 l 544 738 l 900 738 l 900 321 q 787 68 900 153 z "},"Ų":{"ha":1108,"x_min":69,"x_max":1039,"o":"m 658 464 l 658 1047 l 1039 1047 l 1039 428 q 751 10 1039 94 q 646 -82 646 -37 q 660 -110 646 -99 q 697 -121 674 -121 q 765 -106 732 -121 l 813 -264 q 624 -304 725 -304 q 477 -263 538 -304 q 417 -151 417 -222 q 499 -15 417 -68 q 183 108 296 -3 q 69 428 69 219 l 69 1047 l 450 1047 l 450 464 q 452 403 450 425 q 464 357 454 382 q 496 321 474 332 q 554 310 518 310 q 613 321 590 310 q 644 357 635 332 q 656 403 654 382 q 658 464 658 425 z "},"ų":{"ha":967,"x_min":67,"x_max":900,"o":"m 544 357 l 544 738 l 900 738 l 900 321 q 669 8 900 79 q 594 -68 594 -29 q 608 -96 594 -85 q 646 -107 622 -107 q 714 -92 681 -107 l 761 -250 q 572 -290 674 -290 q 426 -249 486 -290 q 365 -137 365 -208 q 428 -15 365 -67 q 163 81 260 -3 q 67 321 67 165 l 67 738 l 422 738 l 422 357 q 425 313 422 329 q 442 283 428 297 q 483 268 456 268 q 525 283 511 268 q 542 313 539 297 q 544 357 544 329 z "},"Ŵ":{"ha":1635,"x_min":-7,"x_max":1642,"o":"m 818 1224 l 594 1139 l 500 1306 l 818 1479 l 1136 1306 l 1042 1139 l 818 1224 m 683 0 l 351 0 l -7 1047 l 388 1047 l 519 436 l 671 1047 l 963 1047 l 1106 436 l 1246 1047 l 1642 1047 l 1279 0 l 940 0 l 817 569 l 683 0 z "},"ŵ":{"ha":1318,"x_min":-21,"x_max":1339,"o":"m 660 875 l 436 790 l 342 957 l 660 1131 l 978 957 l 883 790 l 660 875 m 571 0 l 278 0 l -21 738 l 357 738 l 442 328 l 542 738 l 776 738 l 881 328 l 963 738 l 1339 738 l 1036 0 l 747 0 l 660 328 l 571 0 z "},"Ŷ":{"ha":1068,"x_min":-14,"x_max":1082,"o":"m 535 1224 l 311 1139 l 217 1306 l 535 1479 l 853 1306 l 758 1139 l 535 1224 m 724 0 l 351 0 l 351 451 l -14 1047 l 417 1047 l 540 774 l 654 1047 l 1082 1047 l 724 451 l 724 0 z "},"ŷ":{"ha":958,"x_min":-8,"x_max":967,"o":"m 703 790 l 479 875 l 256 790 l 161 957 l 479 1131 l 797 957 l 703 790 m 481 342 l 590 738 l 967 738 l 494 -304 l 117 -304 l 306 76 l -8 738 l 378 738 l 481 342 z "},"Ÿ":{"ha":1068,"x_min":-14,"x_max":1082,"o":"m 452 1194 q 430 1172 452 1194 q 343 1150 408 1150 q 233 1194 278 1150 q 189 1303 189 1238 q 233 1413 189 1368 q 343 1457 278 1457 q 452 1413 408 1457 q 496 1303 496 1368 q 452 1194 496 1239 m 837 1194 q 815 1172 837 1194 q 728 1150 793 1150 q 618 1194 663 1150 q 574 1303 574 1238 q 618 1413 574 1368 q 728 1457 663 1457 q 837 1413 793 1457 q 881 1303 881 1368 q 837 1194 881 1238 m 724 0 l 351 0 l 351 451 l -14 1047 l 417 1047 l 540 774 l 654 1047 l 1082 1047 l 724 451 l 724 0 z "},"Ź":{"ha":1054,"x_min":-14,"x_max":1051,"o":"m 778 1322 l 507 1122 l 325 1222 l 535 1493 l 778 1322 m 1006 0 l -14 0 l -14 4 l 451 731 l 76 731 l 76 1047 l 1051 1047 l 1051 1044 l 596 324 l 1006 324 l 1006 0 z "},"ź":{"ha":851,"x_min":28,"x_max":824,"o":"m 717 990 l 446 790 l 264 890 l 474 1161 l 717 990 m 806 0 l 28 0 l 28 50 l 317 461 l 64 461 l 64 738 l 824 738 l 824 696 l 531 276 l 806 276 l 806 0 z "},"Ż":{"ha":1054,"x_min":-14,"x_max":1051,"o":"m 688 1194 q 659 1172 688 1194 q 547 1150 631 1150 q 407 1194 464 1150 q 350 1324 350 1238 q 406 1449 350 1403 q 547 1496 461 1496 q 689 1449 633 1496 q 744 1324 744 1403 q 688 1194 744 1238 m 1006 0 l -14 0 l -14 4 l 451 731 l 76 731 l 76 1047 l 1051 1047 l 1051 1044 l 596 324 l 1006 324 l 1006 0 z "},"ż":{"ha":851,"x_min":28,"x_max":824,"o":"m 578 853 q 549 832 578 853 q 438 810 521 810 q 297 853 354 810 q 240 983 240 897 q 296 1109 240 1063 q 438 1156 351 1156 q 579 1109 524 1156 q 635 983 635 1063 q 578 853 635 897 m 806 0 l 28 0 l 28 50 l 317 461 l 64 461 l 64 738 l 824 738 l 824 696 l 531 276 l 806 276 l 806 0 z "},"Ž":{"ha":1054,"x_min":-14,"x_max":1051,"o":"m 865 1310 l 547 1136 l 229 1310 l 324 1476 l 547 1392 l 771 1476 l 865 1310 m 1006 0 l -14 0 l -14 4 l 451 731 l 76 731 l 76 1047 l 1051 1047 l 1051 1044 l 596 324 l 1006 324 l 1006 0 z "},"ž":{"ha":851,"x_min":28,"x_max":824,"o":"m 756 964 l 438 790 l 119 964 l 214 1131 l 438 1046 l 661 1131 l 756 964 m 806 0 l 28 0 l 28 50 l 317 461 l 64 461 l 64 738 l 824 738 l 824 696 l 531 276 l 806 276 l 806 0 z "},"Ə":{"ha":1249,"x_min":49,"x_max":1200,"o":"m 628 1064 q 1035 914 871 1064 q 1200 522 1200 764 q 1037 130 1200 276 q 628 -17 874 -17 q 197 149 344 -17 q 49 608 49 315 l 49 617 l 801 617 q 736 712 781 678 q 633 746 692 746 q 453 664 507 746 l 115 790 q 313 988 171 911 q 628 1064 456 1064 m 628 278 q 789 383 738 278 l 451 383 q 628 278 494 278 z "},"ƒ":{"ha":742,"x_min":-14,"x_max":728,"o":"m 668 867 q 620 845 633 867 q 599 772 607 824 l 593 738 l 679 738 l 633 478 l 549 478 l 474 32 q 440 -115 458 -58 q 387 -218 421 -172 q 298 -284 353 -264 q 161 -304 243 -304 q -14 -286 71 -304 l -14 -4 q 46 -15 13 -15 q 94 6 81 -15 q 115 79 107 28 l 182 478 l 111 478 l 156 738 l 226 738 l 240 819 q 274 967 256 910 q 327 1069 293 1024 q 416 1135 361 1115 q 553 1156 471 1156 q 728 1138 643 1156 l 728 856 q 668 867 701 867 z "},"Ǵ":{"ha":1246,"x_min":49,"x_max":1197,"o":"m 854 1322 l 583 1122 l 401 1222 l 611 1493 l 854 1322 m 626 -17 q 214 128 379 -17 q 49 517 49 272 q 213 915 49 767 q 629 1064 376 1064 q 940 994 796 1064 q 1143 794 1085 924 l 788 664 q 629 744 740 744 q 485 681 538 744 q 432 515 432 617 q 485 353 432 419 q 628 288 538 288 q 782 368 753 288 l 782 369 l 610 369 l 610 624 l 1197 624 l 1197 567 q 1044 138 1197 293 q 626 -17 892 -17 z "},"ǵ":{"ha":1000,"x_min":49,"x_max":931,"o":"m 781 990 l 510 790 l 328 890 l 538 1161 l 781 990 m 481 -319 q 178 -246 293 -319 q 51 -19 64 -172 l 342 -19 q 465 -99 364 -99 q 558 -58 524 -99 q 593 58 593 -17 l 593 147 l 590 147 q 487 56 538 86 q 365 25 436 25 q 135 132 221 25 q 49 386 49 239 q 138 644 49 535 q 375 754 226 754 q 582 650 504 754 l 585 650 l 581 738 l 931 738 l 931 101 q 895 -90 931 -7 q 797 -222 860 -172 q 656 -295 735 -271 q 481 -319 576 -319 m 497 278 q 563 305 536 278 q 590 375 590 332 q 563 447 590 419 q 497 474 536 474 q 429 447 454 474 q 404 375 404 419 q 429 304 404 331 q 497 278 454 278 z "},"Ǻ":{"ha":1131,"x_min":-14,"x_max":1144,"o":"m 553 1808 l 796 1638 l 525 1438 l 343 1538 l 553 1808 m 417 1128 q 385 1151 417 1128 q 354 1256 354 1174 q 417 1384 354 1338 q 564 1431 479 1431 q 711 1384 649 1431 q 774 1256 774 1338 q 711 1128 774 1174 q 564 1083 649 1083 q 417 1128 479 1083 m 609 1214 q 618 1222 609 1214 q 628 1257 628 1231 q 609 1300 628 1283 q 564 1317 590 1317 q 519 1300 538 1317 q 500 1257 500 1283 q 519 1214 500 1231 q 564 1197 538 1197 q 609 1214 590 1197 m 1144 0 l 732 0 l 700 135 l 414 135 l 379 0 l -14 0 l 350 1047 l 771 1047 l 1144 0 m 518 536 l 479 385 l 640 385 l 604 533 l 563 714 q 518 536 553 669 z "},"ǻ":{"ha":1010,"x_min":40,"x_max":939,"o":"m 792 1378 l 521 1178 l 339 1278 l 549 1549 l 792 1378 m 660 851 q 628 828 660 851 q 513 806 597 806 q 365 851 428 806 q 303 978 303 896 q 365 1106 303 1060 q 513 1153 428 1153 q 660 1106 597 1153 q 722 978 722 1060 q 660 851 722 896 m 472 940 q 480 932 472 940 q 513 925 489 925 q 553 940 536 925 q 571 979 571 954 q 553 1019 571 1004 q 513 1033 536 1033 q 472 1019 489 1033 q 454 979 454 1004 q 472 940 454 954 m 365 -17 q 128 95 215 -17 q 40 365 40 207 q 131 639 40 524 q 375 754 221 754 q 590 650 513 754 l 593 650 l 589 738 l 939 738 l 939 0 l 589 0 l 593 97 l 590 97 q 486 11 536 39 q 365 -17 436 -17 m 423 292 q 436 278 423 292 q 496 264 450 264 q 570 292 542 264 q 599 368 599 321 q 570 444 599 415 q 496 474 542 474 q 423 445 450 474 q 396 368 396 417 q 423 292 396 321 z "},"Ǽ":{"ha":1440,"x_min":-14,"x_max":1454,"o":"m 964 1322 l 693 1122 l 511 1222 l 721 1493 l 964 1322 m 386 0 l -14 0 l 351 1047 l 1082 1047 l 1185 761 l 872 761 l 904 665 l 1218 665 l 1314 393 l 1004 393 l 1040 286 l 1354 286 l 1454 0 l 740 0 l 704 133 l 419 133 l 386 0 m 536 576 l 485 379 l 640 379 l 586 576 q 567 697 572 628 l 556 697 q 536 576 549 631 z "},"ǽ":{"ha":1433,"x_min":38,"x_max":1392,"o":"m 751 1161 l 994 990 l 724 790 l 542 890 l 751 1161 m 1392 342 q 1390 308 1392 319 l 868 308 q 954 182 868 182 q 1003 199 982 182 q 1031 243 1024 217 l 1375 243 q 1220 51 1340 118 q 960 -17 1100 -17 q 665 96 772 -17 q 542 8 613 35 q 354 -18 471 -18 q 126 48 214 -18 q 38 226 38 114 q 124 406 38 342 q 354 469 211 469 q 546 431 472 469 l 546 442 q 411 542 546 542 q 221 501 318 542 l 143 686 q 479 753 294 753 q 719 678 633 753 q 960 754 822 754 q 1271 647 1150 754 q 1392 342 1392 539 m 869 461 l 1038 461 q 1015 530 1036 503 q 954 557 993 557 q 894 530 915 557 q 869 461 872 503 m 389 182 q 402 171 389 182 q 456 160 415 160 q 522 182 496 160 q 549 240 549 204 q 522 298 549 276 q 456 319 496 319 q 389 298 415 319 q 363 240 363 276 q 389 182 363 204 z "},"Ǿ":{"ha":1256,"x_min":36,"x_max":1219,"o":"m 615 1493 l 858 1322 l 588 1122 l 406 1222 l 615 1493 m 1133 1139 l 1219 1064 l 1058 894 q 1207 521 1207 743 q 1041 130 1207 276 q 628 -17 875 -17 q 283 78 432 -17 l 122 -92 l 36 -11 l 192 151 q 49 521 49 299 q 216 913 49 761 q 628 1064 383 1064 q 969 967 821 1064 l 1133 1139 m 432 521 q 453 425 432 467 l 721 706 q 628 728 679 728 q 485 668 539 728 q 432 521 432 608 m 824 521 q 801 624 824 575 l 533 340 q 628 319 574 319 q 769 375 715 319 q 824 521 824 431 z "},"ǿ":{"ha":986,"x_min":42,"x_max":944,"o":"m 529 1161 l 772 990 l 501 790 l 319 890 l 529 1161 m 932 749 l 829 642 q 944 369 944 538 q 817 82 944 181 q 493 -17 689 -17 q 242 36 347 -17 l 125 -85 l 54 -14 l 157 93 q 42 369 42 194 q 170 653 42 553 q 493 754 299 754 q 744 699 638 754 l 861 819 l 932 749 m 393 369 q 396 339 393 358 l 539 486 q 493 499 518 499 q 420 463 447 499 q 393 369 393 428 m 493 239 q 566 275 539 239 q 593 369 593 311 q 592 397 593 388 l 449 250 q 493 239 471 239 z "},"Ș":{"ha":906,"x_min":21,"x_max":871,"o":"m 442 -17 q 21 108 190 -17 l 151 364 q 406 264 285 264 q 490 317 490 264 q 468 351 490 339 q 392 378 446 363 q 388 379 389 379 q 383 381 386 379 q 378 382 381 382 q 266 424 314 401 q 169 484 218 447 q 95 578 121 521 q 69 710 69 636 q 185 966 69 868 q 483 1064 301 1064 q 851 974 693 1064 l 717 714 q 522 783 629 783 q 450 736 450 783 q 478 699 450 714 q 565 668 507 685 q 586 663 579 665 q 795 549 719 622 q 871 340 871 476 q 752 81 871 179 q 442 -17 633 -17 m 614 -50 l 450 -304 l 213 -304 l 318 -50 l 614 -50 z "},"ș":{"ha":769,"x_min":28,"x_max":721,"o":"m 364 -21 q 28 76 176 -21 l 135 293 q 331 213 233 213 q 382 240 382 213 q 366 261 382 254 q 310 275 350 268 q 74 492 74 314 q 172 691 74 626 q 418 756 269 756 q 693 697 588 756 l 608 479 q 451 535 542 535 q 396 507 396 535 q 401 494 396 499 q 419 485 406 489 q 446 478 432 481 q 489 469 460 475 q 660 403 600 450 q 721 254 721 357 q 624 52 721 125 q 364 -21 528 -21 m 532 -50 l 368 -304 l 131 -304 l 236 -50 l 532 -50 z "},"Ț":{"ha":836,"x_min":18,"x_max":818,"o":"m 608 0 l 228 0 l 228 711 l 18 711 l 18 1047 l 818 1047 l 818 711 l 608 711 l 608 0 m 579 -50 l 415 -304 l 178 -304 l 283 -50 l 579 -50 z "},"ț":{"ha":626,"x_min":13,"x_max":614,"o":"m 489 0 l 131 0 l 131 450 l 13 450 l 13 738 l 131 738 l 131 975 l 489 975 l 489 738 l 614 738 l 614 450 l 489 450 l 489 0 m 475 -50 l 311 -304 l 74 -304 l 179 -50 l 475 -50 z "},"ȷ":{"ha":497,"x_min":69,"x_max":428,"o":"m 428 -304 l 69 -304 l 69 738 l 428 738 l 428 -304 z "},"ə":{"ha":960,"x_min":42,"x_max":918,"o":"m 474 754 q 794 656 669 754 q 918 375 918 557 q 794 88 918 193 q 488 -17 671 -17 q 166 91 290 -17 q 42 396 42 199 q 43 429 42 418 l 565 429 q 479 556 565 556 q 431 538 451 556 q 403 494 410 521 l 58 494 q 213 687 93 619 q 474 754 333 754 m 419 208 q 430 194 419 208 q 479 181 440 181 q 540 208 518 181 q 564 276 561 235 l 396 276 q 419 208 397 235 z "},"ʼ":{"ha":514,"x_min":69,"x_max":486,"o":"m 486 1047 l 335 793 l 69 793 l 140 1047 l 486 1047 z "},"ˆ":{"ha":579,"x_min":-28,"x_max":608,"o":"m 290 875 l 67 790 l -28 957 l 290 1131 l 608 957 l 514 790 l 290 875 z "},"ˇ":{"ha":581,"x_min":-28,"x_max":608,"o":"m 608 964 l 290 790 l -28 964 l 67 1131 l 290 1046 l 514 1131 l 608 964 z "},"ˉ":{"ha":604,"x_min":56,"x_max":549,"o":"m 549 847 l 56 847 l 56 1007 l 549 1007 l 549 847 z "},"˘":{"ha":579,"x_min":-14,"x_max":593,"o":"m 289 808 q 77 882 158 808 q -14 1078 -4 956 l 178 1078 q 289 994 199 994 q 400 1078 379 994 l 593 1078 q 500 890 586 972 q 289 808 414 808 z "},"˙":{"ha":511,"x_min":58,"x_max":453,"o":"m 396 853 q 367 832 396 853 q 256 810 339 810 q 115 853 172 810 q 58 983 58 897 q 114 1109 58 1063 q 256 1156 169 1156 q 397 1109 342 1156 q 453 983 453 1063 q 396 853 453 897 z "},"˚":{"ha":483,"x_min":32,"x_max":451,"o":"m 389 837 q 358 814 389 837 q 242 792 326 792 q 94 837 157 792 q 32 964 32 882 q 94 1092 32 1046 q 242 1139 157 1139 q 389 1092 326 1139 q 451 964 451 1046 q 389 837 451 882 m 197 922 q 206 914 197 922 q 242 906 215 906 q 287 922 268 906 q 306 965 306 939 q 287 1008 306 992 q 242 1025 268 1025 q 197 1008 215 1025 q 178 965 178 992 q 197 922 178 939 z "},"˛":{"ha":583,"x_min":108,"x_max":463,"o":"m 304 -304 q 167 -263 225 -304 q 108 -151 108 -222 q 322 40 108 -26 l 433 17 q 324 -48 351 -21 q 296 -103 296 -75 q 310 -135 296 -122 q 347 -149 324 -149 q 415 -133 382 -149 l 463 -264 q 304 -304 393 -304 z "},"˜":{"ha":628,"x_min":-25,"x_max":653,"o":"m 428 811 q 303 856 386 811 q 199 901 221 901 q 117 824 154 901 l -25 921 q 77 1055 17 1001 q 211 1108 138 1108 q 324 1063 258 1108 q 418 1018 389 1018 q 457 1033 439 1018 q 482 1060 475 1047 q 500 1096 489 1072 l 653 1013 q 428 811 557 811 z "},"˝":{"ha":593,"x_min":-49,"x_max":656,"o":"m 317 1064 l 153 789 l -49 824 l 50 1103 l 317 1064 m 656 1064 l 478 789 l 276 824 l 389 1103 l 656 1064 z "},"̀":{"ha":0,"x_min":-453,"x_max":0,"o":"m 0 890 l -182 790 l -453 990 l -210 1161 l 0 890 z "},"́":{"ha":0,"x_min":-411,"x_max":42,"o":"m 42 990 l -229 790 l -411 890 l -201 1161 l 42 990 z "},"̂":{"ha":0,"x_min":-607,"x_max":29,"o":"m -289 875 l -512 790 l -607 957 l -289 1131 l 29 957 l -65 790 l -289 875 z "},"̃":{"ha":0,"x_min":-653,"x_max":25,"o":"m -200 811 q -324 856 -242 811 q -429 901 -407 901 q -511 824 -474 901 l -653 921 q -551 1055 -611 1001 q -417 1108 -490 1108 q -304 1063 -369 1108 q -210 1018 -239 1018 q -171 1033 -189 1018 q -146 1060 -153 1047 q -128 1096 -139 1072 l 25 1013 q -200 811 -71 811 z "},"̄":{"ha":0,"x_min":-569,"x_max":-35,"o":"m -35 847 l -569 847 l -569 1049 l -35 1049 l -35 847 z "},"̆":{"ha":0,"x_min":-593,"x_max":14,"o":"m -290 808 q -502 882 -421 808 q -593 1078 -583 956 l -401 1078 q -290 994 -381 994 q -179 1078 -200 994 l 14 1078 q -79 890 7 972 q -290 808 -165 808 z "},"̇":{"ha":0,"x_min":-453,"x_max":-58,"o":"m -115 853 q -144 832 -115 853 q -256 810 -172 810 q -396 853 -339 810 q -453 983 -453 897 q -397 1109 -453 1063 q -256 1156 -342 1156 q -114 1109 -169 1156 q -58 983 -58 1063 q -115 853 -58 897 z "},"̈":{"ha":0,"x_min":-651,"x_max":-1,"o":"m -511 806 q -611 846 -571 806 q -651 944 -651 886 q -611 1044 -651 1004 q -511 1085 -571 1085 q -412 1044 -453 1085 q -372 944 -372 1004 q -412 846 -372 886 q -511 806 -453 806 m -41 846 q -61 826 -41 846 q -140 806 -81 806 q -240 846 -200 806 q -281 944 -281 886 q -240 1044 -281 1004 q -140 1085 -200 1085 q -41 1044 -81 1085 q -1 944 -1 1004 q -41 846 -1 886 z "},"̊":{"ha":0,"x_min":-451,"x_max":-32,"o":"m -94 851 q -126 828 -94 851 q -242 806 -157 806 q -389 851 -326 806 q -451 978 -451 896 q -389 1106 -451 1060 q -242 1153 -326 1153 q -94 1106 -157 1153 q -32 978 -32 1060 q -94 851 -32 896 m -283 940 q -274 932 -283 940 q -242 925 -265 925 q -201 940 -218 925 q -183 979 -183 954 q -201 1019 -183 1004 q -242 1033 -218 1033 q -283 1019 -265 1033 q -300 979 -300 1004 q -283 940 -300 954 z "},"̋":{"ha":0,"x_min":-642,"x_max":63,"o":"m -276 1064 l -440 789 l -642 824 l -543 1103 l -276 1064 m 63 1064 l -115 789 l -317 824 l -204 1103 l 63 1064 z "},"̌":{"ha":0,"x_min":-608,"x_max":28,"o":"m 28 964 l -290 790 l -608 964 l -514 1131 l -290 1046 l -67 1131 l 28 964 z "},"̒":{"ha":0,"x_min":-429,"x_max":-42,"o":"m -42 1131 l -161 835 l -429 835 l -279 1131 l -42 1131 z "},"̓":{"ha":0,"x_min":-615,"x_max":-87,"o":"m -87 1047 l -336 529 l -615 529 l -447 1047 l -87 1047 z "},"̣":{"ha":0,"x_min":-454,"x_max":-60,"o":"m -117 -397 q -145 -418 -117 -397 q -257 -440 -174 -440 q -397 -397 -340 -440 q -454 -267 -454 -353 q -399 -141 -454 -187 q -257 -94 -343 -94 q -115 -141 -171 -94 q -60 -267 -60 -187 q -117 -397 -60 -353 z "},"̤":{"ha":0,"x_min":-625,"x_max":-28,"o":"m -497 -371 q -588 -334 -551 -371 q -625 -244 -625 -297 q -588 -153 -625 -190 q -497 -117 -551 -117 q -408 -153 -444 -117 q -371 -244 -371 -190 q -408 -334 -371 -297 q -497 -371 -444 -371 m -64 -334 q -82 -352 -64 -334 q -154 -371 -100 -371 q -245 -334 -208 -371 q -282 -244 -282 -297 q -245 -153 -282 -190 q -154 -117 -208 -117 q -64 -153 -100 -117 q -28 -244 -28 -190 q -64 -334 -28 -297 z "},"̥":{"ha":0,"x_min":-451,"x_max":-32,"o":"m -94 -413 q -126 -436 -94 -413 q -242 -458 -157 -458 q -389 -413 -326 -458 q -451 -286 -451 -368 q -389 -158 -451 -204 q -242 -111 -326 -111 q -94 -158 -157 -111 q -32 -286 -32 -204 q -94 -413 -32 -368 m -287 -328 q -277 -336 -287 -328 q -242 -344 -268 -344 q -197 -328 -215 -344 q -178 -285 -178 -311 q -197 -242 -178 -258 q -242 -225 -215 -225 q -287 -242 -268 -225 q -306 -285 -306 -258 q -287 -328 -306 -311 z "},"̦":{"ha":0,"x_min":-474,"x_max":-72,"o":"m -72 -50 l -236 -304 l -474 -304 l -368 -50 l -72 -50 z "},"̧":{"ha":0,"x_min":-399,"x_max":-47,"o":"m -47 -135 l -267 -324 l -399 -240 l -222 -7 l -47 -135 z "},"̨":{"ha":0,"x_min":-510,"x_max":-114,"o":"m -303 -304 q -449 -263 -389 -304 q -510 -151 -510 -222 q -451 -33 -510 -86 q -268 40 -393 21 l -157 17 q -281 -82 -281 -33 q -267 -110 -281 -99 q -229 -121 -253 -121 q -161 -106 -194 -121 l -114 -264 q -303 -304 -201 -304 z "},"̮":{"ha":0,"x_min":-593,"x_max":14,"o":"m -290 -372 q -502 -299 -421 -372 q -593 -103 -583 -225 l -401 -103 q -290 -186 -381 -186 q -179 -103 -200 -186 l 14 -103 q -79 -290 7 -208 q -290 -372 -165 -372 z "},"̱":{"ha":0,"x_min":-576,"x_max":-28,"o":"m -28 -347 l -576 -347 l -576 -146 l -28 -146 l -28 -347 z "},"̵":{"ha":0,"x_min":-500,"x_max":-42,"o":"m -500 381 l -42 381 l -42 333 l -500 333 l -500 381 z "},"̶":{"ha":0,"x_min":-653,"x_max":-42,"o":"m -653 381 l -42 381 l -42 333 l -653 333 l -653 381 z "},"ʹ":{"ha":578,"x_min":29,"x_max":557,"o":"m 557 1047 l 308 529 l 29 529 l 197 1047 l 557 1047 z "},"͵":{"ha":578,"x_min":6,"x_max":533,"o":"m 533 300 l 285 -218 l 6 -218 l 174 300 l 533 300 z "},";":{"ha":578,"x_min":6,"x_max":533,"o":"m 464 453 q 433 429 464 453 q 319 406 401 406 q 175 453 238 406 q 113 578 113 500 q 175 706 113 657 q 319 754 238 754 q 464 706 401 754 q 526 578 526 657 q 464 453 526 500 m 533 300 l 285 -218 l 6 -218 l 174 300 l 533 300 z "},"΄":{"ha":583,"x_min":114,"x_max":492,"o":"m 333 813 l 114 813 l 203 1092 l 492 1092 l 333 813 z "},"΅":{"ha":861,"x_min":88,"x_max":775,"o":"m 457 804 l 342 804 l 381 1139 l 581 1139 l 457 804 m 290 840 q 273 824 290 840 q 206 808 256 808 q 122 840 156 808 q 88 926 88 872 q 122 1013 88 981 q 206 1044 156 1044 q 290 1013 256 1044 q 324 926 324 981 q 290 840 324 872 m 741 840 q 724 824 741 840 q 657 808 707 808 q 573 840 607 808 q 539 926 539 872 q 573 1013 539 981 q 657 1044 607 1044 q 741 1013 707 1044 q 775 926 775 981 q 741 840 775 872 z "},"Ά":{"ha":1131,"x_min":-104,"x_max":1144,"o":"m -15 1047 l 274 1047 l 115 754 l -104 754 l -15 1047 m 1144 0 l 732 0 l 700 135 l 414 135 l 379 0 l -14 0 l 350 1047 l 771 1047 l 1144 0 m 518 536 l 479 385 l 640 385 l 604 533 l 563 714 q 518 536 553 669 z "},"·":{"ha":578,"x_min":82,"x_max":496,"o":"m 433 453 q 402 429 433 453 q 289 406 371 406 q 144 453 207 406 q 82 578 82 500 q 144 706 82 657 q 289 754 207 754 q 433 706 371 754 q 496 578 496 657 q 433 453 496 500 z "},"Έ":{"ha":854,"x_min":-312,"x_max":792,"o":"m -93 754 l -312 754 l -224 1047 l 65 1047 l -93 754 m 792 0 l 76 0 l 76 1047 l 781 1047 l 781 761 l 443 761 l 443 665 l 753 665 l 753 393 l 443 393 l 443 286 l 792 286 l 792 0 z "},"Ή":{"ha":1119,"x_min":-312,"x_max":1043,"o":"m -93 754 l -312 754 l -224 1047 l 65 1047 l -93 754 m 443 0 l 76 0 l 76 1047 l 443 1047 l 443 694 l 676 694 l 676 1047 l 1043 1047 l 1043 0 l 676 0 l 676 364 l 443 364 l 443 0 z "},"Ί":{"ha":519,"x_min":-312,"x_max":443,"o":"m -93 754 l -312 754 l -224 1047 l 65 1047 l -93 754 m 443 0 l 76 0 l 76 1047 l 443 1047 l 443 0 z "},"Ό":{"ha":1256,"x_min":-215,"x_max":1207,"o":"m 1041 130 q 958 57 1041 130 q 628 -17 875 -17 q 215 130 381 -17 q 49 521 49 276 q 216 913 49 761 q 628 1064 383 1064 q 1040 913 872 1064 q 1207 521 1207 761 q 1041 130 1207 276 m 4 754 l -215 754 l -126 1047 l 163 1047 l 4 754 m 486 375 q 513 347 486 375 q 628 319 540 319 q 769 375 715 319 q 824 521 824 431 q 770 668 824 608 q 628 728 717 728 q 485 668 539 728 q 432 521 432 608 q 486 375 432 431 z "},"Ύ":{"ha":1068,"x_min":-382,"x_max":1082,"o":"m 540 774 l 654 1047 l 1082 1047 l 724 451 l 724 0 l 351 0 l 351 451 l -8 1039 l -162 754 l -382 754 l -293 1047 l 417 1047 l 540 774 z "},"Ώ":{"ha":1289,"x_min":-200,"x_max":1225,"o":"m 1072 286 l 1225 286 l 1225 0 l 704 0 l 704 282 q 797 392 768 338 q 826 526 826 447 q 773 674 826 618 q 644 729 719 729 q 516 674 569 729 q 463 526 463 618 q 492 392 463 447 q 585 282 521 336 l 585 0 l 64 0 l 64 286 l 217 286 q 81 579 81 403 q 240 926 81 788 q 644 1065 400 1065 q 1049 926 889 1065 q 1208 579 1208 788 q 1072 286 1208 403 m -200 754 l -111 1047 l 178 1047 l 19 754 l -200 754 z "},"ΐ":{"ha":535,"x_min":-81,"x_max":607,"o":"m 289 804 l 174 804 l 213 1139 l 413 1139 l 289 804 m 122 840 q 105 824 122 840 q 38 808 88 808 q -47 840 -12 808 q -81 926 -81 872 q -47 1013 -81 981 q 38 1044 -12 1044 q 122 1013 88 1044 q 156 926 156 981 q 122 840 156 872 m 573 840 q 556 824 573 840 q 489 808 539 808 q 405 840 439 808 q 371 926 371 872 q 405 1013 371 981 q 489 1044 439 1044 q 573 1013 539 1044 q 607 926 607 981 q 573 840 607 872 m 326 -17 q 69 206 69 -17 l 69 738 l 428 738 l 428 278 q 468 225 428 225 q 522 244 496 225 l 522 32 q 326 -17 454 -17 z "},"Α":{"ha":1131,"x_min":-14,"x_max":1144,"o":"m 1144 0 l 732 0 l 700 135 l 414 135 l 379 0 l -14 0 l 350 1047 l 771 1047 l 1144 0 m 518 536 l 479 385 l 640 385 l 604 533 l 563 714 q 518 536 553 669 z "},"Β":{"ha":1022,"x_min":76,"x_max":978,"o":"m 594 0 l 76 0 l 76 1047 l 497 1047 q 651 1034 582 1047 q 778 991 719 1021 q 869 907 836 961 q 901 776 901 853 q 864 638 901 699 q 771 553 826 578 l 771 551 q 978 289 978 482 q 952 169 978 222 q 888 86 926 117 q 796 35 849 56 q 694 8 743 15 q 594 0 644 0 m 429 794 l 429 644 l 443 644 q 561 721 561 644 q 535 778 561 761 q 449 794 510 794 l 429 794 m 429 424 l 429 250 l 472 250 q 526 252 506 250 q 572 261 546 254 q 612 287 599 268 q 625 336 625 306 q 601 395 625 375 q 551 419 578 415 q 479 424 524 424 l 429 424 z "},"Γ":{"ha":781,"x_min":76,"x_max":763,"o":"m 443 0 l 76 0 l 76 1047 l 763 1047 l 763 714 l 443 714 l 443 0 z "},"Δ":{"ha":1143,"x_min":-8,"x_max":1150,"o":"m 1150 0 l -8 0 l 356 1047 l 776 1047 l 1150 0 m 542 614 l 438 250 l 704 250 l 603 614 q 572 733 582 683 q 542 614 561 679 z "},"Ε":{"ha":854,"x_min":76,"x_max":792,"o":"m 792 0 l 76 0 l 76 1047 l 781 1047 l 781 761 l 443 761 l 443 665 l 753 665 l 753 393 l 443 393 l 443 286 l 792 286 l 792 0 z "},"Ζ":{"ha":1054,"x_min":-14,"x_max":1051,"o":"m 1006 0 l -14 0 l -14 4 l 451 731 l 76 731 l 76 1047 l 1051 1047 l 1051 1044 l 596 324 l 1006 324 l 1006 0 z "},"Η":{"ha":1119,"x_min":76,"x_max":1043,"o":"m 443 0 l 76 0 l 76 1047 l 443 1047 l 443 694 l 676 694 l 676 1047 l 1043 1047 l 1043 0 l 676 0 l 676 364 l 443 364 l 443 0 z "},"Θ":{"ha":1256,"x_min":49,"x_max":1207,"o":"m 1041 130 q 958 57 1041 130 q 628 -17 875 -17 q 215 130 381 -17 q 49 521 49 276 q 216 913 49 761 q 628 1064 383 1064 q 1040 913 872 1064 q 1207 521 1207 761 q 1041 130 1207 276 m 486 369 q 513 342 486 369 q 628 314 540 314 q 769 369 715 314 q 824 515 824 425 q 769 660 824 601 q 628 719 715 719 q 486 660 540 719 q 432 515 432 601 q 486 369 432 425 m 769 415 l 486 415 l 486 626 l 769 626 l 769 415 z "},"Ι":{"ha":519,"x_min":76,"x_max":443,"o":"m 443 0 l 76 0 l 76 1047 l 443 1047 l 443 0 z "},"Κ":{"ha":1119,"x_min":76,"x_max":1133,"o":"m 1133 0 l 692 0 l 439 463 l 447 0 l 76 0 l 76 1047 l 447 1047 l 439 593 l 683 1047 l 1099 1047 l 779 528 l 1133 0 z "},"Λ":{"ha":1131,"x_min":-14,"x_max":1144,"o":"m 389 0 l -14 0 l 354 1047 l 776 1047 l 1144 0 l 742 0 l 565 699 l 389 0 z "},"Μ":{"ha":1461,"x_min":21,"x_max":1440,"o":"m 828 0 l 606 0 l 446 563 l 379 0 l 21 0 l 190 1047 l 582 1047 l 732 511 l 881 1047 l 1268 1047 l 1440 0 l 1063 0 l 1004 563 l 828 0 z "},"Ν":{"ha":1203,"x_min":76,"x_max":1126,"o":"m 783 478 l 763 1047 l 1126 1047 l 1126 0 l 763 0 l 428 551 l 440 0 l 76 0 l 76 1047 l 442 1047 l 783 478 z "},"Ξ":{"ha":958,"x_min":63,"x_max":896,"o":"m 882 761 l 76 761 l 76 1047 l 882 1047 l 882 761 m 811 404 l 147 404 l 147 654 l 811 654 l 811 404 m 896 0 l 63 0 l 63 286 l 896 286 l 896 0 z "},"Ο":{"ha":1256,"x_min":49,"x_max":1207,"o":"m 1041 130 q 958 57 1041 130 q 628 -17 875 -17 q 215 130 381 -17 q 49 521 49 276 q 216 913 49 761 q 628 1064 383 1064 q 1040 913 872 1064 q 1207 521 1207 761 q 1041 130 1207 276 m 486 375 q 513 347 486 375 q 628 319 540 319 q 769 375 715 319 q 824 521 824 431 q 770 668 824 608 q 628 728 717 728 q 485 668 539 728 q 432 521 432 608 q 486 375 432 431 z "},"Π":{"ha":1092,"x_min":76,"x_max":1015,"o":"m 451 0 l 76 0 l 76 1047 l 1015 1047 l 1015 0 l 640 0 l 640 717 l 451 717 l 451 0 z "},"Ρ":{"ha":1013,"x_min":76,"x_max":983,"o":"m 443 0 l 76 0 l 76 1047 l 558 1047 q 865 951 747 1047 q 983 678 983 854 q 865 398 983 494 q 558 301 747 301 l 443 301 l 443 0 m 443 761 l 443 579 l 494 579 q 617 675 617 579 q 493 761 617 761 l 443 761 z "},"Σ":{"ha":940,"x_min":-14,"x_max":885,"o":"m 883 0 l -14 0 l 317 525 l -12 1047 l 885 1047 l 885 761 l 532 761 l 681 525 l 531 286 l 883 286 l 883 0 z "},"Τ":{"ha":836,"x_min":18,"x_max":818,"o":"m 608 0 l 228 0 l 228 711 l 18 711 l 18 1047 l 818 1047 l 818 711 l 608 711 l 608 0 z "},"Υ":{"ha":1068,"x_min":-14,"x_max":1082,"o":"m 724 0 l 351 0 l 351 451 l -14 1047 l 417 1047 l 540 774 l 654 1047 l 1082 1047 l 724 451 l 724 0 z "},"Φ":{"ha":1417,"x_min":44,"x_max":1372,"o":"m 1372 529 q 1244 227 1372 342 q 883 81 1115 113 l 883 -19 l 533 -19 l 533 79 q 174 225 303 110 q 44 535 44 340 q 173 835 44 721 q 533 981 301 949 l 533 1072 l 883 1072 l 883 981 q 1244 836 1115 951 q 1372 529 1372 721 m 863 707 l 863 354 q 1014 531 1014 401 q 863 707 1014 660 m 403 532 q 554 354 403 403 l 554 707 q 442 638 482 683 q 403 532 403 593 z "},"Χ":{"ha":1154,"x_min":-6,"x_max":1160,"o":"m 428 0 l -6 0 l 361 557 l 32 1047 l 461 1047 l 575 813 l 685 1047 l 1114 1047 l 786 557 l 1160 0 l 726 0 l 578 286 l 428 0 z "},"Ψ":{"ha":1433,"x_min":69,"x_max":1364,"o":"m 881 0 l 553 0 l 553 178 q 367 208 451 182 q 215 287 283 235 q 108 429 146 339 q 69 640 69 519 l 69 1047 l 394 1047 l 394 669 q 432 516 394 563 q 553 467 469 469 l 553 1047 l 881 1047 l 881 467 q 1001 516 964 469 q 1039 669 1039 563 l 1039 1047 l 1364 1047 l 1364 640 q 1326 429 1364 519 q 1219 287 1288 339 q 1066 208 1150 235 q 881 178 982 182 l 881 0 z "},"Ω":{"ha":1289,"x_min":64,"x_max":1225,"o":"m 1072 286 l 1225 286 l 1225 0 l 704 0 l 704 282 q 797 392 768 338 q 826 526 826 447 q 773 674 826 618 q 644 729 719 729 q 516 674 569 729 q 463 526 463 618 q 492 392 463 447 q 585 282 521 336 l 585 0 l 64 0 l 64 286 l 217 286 q 81 579 81 403 q 240 926 81 788 q 644 1065 400 1065 q 1049 926 889 1065 q 1208 579 1208 788 q 1072 286 1208 403 z "},"Ϊ":{"ha":519,"x_min":-86,"x_max":606,"o":"m 177 1194 q 155 1172 177 1194 q 68 1150 133 1150 q -42 1194 3 1150 q -86 1303 -86 1238 q -42 1413 -86 1368 q 68 1457 3 1457 q 177 1413 133 1457 q 221 1303 221 1368 q 177 1194 221 1239 m 562 1194 q 540 1172 562 1194 q 453 1150 518 1150 q 343 1194 388 1150 q 299 1303 299 1238 q 343 1413 299 1368 q 453 1457 388 1457 q 562 1413 518 1457 q 606 1303 606 1368 q 562 1194 606 1238 m 443 0 l 76 0 l 76 1047 l 443 1047 l 443 0 z "},"Ϋ":{"ha":1068,"x_min":-14,"x_max":1082,"o":"m 452 1194 q 430 1172 452 1194 q 343 1150 408 1150 q 233 1194 278 1150 q 189 1303 189 1238 q 233 1413 189 1368 q 343 1457 278 1457 q 452 1413 408 1457 q 496 1303 496 1368 q 452 1194 496 1239 m 837 1194 q 815 1172 837 1194 q 728 1150 793 1150 q 618 1194 663 1150 q 574 1303 574 1238 q 618 1413 574 1368 q 728 1457 663 1457 q 837 1413 793 1457 q 881 1303 881 1368 q 837 1194 881 1238 m 724 0 l 351 0 l 351 451 l -14 1047 l 417 1047 l 540 774 l 654 1047 l 1082 1047 l 724 451 l 724 0 z "},"ά":{"ha":1010,"x_min":40,"x_max":939,"o":"m 601 813 l 382 813 l 471 1092 l 760 1092 l 601 813 m 365 -17 q 128 95 215 -17 q 40 365 40 207 q 131 639 40 524 q 375 754 221 754 q 590 650 513 754 l 593 650 l 589 738 l 939 738 l 939 0 l 589 0 l 593 97 l 590 97 q 486 11 536 39 q 365 -17 436 -17 m 423 292 q 436 278 423 292 q 496 264 450 264 q 570 292 542 264 q 599 368 599 321 q 570 444 599 415 q 496 474 542 474 q 423 445 450 474 q 396 368 396 417 q 423 292 396 321 z "},"έ":{"ha":764,"x_min":42,"x_max":718,"o":"m 381 1092 l 669 1092 l 511 813 l 292 813 l 381 1092 m 497 206 q 626 228 564 206 q 718 276 688 250 l 718 28 q 415 -17 588 -17 q 137 43 232 -17 q 42 211 42 103 q 178 388 42 326 q 72 542 72 442 q 167 698 72 642 q 424 754 261 754 q 694 719 578 754 l 694 497 q 608 524 665 513 q 510 536 550 536 q 418 501 418 536 q 514 463 418 463 l 606 463 l 606 290 l 486 290 q 392 250 392 290 q 497 206 392 206 z "},"ή":{"ha":974,"x_min":69,"x_max":907,"o":"m 586 813 l 367 813 l 456 1092 l 744 1092 l 586 813 m 907 -282 l 549 -282 l 549 360 q 547 412 549 393 q 531 447 544 431 q 493 464 518 464 q 440 435 453 464 q 428 353 428 407 l 428 0 l 69 0 l 69 738 l 419 738 l 411 619 l 414 619 q 520 722 469 689 q 651 754 571 754 q 844 670 781 754 q 907 454 907 586 l 907 -282 z "},"ί":{"ha":535,"x_min":69,"x_max":522,"o":"m 361 813 l 142 813 l 231 1092 l 519 1092 l 361 813 m 326 -17 q 69 206 69 -17 l 69 738 l 428 738 l 428 278 q 468 225 428 225 q 522 244 496 225 l 522 32 q 326 -17 454 -17 z "},"ΰ":{"ha":967,"x_min":67,"x_max":900,"o":"m 508 804 l 393 804 l 432 1139 l 632 1139 l 508 804 m 341 840 q 324 824 341 840 q 257 808 307 808 q 173 840 207 808 q 139 926 139 872 q 173 1013 139 981 q 257 1044 207 1044 q 341 1013 307 1044 q 375 926 375 981 q 341 840 375 872 m 792 840 q 775 824 792 840 q 708 808 758 808 q 624 840 658 808 q 590 926 590 872 q 624 1013 590 981 q 708 1044 658 1044 q 792 1013 758 1044 q 826 926 826 981 q 792 840 826 872 m 787 68 q 730 26 787 68 q 483 -17 674 -17 q 180 68 293 -17 q 67 321 67 153 l 67 738 l 422 738 l 422 357 q 425 313 422 329 q 442 283 428 297 q 483 268 456 268 q 525 283 511 268 q 542 313 539 297 q 544 357 544 329 l 544 738 l 900 738 l 900 321 q 787 68 900 153 z "},"α":{"ha":1010,"x_min":40,"x_max":939,"o":"m 365 -17 q 128 95 215 -17 q 40 365 40 207 q 131 639 40 524 q 375 754 221 754 q 590 650 513 754 l 593 650 l 589 738 l 939 738 l 939 0 l 589 0 l 593 97 l 590 97 q 486 11 536 39 q 365 -17 436 -17 m 423 292 q 436 278 423 292 q 496 264 450 264 q 570 292 542 264 q 599 368 599 321 q 570 444 599 415 q 496 474 542 474 q 423 445 450 474 q 396 368 396 417 q 423 292 396 321 z "},"β":{"ha":1050,"x_min":69,"x_max":1008,"o":"m 428 -282 l 69 -282 l 69 753 q 557 1138 69 1138 q 865 1056 757 1138 q 974 832 974 974 q 923 683 974 750 q 774 597 872 617 l 774 594 q 948 498 888 571 q 1008 310 1008 425 q 913 74 1008 164 q 678 -17 817 -17 q 431 68 526 -17 l 428 68 l 428 -282 m 549 231 q 628 263 597 231 q 660 342 660 296 q 617 443 660 408 q 510 478 574 478 l 468 478 l 468 692 l 508 692 q 606 719 571 692 q 642 799 642 747 q 614 866 642 839 q 538 893 586 893 q 457 859 486 893 q 428 757 428 825 l 428 365 q 460 267 428 303 q 549 231 493 231 z "},"γ":{"ha":953,"x_min":-8,"x_max":961,"o":"m 656 -282 l 297 -282 l 308 15 l -8 738 l 376 738 l 478 389 l 576 738 l 961 738 l 644 10 l 656 -282 z "},"δ":{"ha":986,"x_min":42,"x_max":944,"o":"m 644 857 l 654 846 q 753 742 728 769 q 828 656 779 715 q 895 560 878 596 q 928 472 913 525 q 944 364 944 419 q 819 90 944 197 q 494 -17 694 -17 q 167 88 292 -17 q 42 364 42 193 q 136 607 42 507 q 385 731 231 707 l 342 774 l 118 999 l 118 1126 l 922 1126 l 922 850 l 644 857 m 418 292 q 433 278 418 292 q 493 264 447 264 q 568 292 539 264 q 597 369 597 321 q 568 446 597 418 q 493 474 539 474 q 418 445 447 474 q 389 369 389 417 q 418 292 389 321 z "},"ε":{"ha":764,"x_min":42,"x_max":718,"o":"m 497 206 q 626 228 564 206 q 718 276 688 250 l 718 28 q 415 -17 588 -17 q 137 43 232 -17 q 42 211 42 103 q 178 388 42 326 q 72 542 72 442 q 167 698 72 642 q 424 754 261 754 q 694 719 578 754 l 694 497 q 608 524 665 513 q 510 536 550 536 q 418 501 418 536 q 514 463 418 463 l 606 463 l 606 290 l 486 290 q 392 250 392 290 q 497 206 392 206 z "},"ζ":{"ha":810,"x_min":42,"x_max":810,"o":"m 810 1126 l 810 1001 l 551 704 q 428 538 463 601 q 393 403 393 475 q 398 365 393 382 q 415 331 403 347 q 437 303 428 315 q 469 276 446 292 q 503 254 492 261 q 542 231 514 247 q 582 207 571 214 q 719 93 669 156 q 769 -75 769 31 q 711 -310 769 -211 l 410 -310 q 452 -225 442 -253 q 463 -164 463 -197 q 418 -75 463 -117 q 289 11 374 -33 q 218 52 246 35 q 153 100 190 69 q 94 163 115 131 q 58 244 74 196 q 42 347 42 292 q 94 568 42 472 q 271 799 147 664 l 324 856 l 86 850 l 86 1126 l 810 1126 z "},"η":{"ha":974,"x_min":69,"x_max":907,"o":"m 907 -282 l 549 -282 l 549 360 q 547 412 549 393 q 531 447 544 431 q 493 464 518 464 q 440 435 453 464 q 428 353 428 407 l 428 0 l 69 0 l 69 738 l 419 738 l 411 619 l 414 619 q 520 722 469 689 q 651 754 571 754 q 844 670 781 754 q 907 454 907 586 l 907 -282 z "},"θ":{"ha":1000,"x_min":46,"x_max":954,"o":"m 499 1140 q 954 558 954 1140 q 499 -17 954 -17 q 46 558 46 -17 q 499 1140 46 1140 m 569 822 q 557 843 569 822 q 500 864 544 864 q 431 822 456 864 q 397 678 406 781 l 603 678 q 569 822 594 781 m 500 260 q 572 303 546 260 q 604 456 597 346 l 396 456 q 428 303 403 346 q 500 260 453 260 z "},"ι":{"ha":535,"x_min":69,"x_max":522,"o":"m 326 -17 q 69 206 69 -17 l 69 738 l 428 738 l 428 278 q 468 225 428 225 q 522 244 496 225 l 522 32 q 326 -17 454 -17 z "},"κ":{"ha":1010,"x_min":69,"x_max":1008,"o":"m 724 376 l 1008 0 l 586 0 l 438 264 l 428 260 l 428 0 l 69 0 l 69 738 l 428 738 l 428 464 l 586 738 l 994 738 l 724 376 z "},"λ":{"ha":961,"x_min":-8,"x_max":969,"o":"m 519 1126 l 969 0 l 597 0 l 486 353 l 378 0 l -8 0 l 311 696 l 129 1126 l 519 1126 z "},"μ":{"ha":978,"x_min":69,"x_max":908,"o":"m 400 -304 l 69 -304 l 69 738 l 428 738 l 428 335 q 446 283 428 301 q 490 264 464 264 q 533 283 515 264 q 550 335 550 301 l 550 738 l 908 738 l 908 0 l 578 0 l 565 46 l 563 46 q 486 -8 536 -8 q 408 43 433 -8 l 406 43 l 400 -304 z "},"ν":{"ha":953,"x_min":-8,"x_max":961,"o":"m 640 0 l 315 0 l -8 738 l 376 738 l 478 389 l 576 738 l 961 738 l 640 0 z "},"ξ":{"ha":781,"x_min":42,"x_max":767,"o":"m 700 -282 l 396 -282 q 447 -154 447 -207 q 404 -60 447 -99 q 281 19 361 -21 q 192 69 228 46 q 119 127 157 92 q 61 210 81 163 q 42 315 42 257 q 121 495 42 424 q 338 586 200 567 l 338 590 q 165 681 231 614 q 99 846 99 747 q 214 1063 99 985 q 528 1140 329 1140 q 767 1114 650 1140 l 767 839 q 576 878 679 878 q 474 851 513 878 q 436 781 436 825 q 488 716 436 740 q 625 692 539 692 l 715 692 l 715 456 l 608 456 q 407 356 407 456 q 411 329 407 342 q 426 306 415 317 q 445 286 436 294 q 474 267 454 278 q 505 251 493 257 q 544 232 517 244 q 585 213 571 219 q 754 -69 754 132 q 700 -282 754 -189 z "},"ο":{"ha":986,"x_min":42,"x_max":944,"o":"m 817 82 q 753 33 817 82 q 493 -17 689 -17 q 169 82 297 -17 q 42 369 42 181 q 170 653 42 553 q 493 754 299 754 q 816 653 688 754 q 944 369 944 553 q 817 82 944 181 m 420 295 q 434 281 420 295 q 493 267 447 267 q 566 295 539 267 q 593 369 593 324 q 566 443 593 415 q 493 471 539 471 q 420 443 447 471 q 393 369 393 415 q 420 295 393 324 z "},"π":{"ha":982,"x_min":13,"x_max":969,"o":"m 761 -17 q 542 206 542 -17 l 542 460 l 436 460 l 436 0 l 117 0 l 117 457 l 13 457 l 13 738 l 969 738 l 969 458 l 863 458 l 863 278 q 903 225 863 225 q 957 244 931 225 l 957 32 q 761 -17 889 -17 z "},"ρ":{"ha":1001,"x_min":67,"x_max":960,"o":"m 507 754 q 838 647 715 754 q 960 369 960 540 q 865 92 960 199 q 607 -14 771 -14 q 425 40 488 -14 l 425 -282 l 67 -282 l 67 342 q 181 644 67 533 q 507 754 294 754 m 508 267 q 583 294 554 267 q 613 369 613 322 q 583 446 613 418 q 508 474 554 474 q 433 446 461 474 q 404 369 404 418 q 433 294 404 321 q 508 267 461 267 z "},"ς":{"ha":761,"x_min":42,"x_max":756,"o":"m 701 -282 l 397 -282 q 446 -164 446 -201 q 409 -94 446 -125 q 264 -15 372 -64 q 90 129 139 40 q 42 353 42 218 q 162 644 42 533 q 482 754 282 754 q 717 717 625 754 l 717 432 q 544 472 629 472 q 431 437 474 472 q 389 346 389 401 q 424 263 389 297 q 560 181 460 228 q 756 -62 756 86 q 701 -282 756 -168 z "},"σ":{"ha":1044,"x_min":42,"x_max":1032,"o":"m 493 -17 q 167 85 293 -17 q 42 360 42 188 q 161 636 42 535 q 488 738 281 738 l 1032 738 l 1032 457 l 914 457 l 914 453 q 940 335 940 400 q 815 83 940 183 q 493 -17 689 -17 m 417 292 q 432 278 417 292 q 493 264 446 264 q 569 294 540 264 q 597 371 597 324 q 572 457 597 419 l 499 457 q 419 431 450 457 q 389 364 389 406 q 417 292 389 321 z "},"τ":{"ha":711,"x_min":13,"x_max":699,"o":"m 424 -17 q 231 42 296 -17 q 167 233 167 100 l 167 457 l 13 457 l 13 738 l 699 738 l 699 457 l 525 457 l 525 292 q 578 225 525 225 q 647 243 608 225 l 647 24 q 424 -17 564 -17 z "},"υ":{"ha":967,"x_min":67,"x_max":900,"o":"m 787 68 q 730 26 787 68 q 483 -17 674 -17 q 180 68 293 -17 q 67 321 67 153 l 67 738 l 422 738 l 422 357 q 425 313 422 329 q 442 283 428 297 q 483 268 456 268 q 525 283 511 268 q 542 313 539 297 q 544 357 544 329 l 544 738 l 900 738 l 900 321 q 787 68 900 153 z "},"φ":{"ha":1301,"x_min":46,"x_max":1260,"o":"m 810 -282 l 493 -282 l 493 -10 q 46 367 46 33 q 144 624 46 524 q 424 753 243 725 l 447 508 q 369 376 369 469 q 493 225 369 257 l 493 738 l 811 738 q 981 719 903 738 q 1122 660 1058 700 q 1223 549 1186 619 q 1260 382 1260 478 q 1144 114 1260 211 q 810 -8 1028 17 l 810 -282 m 810 521 l 810 225 q 908 281 881 243 q 936 379 936 319 q 901 487 936 453 q 818 521 867 521 l 810 521 z "},"χ":{"ha":976,"x_min":0,"x_max":975,"o":"m 685 256 l 975 -282 l 593 -282 l 483 24 l 382 -282 l 0 -282 l 281 256 l 25 738 l 404 738 l 488 486 l 576 738 l 956 738 l 685 256 z "},"ψ":{"ha":1297,"x_min":67,"x_max":1231,"o":"m 911 454 l 911 738 l 1231 738 l 1231 414 q 1133 117 1231 224 q 807 -14 1035 11 l 807 -282 l 490 -282 l 490 -14 q 167 119 267 13 q 67 414 67 226 l 67 738 l 386 738 l 386 454 q 410 315 386 365 q 490 243 433 265 l 490 1022 l 807 1022 l 807 242 q 888 313 865 263 q 911 454 911 363 z "},"ω":{"ha":1244,"x_min":42,"x_max":1203,"o":"m 754 518 l 864 757 q 1116 598 1029 707 q 1203 332 1203 489 q 1113 70 1203 157 q 893 -17 1022 -17 q 721 25 792 -17 q 622 138 650 67 q 521 25 590 67 q 351 -17 451 -17 q 132 70 222 -17 q 42 332 42 157 q 128 598 42 489 q 379 757 214 707 l 489 518 q 374 353 374 461 q 429 251 374 251 q 474 281 458 251 q 490 360 490 310 l 490 467 l 754 467 l 754 360 q 815 251 754 251 q 856 277 840 251 q 871 353 871 303 q 754 518 871 461 z "},"ϊ":{"ha":535,"x_min":-61,"x_max":589,"o":"m 79 806 q -21 846 19 806 q -61 944 -61 886 q -21 1044 -61 1004 q 79 1085 19 1085 q 178 1044 138 1085 q 218 944 218 1004 q 178 846 218 886 q 79 806 138 806 m 549 846 q 530 826 549 846 q 450 806 510 806 q 350 846 390 806 q 310 944 310 886 q 350 1044 310 1004 q 450 1085 390 1085 q 549 1044 510 1085 q 589 944 589 1004 q 549 846 589 886 m 326 -17 q 69 206 69 -17 l 69 738 l 428 738 l 428 278 q 468 225 428 225 q 522 244 496 225 l 522 32 q 326 -17 454 -17 z "},"ϋ":{"ha":967,"x_min":67,"x_max":900,"o":"m 299 806 q 199 846 239 806 q 158 944 158 886 q 199 1044 158 1004 q 299 1085 239 1085 q 397 1044 357 1085 q 438 944 438 1004 q 397 846 438 886 q 299 806 357 806 m 769 846 q 749 826 769 846 q 669 806 729 806 q 569 846 610 806 q 529 944 529 886 q 569 1044 529 1004 q 669 1085 610 1085 q 769 1044 729 1085 q 808 944 808 1004 q 769 846 808 886 m 787 68 q 730 26 787 68 q 483 -17 674 -17 q 180 68 293 -17 q 67 321 67 153 l 67 738 l 422 738 l 422 357 q 425 313 422 329 q 442 283 428 297 q 483 268 456 268 q 525 283 511 268 q 542 313 539 297 q 544 357 544 329 l 544 738 l 900 738 l 900 321 q 787 68 900 153 z "},"ό":{"ha":986,"x_min":42,"x_max":944,"o":"m 590 813 l 371 813 l 460 1092 l 749 1092 l 590 813 m 817 82 q 753 33 817 82 q 493 -17 689 -17 q 169 82 297 -17 q 42 369 42 181 q 170 653 42 553 q 493 754 299 754 q 816 653 688 754 q 944 369 944 553 q 817 82 944 181 m 420 295 q 434 281 420 295 q 493 267 447 267 q 566 295 539 267 q 593 369 593 324 q 566 443 593 415 q 493 471 539 471 q 420 443 447 471 q 393 369 393 415 q 420 295 393 324 z "},"ύ":{"ha":967,"x_min":67,"x_max":900,"o":"m 581 813 l 361 813 l 450 1092 l 739 1092 l 581 813 m 787 68 q 730 26 787 68 q 483 -17 674 -17 q 180 68 293 -17 q 67 321 67 153 l 67 738 l 422 738 l 422 357 q 425 313 422 329 q 442 283 428 297 q 483 268 456 268 q 525 283 511 268 q 542 313 539 297 q 544 357 544 329 l 544 738 l 900 738 l 900 321 q 787 68 900 153 z "},"ώ":{"ha":1244,"x_min":42,"x_max":1203,"o":"m 589 1092 l 878 1092 l 719 813 l 500 813 l 589 1092 m 754 518 l 864 757 q 1116 598 1029 707 q 1203 332 1203 489 q 1113 70 1203 157 q 893 -17 1022 -17 q 721 25 792 -17 q 622 138 650 67 q 521 25 590 67 q 351 -17 451 -17 q 132 70 222 -17 q 42 332 42 157 q 128 598 42 489 q 379 757 214 707 l 489 518 q 374 353 374 461 q 429 251 374 251 q 474 281 458 251 q 490 360 490 310 l 490 467 l 754 467 l 754 360 q 815 251 754 251 q 856 277 840 251 q 871 353 871 303 q 754 518 871 461 z "},"Ѐ":{"ha":854,"x_min":76,"x_max":792,"o":"m 611 1222 l 429 1122 l 158 1322 l 401 1493 l 611 1222 m 792 0 l 76 0 l 76 1047 l 781 1047 l 781 761 l 443 761 l 443 665 l 753 665 l 753 393 l 443 393 l 443 286 l 792 286 l 792 0 z "},"Ё":{"ha":854,"x_min":76,"x_max":792,"o":"m 347 1194 q 325 1172 347 1194 q 238 1150 303 1150 q 128 1194 172 1150 q 83 1303 83 1238 q 128 1413 83 1368 q 238 1457 172 1457 q 347 1413 303 1457 q 390 1303 390 1368 q 347 1194 390 1239 m 731 1194 q 709 1172 731 1194 q 622 1150 688 1150 q 513 1194 557 1150 q 468 1303 468 1238 q 513 1413 468 1368 q 622 1457 557 1457 q 731 1413 688 1457 q 775 1303 775 1368 q 731 1194 775 1238 m 792 0 l 76 0 l 76 1047 l 781 1047 l 781 761 l 443 761 l 443 665 l 753 665 l 753 393 l 443 393 l 443 286 l 792 286 l 792 0 z "},"Ђ":{"ha":1157,"x_min":18,"x_max":1128,"o":"m 738 -4 q 656 0 694 -4 l 656 204 q 676 203 664 203 q 761 268 761 203 q 658 335 761 335 q 575 329 608 335 l 575 0 l 208 0 l 208 750 l 18 750 l 18 1047 l 818 1047 l 818 750 l 575 750 l 575 618 q 758 629 669 629 q 1033 549 938 629 q 1128 319 1128 469 q 738 -4 1128 -4 z "},"Ѓ":{"ha":781,"x_min":76,"x_max":763,"o":"m 671 1322 l 400 1122 l 218 1222 l 428 1493 l 671 1322 m 443 0 l 76 0 l 76 1047 l 763 1047 l 763 714 l 443 714 l 443 0 z "},"Є":{"ha":918,"x_min":49,"x_max":863,"o":"m 742 394 l 464 394 q 644 292 524 292 q 863 361 764 292 l 851 32 q 581 -17 747 -17 q 203 137 357 -17 q 49 514 49 290 q 208 903 49 743 q 596 1064 367 1064 q 851 1021 726 1064 l 863 676 q 639 756 750 756 q 464 656 524 756 l 742 656 l 742 394 z "},"Ѕ":{"ha":906,"x_min":21,"x_max":871,"o":"m 442 -17 q 21 108 190 -17 l 151 364 q 406 264 285 264 q 490 317 490 264 q 468 351 490 339 q 392 378 446 363 q 388 379 389 379 q 383 381 386 379 q 378 382 381 382 q 266 424 314 401 q 169 484 218 447 q 95 578 121 521 q 69 710 69 636 q 185 966 69 868 q 483 1064 301 1064 q 851 974 693 1064 l 717 714 q 522 783 629 783 q 450 736 450 783 q 478 699 450 714 q 565 668 507 685 q 586 663 579 665 q 795 549 719 622 q 871 340 871 476 q 752 81 871 179 q 442 -17 633 -17 z "},"І":{"ha":519,"x_min":76,"x_max":443,"o":"m 443 0 l 76 0 l 76 1047 l 443 1047 l 443 0 z "},"Ї":{"ha":519,"x_min":-86,"x_max":606,"o":"m 177 1194 q 155 1172 177 1194 q 68 1150 133 1150 q -42 1194 3 1150 q -86 1303 -86 1238 q -42 1413 -86 1368 q 68 1457 3 1457 q 177 1413 133 1457 q 221 1303 221 1368 q 177 1194 221 1239 m 562 1194 q 540 1172 562 1194 q 453 1150 518 1150 q 343 1194 388 1150 q 299 1303 299 1238 q 343 1413 299 1368 q 453 1457 388 1457 q 562 1413 518 1457 q 606 1303 606 1368 q 562 1194 606 1238 m 443 0 l 76 0 l 76 1047 l 443 1047 l 443 0 z "},"Ј":{"ha":739,"x_min":0,"x_max":669,"o":"m 313 -17 q 0 97 125 -17 l 121 399 q 231 324 178 324 q 297 425 297 324 l 297 1047 l 669 1047 l 669 353 q 572 83 669 183 q 313 -17 475 -17 z "},"Љ":{"ha":1625,"x_min":-8,"x_max":1596,"o":"m 163 -11 q -8 15 74 -11 l 42 318 q 100 308 68 308 q 163 349 142 308 q 194 483 185 390 l 251 1047 l 1074 1047 l 1074 697 l 1193 697 q 1488 615 1379 697 q 1596 357 1596 532 q 1488 95 1596 190 q 1179 0 1379 0 l 707 0 l 707 717 l 571 717 l 543 428 q 442 81 519 172 q 163 -11 364 -11 m 1074 440 l 1074 267 l 1121 267 q 1211 284 1179 267 q 1243 353 1243 301 q 1119 440 1243 440 l 1074 440 z "},"Њ":{"ha":1614,"x_min":76,"x_max":1585,"o":"m 443 0 l 76 0 l 76 1047 l 443 1047 l 443 694 l 668 694 l 668 1047 l 1035 1047 l 1035 696 l 1182 696 q 1476 614 1368 696 q 1585 357 1585 532 q 1476 95 1585 190 q 1168 0 1368 0 l 668 0 l 668 364 l 443 364 l 443 0 m 1035 440 l 1035 267 l 1096 267 q 1186 284 1154 267 q 1218 353 1218 301 q 1094 440 1218 440 l 1035 440 z "},"Ћ":{"ha":1192,"x_min":18,"x_max":1122,"o":"m 575 0 l 210 0 l 210 750 l 18 750 l 18 1047 l 818 1047 l 818 750 l 575 750 l 575 618 q 786 629 683 629 q 937 609 874 629 q 1035 558 1000 589 q 1090 477 1069 526 q 1117 383 1111 428 q 1122 278 1122 338 l 1122 0 l 751 0 l 751 258 q 733 316 751 297 q 672 335 715 335 q 575 329 608 335 l 575 0 z "},"Ќ":{"ha":1119,"x_min":76,"x_max":1133,"o":"m 549 1493 l 792 1322 l 521 1122 l 339 1222 l 549 1493 m 1133 0 l 692 0 l 439 463 l 447 0 l 76 0 l 76 1047 l 447 1047 l 439 593 l 683 1047 l 1099 1047 l 779 528 l 1133 0 z "},"Ѝ":{"ha":1203,"x_min":76,"x_max":1126,"o":"m 560 1493 l 769 1222 l 588 1122 l 317 1322 l 560 1493 m 419 503 l 756 1047 l 1126 1047 l 1126 0 l 768 0 l 776 553 l 440 0 l 76 0 l 76 1047 l 435 1047 l 419 503 z "},"Ў":{"ha":1136,"x_min":0,"x_max":1150,"o":"m 793 1188 q 752 1153 793 1188 q 574 1118 711 1118 q 354 1188 436 1118 q 244 1363 272 1258 l 458 1400 q 498 1317 471 1343 q 574 1290 525 1290 q 651 1316 628 1290 q 689 1400 675 1342 l 903 1363 q 793 1188 875 1258 m 608 644 l 760 1047 l 1150 1047 l 800 288 q 619 50 721 115 q 365 -15 518 -15 q 56 79 185 -15 l 204 350 q 363 290 279 290 q 444 314 411 290 l 0 1047 l 394 1047 l 608 644 z "},"Џ":{"ha":1075,"x_min":76,"x_max":999,"o":"m 696 -250 l 379 -250 l 379 0 l 76 0 l 76 1047 l 443 1047 l 443 331 l 632 331 l 632 1047 l 999 1047 l 999 0 l 696 0 l 696 -250 z "},"А":{"ha":1131,"x_min":-14,"x_max":1144,"o":"m 1144 0 l 732 0 l 700 135 l 414 135 l 379 0 l -14 0 l 350 1047 l 771 1047 l 1144 0 m 518 536 l 479 385 l 640 385 l 604 533 l 563 714 q 518 536 553 669 z "},"Б":{"ha":1008,"x_min":76,"x_max":968,"o":"m 575 0 l 76 0 l 76 1047 l 822 1047 l 822 761 l 443 761 l 443 657 l 588 657 q 865 579 763 657 q 968 336 968 501 q 866 90 968 179 q 575 0 764 0 m 443 415 l 443 251 l 500 251 q 585 267 554 251 q 615 332 615 283 q 500 415 615 415 l 443 415 z "},"В":{"ha":1022,"x_min":76,"x_max":978,"o":"m 594 0 l 76 0 l 76 1047 l 497 1047 q 651 1034 582 1047 q 778 991 719 1021 q 869 907 836 961 q 901 776 901 853 q 864 638 901 699 q 771 553 826 578 l 771 551 q 978 289 978 482 q 952 169 978 222 q 888 86 926 117 q 796 35 849 56 q 694 8 743 15 q 594 0 644 0 m 429 794 l 429 644 l 443 644 q 561 721 561 644 q 535 778 561 761 q 449 794 510 794 l 429 794 m 429 424 l 429 250 l 472 250 q 526 252 506 250 q 572 261 546 254 q 612 287 599 268 q 625 336 625 306 q 601 395 625 375 q 551 419 578 415 q 479 424 524 424 l 429 424 z "},"Г":{"ha":781,"x_min":76,"x_max":763,"o":"m 443 0 l 76 0 l 76 1047 l 763 1047 l 763 714 l 443 714 l 443 0 z "},"Д":{"ha":1269,"x_min":13,"x_max":1246,"o":"m 329 -250 l 13 -250 l 13 331 l 25 331 q 160 409 121 331 q 222 669 200 488 l 267 1047 l 1085 1047 l 1085 331 l 1246 331 l 1246 -250 l 929 -250 l 929 0 l 329 0 l 329 -250 m 467 331 l 718 331 l 718 717 l 574 717 l 561 603 q 526 416 547 474 q 467 331 504 358 z "},"Е":{"ha":854,"x_min":76,"x_max":792,"o":"m 792 0 l 76 0 l 76 1047 l 781 1047 l 781 761 l 443 761 l 443 665 l 753 665 l 753 393 l 443 393 l 443 286 l 792 286 l 792 0 z "},"Ж":{"ha":1649,"x_min":-6,"x_max":1654,"o":"m 1300 528 l 1654 0 l 1240 0 l 996 446 l 996 0 l 653 0 l 653 446 l 408 0 l -6 0 l 349 528 l 29 1047 l 417 1047 l 653 608 l 653 1047 l 996 1047 l 996 608 l 1232 1047 l 1619 1047 l 1300 528 z "},"З":{"ha":964,"x_min":28,"x_max":919,"o":"m 460 -17 q 220 15 319 -17 q 28 113 121 46 l 176 361 q 290 293 224 319 q 422 267 356 267 q 507 285 475 267 q 539 342 539 304 q 403 413 539 413 l 293 413 l 293 650 l 394 650 q 517 722 517 650 q 415 782 517 782 q 221 721 321 782 l 97 971 q 268 1037 160 1010 q 493 1064 376 1064 q 774 990 678 1064 q 871 778 871 915 q 733 553 871 614 q 872 458 825 525 q 919 306 919 390 q 797 71 919 158 q 460 -17 674 -17 z "},"И":{"ha":1203,"x_min":76,"x_max":1126,"o":"m 419 503 l 756 1047 l 1126 1047 l 1126 0 l 768 0 l 776 553 l 440 0 l 76 0 l 76 1047 l 435 1047 l 419 503 z "},"Й":{"ha":1203,"x_min":76,"x_max":1126,"o":"m 807 1188 q 766 1153 807 1188 q 588 1118 725 1118 q 368 1188 450 1118 q 258 1363 286 1258 l 472 1400 q 512 1317 485 1343 q 588 1290 539 1290 q 665 1316 642 1290 q 703 1400 689 1342 l 917 1363 q 807 1188 889 1258 m 419 503 l 756 1047 l 1126 1047 l 1126 0 l 768 0 l 776 553 l 440 0 l 76 0 l 76 1047 l 435 1047 l 419 503 z "},"К":{"ha":1119,"x_min":76,"x_max":1133,"o":"m 1133 0 l 692 0 l 439 463 l 447 0 l 76 0 l 76 1047 l 447 1047 l 439 593 l 683 1047 l 1099 1047 l 779 528 l 1133 0 z "},"Л":{"ha":1156,"x_min":-8,"x_max":1079,"o":"m 163 -11 q -8 15 74 -11 l 42 318 q 100 308 68 308 q 163 349 142 308 q 194 483 185 390 l 251 1047 l 1079 1047 l 1079 0 l 713 0 l 713 717 l 571 717 l 543 428 q 442 81 519 172 q 163 -11 364 -11 z "},"М":{"ha":1461,"x_min":21,"x_max":1440,"o":"m 828 0 l 606 0 l 446 563 l 379 0 l 21 0 l 190 1047 l 582 1047 l 732 511 l 881 1047 l 1268 1047 l 1440 0 l 1063 0 l 1004 563 l 828 0 z "},"Н":{"ha":1119,"x_min":76,"x_max":1043,"o":"m 443 0 l 76 0 l 76 1047 l 443 1047 l 443 694 l 676 694 l 676 1047 l 1043 1047 l 1043 0 l 676 0 l 676 364 l 443 364 l 443 0 z "},"О":{"ha":1256,"x_min":49,"x_max":1207,"o":"m 1041 130 q 958 57 1041 130 q 628 -17 875 -17 q 215 130 381 -17 q 49 521 49 276 q 216 913 49 761 q 628 1064 383 1064 q 1040 913 872 1064 q 1207 521 1207 761 q 1041 130 1207 276 m 486 375 q 513 347 486 375 q 628 319 540 319 q 769 375 715 319 q 824 521 824 431 q 770 668 824 608 q 628 728 717 728 q 485 668 539 728 q 432 521 432 608 q 486 375 432 431 z "},"П":{"ha":1092,"x_min":76,"x_max":1015,"o":"m 443 0 l 76 0 l 76 1047 l 1015 1047 l 1015 0 l 649 0 l 649 717 l 443 717 l 443 0 z "},"Р":{"ha":1013,"x_min":76,"x_max":983,"o":"m 443 0 l 76 0 l 76 1047 l 558 1047 q 865 951 747 1047 q 983 678 983 854 q 865 398 983 494 q 558 301 747 301 l 443 301 l 443 0 m 443 761 l 443 579 l 494 579 q 617 675 617 579 q 493 761 617 761 l 443 761 z "},"С":{"ha":918,"x_min":49,"x_max":863,"o":"m 581 -17 q 203 137 357 -17 q 49 514 49 290 q 208 903 49 743 q 596 1064 367 1064 q 851 1021 726 1064 l 863 621 q 639 728 751 728 q 497 672 561 728 q 432 524 432 617 q 495 378 432 438 q 644 319 558 319 q 863 417 763 319 l 851 25 q 726 -6 808 6 q 581 -17 644 -17 z "},"Т":{"ha":836,"x_min":18,"x_max":818,"o":"m 608 0 l 228 0 l 228 711 l 18 711 l 18 1047 l 818 1047 l 818 711 l 608 711 l 608 0 z "},"У":{"ha":1136,"x_min":0,"x_max":1150,"o":"m 608 644 l 760 1047 l 1150 1047 l 800 288 q 619 50 721 115 q 365 -15 518 -15 q 56 79 185 -15 l 204 350 q 363 290 279 290 q 444 314 411 290 l 0 1047 l 394 1047 l 608 644 z "},"Ф":{"ha":1417,"x_min":44,"x_max":1372,"o":"m 1372 529 q 1244 227 1372 342 q 883 81 1115 113 l 883 -19 l 533 -19 l 533 79 q 174 225 303 110 q 44 535 44 340 q 173 835 44 721 q 533 981 301 949 l 533 1072 l 883 1072 l 883 981 q 1244 836 1115 951 q 1372 529 1372 721 m 863 707 l 863 354 q 1014 531 1014 401 q 863 707 1014 660 m 403 532 q 554 354 403 403 l 554 707 q 442 638 482 683 q 403 532 403 593 z "},"Х":{"ha":1154,"x_min":-6,"x_max":1160,"o":"m 428 0 l -6 0 l 361 557 l 32 1047 l 461 1047 l 575 813 l 685 1047 l 1114 1047 l 786 557 l 1160 0 l 726 0 l 578 286 l 428 0 z "},"Ц":{"ha":1192,"x_min":76,"x_max":1168,"o":"m 1168 -250 l 854 -250 l 854 0 l 76 0 l 76 1047 l 443 1047 l 443 331 l 640 331 l 640 1047 l 1007 1047 l 1007 331 l 1168 331 l 1168 -250 z "},"Ч":{"ha":1068,"x_min":69,"x_max":992,"o":"m 992 0 l 625 0 l 625 346 q 389 321 517 321 q 149 419 229 321 q 69 703 69 517 l 69 1047 l 436 1047 l 436 747 q 514 643 436 643 q 625 663 592 643 l 625 1047 l 992 1047 l 992 0 z "},"Ш":{"ha":1617,"x_min":76,"x_max":1540,"o":"m 1540 0 l 76 0 l 76 1047 l 438 1047 l 438 331 l 628 331 l 628 1047 l 989 1047 l 989 331 l 1179 331 l 1179 1047 l 1540 1047 l 1540 0 z "},"Щ":{"ha":1725,"x_min":76,"x_max":1701,"o":"m 1701 -250 l 1385 -250 l 1385 0 l 76 0 l 76 1047 l 438 1047 l 438 331 l 628 331 l 628 1047 l 989 1047 l 989 331 l 1179 331 l 1179 1047 l 1540 1047 l 1540 331 l 1701 331 l 1701 -250 z "},"Ъ":{"ha":1182,"x_min":18,"x_max":1153,"o":"m 736 0 l 236 0 l 236 717 l 18 717 l 18 1047 l 603 1047 l 603 697 l 750 697 q 1044 615 936 697 q 1153 357 1153 532 q 1044 95 1153 190 q 736 0 936 0 m 603 440 l 603 267 l 664 267 q 754 284 722 267 q 786 353 786 301 q 663 440 786 440 l 603 440 z "},"Ы":{"ha":1522,"x_min":76,"x_max":1446,"o":"m 549 0 l 76 0 l 76 1047 l 443 1047 l 443 697 l 563 697 q 857 615 749 697 q 965 357 965 532 q 857 95 965 190 q 549 0 749 0 m 1446 0 l 1079 0 l 1079 1047 l 1446 1047 l 1446 0 m 443 440 l 443 267 l 504 267 q 613 353 613 267 q 503 440 613 440 l 443 440 z "},"Ь":{"ha":1022,"x_min":76,"x_max":993,"o":"m 576 0 l 76 0 l 76 1047 l 443 1047 l 443 697 l 590 697 q 885 615 776 697 q 993 357 993 532 q 885 95 993 190 q 576 0 776 0 m 443 440 l 443 267 l 504 267 q 594 284 563 267 q 626 353 626 301 q 503 440 626 440 l 443 440 z "},"Э":{"ha":918,"x_min":56,"x_max":869,"o":"m 322 1064 q 710 903 551 1064 q 869 514 869 743 q 715 137 869 290 q 338 -17 561 -17 q 67 32 171 -17 l 56 361 q 274 292 154 292 q 454 394 394 292 l 176 394 l 176 656 l 454 656 q 279 756 394 756 q 56 676 168 756 l 67 1021 q 322 1064 192 1064 z "},"Ю":{"ha":1710,"x_min":76,"x_max":1661,"o":"m 1096 1064 q 1497 913 1333 1064 q 1661 521 1661 763 q 1499 130 1661 276 q 1096 -17 1336 -17 q 742 90 883 -17 q 554 364 600 196 l 443 364 l 443 0 l 76 0 l 76 1047 l 443 1047 l 443 694 l 560 694 q 749 963 610 861 q 1096 1064 888 1064 m 965 370 q 991 342 965 370 q 1096 314 1017 314 q 1226 370 1175 314 q 1278 515 1278 426 q 1228 660 1278 601 q 1096 719 1178 719 q 964 660 1014 719 q 914 515 914 601 q 965 370 914 426 z "},"Я":{"ha":1029,"x_min":-14,"x_max":953,"o":"m 479 1047 l 953 1047 l 953 0 l 586 0 l 586 322 l 553 322 l 397 0 l -14 0 l 235 378 q 43 683 43 476 q 160 953 43 858 q 479 1047 276 1047 m 535 583 l 594 583 l 594 761 l 532 761 q 441 744 472 761 q 410 671 410 726 q 443 601 410 618 q 535 583 476 583 z "},"а":{"ha":1010,"x_min":40,"x_max":939,"o":"m 365 -17 q 128 95 215 -17 q 40 365 40 207 q 131 639 40 524 q 375 754 221 754 q 590 650 513 754 l 593 650 l 589 738 l 939 738 l 939 0 l 589 0 l 593 97 l 590 97 q 486 11 536 39 q 365 -17 436 -17 m 423 292 q 436 278 423 292 q 496 264 450 264 q 570 292 542 264 q 599 368 599 321 q 570 444 599 415 q 496 474 542 474 q 423 445 450 474 q 396 368 396 417 q 423 292 396 321 z "},"б":{"ha":972,"x_min":50,"x_max":931,"o":"m 504 -17 q 166 118 282 -17 q 50 500 50 253 q 140 903 50 754 q 435 1085 229 1051 q 531 1099 463 1089 q 636 1116 599 1110 q 729 1133 674 1122 q 829 1156 785 1144 l 879 904 q 793 883 844 893 q 703 866 742 872 q 599 851 664 860 q 511 839 533 842 q 383 779 417 825 q 339 618 350 733 l 343 618 q 590 732 419 732 q 840 627 750 732 q 931 381 931 522 q 906 234 931 303 q 831 108 881 165 q 698 17 782 50 q 504 -17 614 -17 m 426 304 q 441 290 426 304 q 497 275 456 275 q 568 304 539 275 q 597 376 597 333 q 569 453 597 421 q 497 485 542 485 q 425 453 453 485 q 397 376 397 422 q 426 304 397 333 z "},"в":{"ha":944,"x_min":69,"x_max":907,"o":"m 585 0 l 69 0 l 69 738 l 564 738 q 776 688 697 738 q 854 542 854 638 q 758 390 854 428 q 907 221 907 339 q 585 0 907 0 m 415 560 l 415 454 l 457 454 q 526 507 526 454 q 461 560 526 560 l 415 560 m 415 299 l 415 176 l 460 176 q 547 238 547 176 q 465 299 547 299 l 415 299 z "},"г":{"ha":665,"x_min":69,"x_max":653,"o":"m 428 0 l 69 0 l 69 738 l 653 738 l 653 460 l 428 460 l 428 0 z "},"д":{"ha":1108,"x_min":3,"x_max":1088,"o":"m 294 -222 l 3 -222 l 3 278 l 40 278 q 122 325 92 278 q 176 494 151 372 l 226 738 l 956 738 l 956 278 l 1088 278 l 1088 -222 l 796 -222 l 796 0 l 294 0 l 294 -222 m 415 278 l 611 278 l 611 471 l 496 471 l 489 428 q 415 278 472 326 z "},"е":{"ha":960,"x_min":42,"x_max":918,"o":"m 918 342 q 917 308 918 319 l 394 308 q 481 182 394 182 q 529 199 508 182 q 557 243 550 217 l 901 243 q 747 51 867 118 q 486 -17 626 -17 q 166 82 290 -17 q 42 363 42 181 q 165 649 42 544 q 472 754 289 754 q 794 647 669 754 q 918 342 918 539 m 396 461 l 564 461 q 541 530 563 503 q 481 557 519 557 q 420 530 442 557 q 396 461 399 503 z "},"ж":{"ha":1450,"x_min":-14,"x_max":1464,"o":"m 367 0 l -14 0 l 271 376 l 0 738 l 367 738 l 553 464 l 553 738 l 897 738 l 897 464 l 1083 738 l 1450 738 l 1179 376 l 1464 0 l 1083 0 l 907 278 l 897 274 l 897 0 l 553 0 l 553 274 l 543 278 l 367 0 z "},"з":{"ha":826,"x_min":21,"x_max":785,"o":"m 396 -17 q 21 78 151 -17 l 132 289 q 343 204 235 204 q 439 249 439 204 q 347 289 439 289 l 269 289 l 269 461 l 319 461 q 415 500 415 461 q 338 535 415 535 q 235 518 290 535 q 147 478 179 501 l 61 685 q 212 734 115 714 q 411 754 308 754 q 660 702 569 754 q 750 553 750 650 q 610 389 750 431 q 785 211 785 353 q 685 44 785 104 q 396 -17 585 -17 z "},"и":{"ha":1015,"x_min":69,"x_max":946,"o":"m 394 432 l 622 738 l 946 738 l 946 0 l 619 0 l 619 317 l 394 0 l 69 0 l 69 738 l 394 738 l 394 432 z "},"й":{"ha":1015,"x_min":69,"x_max":946,"o":"m 726 878 q 685 843 726 878 q 507 808 644 808 q 288 878 369 808 q 178 1053 206 949 l 392 1090 q 431 1007 404 1033 q 507 981 458 981 q 585 1006 561 981 q 622 1090 608 1032 l 836 1053 q 726 878 808 949 m 394 432 l 622 738 l 946 738 l 946 0 l 619 0 l 619 317 l 394 0 l 69 0 l 69 738 l 394 738 l 394 432 z "},"к":{"ha":1010,"x_min":69,"x_max":1008,"o":"m 724 376 l 1008 0 l 586 0 l 438 264 l 428 260 l 428 0 l 69 0 l 69 738 l 428 738 l 428 464 l 586 738 l 994 738 l 724 376 z "},"л":{"ha":1001,"x_min":0,"x_max":935,"o":"m 153 -11 q 0 8 81 -11 l 35 264 q 74 260 53 260 q 132 297 113 260 q 161 418 151 335 l 199 738 l 935 738 l 935 0 l 576 0 l 576 460 l 490 460 l 476 350 q 456 226 467 274 q 424 128 446 178 q 369 51 403 78 q 282 6 336 24 q 153 -11 228 -11 z "},"м":{"ha":1268,"x_min":28,"x_max":1240,"o":"m 708 738 l 1131 738 l 1240 0 l 890 0 l 860 390 l 856 390 l 754 -1 l 514 -1 l 413 390 l 408 390 l 378 0 l 28 0 l 138 738 l 560 738 l 635 346 l 708 738 z "},"н":{"ha":976,"x_min":69,"x_max":907,"o":"m 428 0 l 69 0 l 69 738 l 428 738 l 428 510 l 549 510 l 549 738 l 907 738 l 907 0 l 549 0 l 549 246 l 428 246 l 428 0 z "},"о":{"ha":986,"x_min":42,"x_max":944,"o":"m 817 82 q 753 33 817 82 q 493 -17 689 -17 q 169 82 297 -17 q 42 369 42 181 q 170 653 42 553 q 493 754 299 754 q 816 653 688 754 q 944 369 944 553 q 817 82 944 181 m 420 295 q 434 281 420 295 q 493 267 447 267 q 566 295 539 267 q 593 369 593 324 q 566 443 593 415 q 493 471 539 471 q 420 443 447 471 q 393 369 393 415 q 420 295 393 324 z "},"п":{"ha":976,"x_min":69,"x_max":907,"o":"m 428 0 l 69 0 l 69 738 l 907 738 l 907 0 l 549 0 l 549 460 l 428 460 l 428 0 z "},"р":{"ha":1008,"x_min":71,"x_max":968,"o":"m 429 -304 l 71 -304 l 71 738 l 422 738 l 418 639 l 422 639 q 647 754 497 754 q 885 642 801 754 q 968 369 968 531 q 881 98 968 213 q 639 -17 793 -17 q 512 16 569 -17 q 422 101 454 49 l 421 101 q 429 -71 429 21 l 429 -304 m 440 293 q 454 278 440 293 q 514 264 468 264 q 587 292 560 264 q 614 369 614 321 q 587 445 614 417 q 514 474 560 474 q 440 445 468 474 q 413 369 413 417 q 440 293 413 322 z "},"с":{"ha":693,"x_min":42,"x_max":647,"o":"m 451 -17 q 154 84 267 -17 q 42 365 42 185 q 150 642 42 531 q 422 754 258 754 q 647 717 550 754 l 647 418 q 515 479 575 479 q 434 449 465 479 q 403 369 403 419 q 434 295 403 326 q 514 264 465 264 q 647 321 571 264 l 632 18 q 451 -17 556 -17 z "},"т":{"ha":731,"x_min":13,"x_max":718,"o":"m 544 0 l 186 0 l 186 460 l 13 460 l 13 738 l 718 738 l 718 460 l 544 460 l 544 0 z "},"у":{"ha":958,"x_min":-8,"x_max":967,"o":"m 481 342 l 590 738 l 967 738 l 494 -304 l 117 -304 l 306 76 l -8 738 l 378 738 l 481 342 z "},"ф":{"ha":1294,"x_min":42,"x_max":1253,"o":"m 826 -304 l 468 -304 l 468 -11 q 350 5 406 -7 q 236 44 294 17 q 136 113 178 72 q 68 219 94 153 q 42 369 42 285 q 68 519 42 453 q 136 626 94 585 q 236 694 178 667 q 350 733 294 721 q 468 749 406 744 l 468 1126 l 826 1126 l 826 749 q 944 733 889 744 q 1058 694 1000 721 q 1158 626 1117 667 q 1226 519 1200 585 q 1253 369 1253 453 q 1214 190 1253 265 q 1109 73 1175 114 q 974 13 1043 32 q 826 -11 906 -7 l 826 -304 m 489 242 l 489 493 q 417 455 447 490 q 388 365 388 419 q 416 275 388 306 q 489 242 444 244 m 806 493 l 806 242 q 878 275 850 244 q 907 365 907 306 q 877 455 907 419 q 806 493 847 490 z "},"х":{"ha":1024,"x_min":0,"x_max":1022,"o":"m 718 378 l 1022 0 l 601 0 l 513 161 l 432 0 l 0 0 l 314 385 l 31 738 l 442 738 l 515 583 l 590 738 l 1001 738 l 718 378 z "},"ц":{"ha":1060,"x_min":69,"x_max":1039,"o":"m 1039 -194 l 761 -194 l 761 0 l 69 0 l 69 738 l 428 738 l 428 278 l 549 278 l 549 738 l 907 738 l 907 278 l 1039 278 l 1039 -194 z "},"ч":{"ha":960,"x_min":67,"x_max":890,"o":"m 890 0 l 532 0 l 532 201 q 339 193 440 193 q 130 265 193 193 q 67 444 67 336 l 67 738 l 411 738 l 411 556 q 424 483 411 504 q 475 463 436 463 q 532 467 513 463 l 532 738 l 890 738 l 890 0 z "},"ш":{"ha":1389,"x_min":69,"x_max":1319,"o":"m 1319 0 l 69 0 l 69 738 l 417 738 l 417 278 l 521 278 l 521 738 l 868 738 l 868 278 l 972 278 l 972 738 l 1319 738 l 1319 0 z "},"щ":{"ha":1472,"x_min":69,"x_max":1451,"o":"m 1451 -194 l 1174 -194 l 1174 0 l 69 0 l 69 738 l 417 738 l 417 278 l 521 278 l 521 738 l 868 738 l 868 278 l 972 278 l 972 738 l 1319 738 l 1319 278 l 1451 278 l 1451 -194 z "},"ъ":{"ha":1043,"x_min":13,"x_max":1001,"o":"m 699 0 l 182 0 l 182 460 l 13 460 l 13 738 l 540 738 l 540 511 l 707 511 q 922 451 842 511 q 1001 263 1001 390 q 923 70 1001 140 q 699 0 844 0 m 540 324 l 540 194 l 571 194 q 637 208 614 194 q 660 263 660 222 q 571 324 660 324 l 540 324 z "},"ы":{"ha":1379,"x_min":69,"x_max":1310,"o":"m 572 0 l 69 0 l 69 738 l 428 738 l 428 511 l 581 511 q 795 451 715 511 q 875 263 875 390 q 797 70 875 140 q 572 0 718 0 m 1310 0 l 951 0 l 951 738 l 1310 738 l 1310 0 m 428 324 l 428 194 l 458 194 q 524 208 501 194 q 547 263 547 222 q 458 324 547 324 l 428 324 z "},"ь":{"ha":931,"x_min":69,"x_max":889,"o":"m 586 0 l 69 0 l 69 738 l 428 738 l 428 511 l 594 511 q 809 451 729 511 q 889 263 889 390 q 810 70 889 140 q 586 0 732 0 m 428 324 l 428 194 l 458 194 q 524 208 501 194 q 547 263 547 222 q 458 324 547 324 l 428 324 z "},"э":{"ha":721,"x_min":46,"x_max":679,"o":"m 292 754 q 568 642 457 754 q 679 365 679 529 q 563 84 679 185 q 263 -17 447 -17 q 61 18 168 -17 l 46 278 q 200 210 118 210 q 318 288 286 210 l 122 288 l 122 463 l 308 463 q 193 531 272 531 q 53 457 118 531 l 53 717 q 292 754 168 754 z "},"ю":{"ha":1396,"x_min":69,"x_max":1354,"o":"m 917 754 q 1231 651 1107 754 q 1354 360 1354 547 q 1227 84 1354 185 q 917 -17 1100 -17 q 647 55 757 -17 q 499 246 538 126 l 428 246 l 428 0 l 69 0 l 69 738 l 428 738 l 428 510 l 504 510 q 655 688 547 622 q 917 754 763 754 m 915 264 q 981 298 954 264 q 1007 372 1007 332 q 981 443 1007 413 q 915 474 954 474 q 849 443 872 474 q 826 369 826 413 q 849 294 826 325 q 915 264 872 264 z "},"я":{"ha":960,"x_min":33,"x_max":890,"o":"m 372 738 l 890 738 l 890 0 l 532 0 l 532 210 l 519 210 l 418 0 l 33 0 l 210 251 q 67 481 67 315 q 143 663 67 589 q 372 738 219 738 m 501 411 l 544 411 l 544 536 l 501 536 q 437 523 460 536 q 414 471 414 510 q 501 411 414 411 z "},"ѐ":{"ha":960,"x_min":42,"x_max":918,"o":"m 447 1161 l 657 890 l 475 790 l 204 990 l 447 1161 m 918 342 q 917 308 918 319 l 394 308 q 481 182 394 182 q 529 199 508 182 q 557 243 550 217 l 901 243 q 747 51 867 118 q 486 -17 626 -17 q 166 82 290 -17 q 42 363 42 181 q 165 649 42 544 q 472 754 289 754 q 794 647 669 754 q 918 342 918 539 m 396 461 l 564 461 q 541 530 563 503 q 481 557 519 557 q 420 530 442 557 q 396 461 399 503 z "},"ё":{"ha":960,"x_min":42,"x_max":918,"o":"m 294 806 q 194 846 235 806 q 154 944 154 886 q 194 1044 154 1004 q 294 1085 235 1085 q 393 1044 353 1085 q 433 944 433 1004 q 393 846 433 886 q 294 806 353 806 m 765 846 q 745 826 765 846 q 665 806 725 806 q 565 846 606 806 q 525 944 525 886 q 565 1044 525 1004 q 665 1085 606 1085 q 765 1044 725 1085 q 804 944 804 1004 q 765 846 804 886 m 918 342 q 917 308 918 319 l 394 308 q 481 182 394 182 q 529 199 508 182 q 557 243 550 217 l 901 243 q 747 51 867 118 q 486 -17 626 -17 q 166 82 290 -17 q 42 363 42 181 q 165 649 42 544 q 472 754 289 754 q 794 647 669 754 q 918 342 918 539 m 396 461 l 564 461 q 541 530 563 503 q 481 557 519 557 q 420 530 442 557 q 396 461 399 503 z "},"ђ":{"ha":960,"x_min":0,"x_max":893,"o":"m 576 -307 q 419 -290 513 -307 l 419 -43 q 468 -46 444 -46 q 543 53 543 -46 l 543 381 q 486 468 543 468 q 418 381 418 468 l 418 0 l 60 0 l 60 865 l 0 865 l 0 979 l 60 979 l 60 1126 l 418 1126 l 418 979 l 578 979 l 578 865 l 418 865 l 418 814 q 404 610 418 725 l 407 611 q 521 718 468 682 q 644 754 574 754 q 833 670 774 754 q 893 453 893 586 l 893 28 q 576 -307 893 -307 z "},"ѓ":{"ha":665,"x_min":69,"x_max":654,"o":"m 654 990 l 383 790 l 201 890 l 411 1161 l 654 990 m 428 0 l 69 0 l 69 738 l 653 738 l 653 460 l 428 460 l 428 0 z "},"є":{"ha":713,"x_min":42,"x_max":675,"o":"m 521 210 q 675 278 603 210 l 660 18 q 458 -17 553 -17 q 158 84 274 -17 q 42 365 42 185 q 153 642 42 529 q 429 754 264 754 q 668 717 553 754 l 668 457 q 528 531 603 531 q 413 463 449 531 l 599 463 l 599 288 l 403 288 q 521 210 435 210 z "},"ѕ":{"ha":769,"x_min":28,"x_max":721,"o":"m 364 -21 q 28 76 176 -21 l 135 293 q 331 213 233 213 q 382 240 382 213 q 366 261 382 254 q 310 275 350 268 q 74 492 74 314 q 172 691 74 626 q 418 756 269 756 q 693 697 588 756 l 608 479 q 451 535 542 535 q 396 507 396 535 q 401 494 396 499 q 419 485 406 489 q 446 478 432 481 q 489 469 460 475 q 660 403 600 450 q 721 254 721 357 q 624 52 721 125 q 364 -21 528 -21 z "},"і":{"ha":497,"x_min":51,"x_max":446,"o":"m 389 853 q 360 832 389 853 q 249 810 332 810 q 108 853 165 810 q 51 983 51 897 q 107 1109 51 1063 q 249 1156 163 1156 q 390 1109 335 1156 q 446 983 446 1063 q 389 853 446 897 m 428 0 l 69 0 l 69 738 l 428 738 l 428 0 z "},"ї":{"ha":497,"x_min":-76,"x_max":574,"o":"m 64 806 q -36 846 4 806 q -76 944 -76 886 q -36 1044 -76 1004 q 64 1085 4 1085 q 163 1044 122 1085 q 203 944 203 1004 q 163 846 203 886 q 64 806 122 806 m 534 846 q 514 826 534 846 q 435 806 494 806 q 335 846 375 806 q 294 944 294 886 q 335 1044 294 1004 q 435 1085 375 1085 q 534 1044 494 1085 q 574 944 574 1004 q 534 846 574 886 m 428 0 l 69 0 l 69 738 l 428 738 l 428 0 z "},"ј":{"ha":497,"x_min":51,"x_max":446,"o":"m 389 853 q 360 832 389 853 q 249 810 332 810 q 108 853 165 810 q 51 983 51 897 q 107 1109 51 1063 q 249 1156 163 1156 q 390 1109 335 1156 q 446 983 446 1063 q 389 853 446 897 m 428 -304 l 69 -304 l 69 738 l 428 738 l 428 -304 z "},"љ":{"ha":1424,"x_min":0,"x_max":1382,"o":"m 153 -11 q 0 8 81 -11 l 35 264 q 74 260 53 260 q 132 297 113 260 q 161 418 151 335 l 199 738 l 935 738 l 935 511 l 1088 511 q 1302 451 1222 511 q 1382 263 1382 390 q 1303 70 1382 140 q 1079 0 1225 0 l 576 0 l 576 460 l 490 460 l 476 350 q 456 226 467 274 q 424 128 446 178 q 369 51 403 78 q 282 6 336 24 q 153 -11 228 -11 m 935 324 l 935 194 l 965 194 q 1031 208 1008 194 q 1054 263 1054 222 q 965 324 1054 324 l 935 324 z "},"њ":{"ha":1410,"x_min":69,"x_max":1368,"o":"m 428 0 l 69 0 l 69 738 l 428 738 l 428 496 l 549 496 l 549 738 l 907 738 l 907 496 l 1082 496 q 1291 437 1214 496 q 1368 254 1368 378 q 1292 68 1368 136 q 1074 0 1215 0 l 549 0 l 549 246 l 428 246 l 428 0 m 893 314 l 893 189 l 936 189 q 1001 202 978 189 q 1024 254 1024 215 q 936 314 1024 314 l 893 314 z "},"ћ":{"ha":974,"x_min":0,"x_max":907,"o":"m 651 754 q 844 670 781 754 q 907 454 907 586 l 907 0 l 549 0 l 549 360 q 547 412 549 393 q 531 447 544 431 q 493 464 518 464 q 440 435 453 464 q 428 353 428 407 l 428 0 l 69 0 l 69 861 l 0 861 l 0 986 l 69 986 l 69 1126 l 428 1126 l 428 986 l 601 986 l 601 861 l 428 861 l 428 851 q 411 619 428 760 l 414 619 q 520 722 469 689 q 651 754 571 754 z "},"ќ":{"ha":1010,"x_min":69,"x_max":1008,"o":"m 542 1161 l 785 990 l 514 790 l 332 890 l 542 1161 m 724 376 l 1008 0 l 586 0 l 438 264 l 428 260 l 428 0 l 69 0 l 69 738 l 428 738 l 428 464 l 586 738 l 994 738 l 724 376 z "},"ѝ":{"ha":1015,"x_min":69,"x_max":946,"o":"m 476 1161 l 686 890 l 504 790 l 233 990 l 476 1161 m 394 432 l 622 738 l 946 738 l 946 0 l 619 0 l 619 317 l 394 0 l 69 0 l 69 738 l 394 738 l 394 432 z "},"ў":{"ha":958,"x_min":-8,"x_max":967,"o":"m 697 878 q 656 843 697 878 q 478 808 615 808 q 258 878 340 808 q 149 1053 176 949 l 363 1090 q 402 1007 375 1033 q 478 981 429 981 q 556 1006 532 981 q 593 1090 579 1032 l 807 1053 q 697 878 779 949 m 481 342 l 590 738 l 967 738 l 494 -304 l 117 -304 l 306 76 l -8 738 l 378 738 l 481 342 z "},"џ":{"ha":976,"x_min":69,"x_max":907,"o":"m 628 -194 l 350 -194 l 350 0 l 69 0 l 69 738 l 428 738 l 428 278 l 549 278 l 549 738 l 907 738 l 907 0 l 628 0 l 628 -194 z "},"Ґ":{"ha":794,"x_min":76,"x_max":776,"o":"m 443 0 l 76 0 l 76 1047 l 460 1047 l 460 1257 l 776 1257 l 776 714 l 443 714 l 443 0 z "},"ґ":{"ha":686,"x_min":69,"x_max":674,"o":"m 428 0 l 69 0 l 69 738 l 382 738 l 382 960 l 674 960 l 674 460 l 428 460 l 428 0 z "},"Ғ":{"ha":846,"x_min":0,"x_max":828,"o":"m 828 1047 l 828 714 l 508 714 l 508 567 l 697 567 l 697 336 l 508 336 l 508 0 l 142 0 l 142 336 l 0 336 l 0 567 l 142 567 l 142 1047 l 828 1047 z "},"ғ":{"ha":738,"x_min":0,"x_max":711,"o":"m 711 738 l 711 474 l 486 474 l 486 381 l 636 381 l 636 193 l 486 193 l 486 0 l 128 0 l 128 193 l 0 193 l 0 381 l 128 381 l 128 738 l 711 738 z "},"Җ":{"ha":1708,"x_min":-6,"x_max":1714,"o":"m 1714 -250 l 1397 -250 l 1397 0 l 1250 0 l 1083 358 l 1019 286 l 1019 0 l 653 0 l 653 286 l 589 358 l 422 0 l -6 0 l 343 579 l 29 1047 l 431 1047 l 661 663 l 653 1047 l 1019 1047 l 1011 663 l 1242 1047 l 1643 1047 l 1329 579 l 1464 331 l 1714 331 l 1714 -250 z "},"җ":{"ha":1528,"x_min":0,"x_max":1526,"o":"m 1526 -194 l 1249 -194 l 1249 0 l 1097 0 l 921 278 l 911 274 l 911 0 l 567 0 l 567 274 l 557 278 l 381 0 l 0 0 l 285 376 l 14 738 l 381 738 l 567 464 l 567 738 l 911 738 l 911 464 l 1097 738 l 1464 738 l 1193 376 l 1268 278 l 1526 278 l 1526 -194 z "},"Қ":{"ha":1157,"x_min":76,"x_max":1163,"o":"m 1163 -250 l 846 -250 l 846 0 l 692 0 l 440 461 l 439 461 l 443 0 l 76 0 l 76 1047 l 443 1047 l 439 593 l 683 1047 l 1099 1047 l 779 528 l 913 331 l 1163 331 l 1163 -250 z "},"қ":{"ha":1044,"x_min":69,"x_max":1043,"o":"m 1043 -181 l 765 -181 l 765 0 l 586 0 l 428 279 l 428 0 l 69 0 l 69 738 l 428 738 l 428 449 l 614 738 l 993 738 l 731 376 l 803 278 l 1043 278 l 1043 -181 z "},"Ҝ":{"ha":1213,"x_min":76,"x_max":1226,"o":"m 879 546 l 1226 0 l 799 0 l 614 335 l 614 213 l 486 213 l 486 369 l 443 369 l 443 0 l 76 0 l 76 1047 l 443 1047 l 443 686 l 486 686 l 486 832 l 614 832 l 614 714 l 783 1047 l 1192 1047 l 879 546 z "},"ҝ":{"ha":1183,"x_min":69,"x_max":1182,"o":"m 869 376 l 1182 0 l 769 0 l 599 242 l 599 101 l 485 101 l 485 246 l 428 246 l 428 0 l 69 0 l 69 738 l 428 738 l 428 510 l 485 510 l 485 638 l 599 638 l 599 510 l 606 510 l 764 738 l 1168 738 l 869 376 z "},"Ң":{"ha":1228,"x_min":76,"x_max":1204,"o":"m 1204 -250 l 888 -250 l 888 0 l 675 0 l 675 364 l 443 364 l 443 0 l 76 0 l 76 1047 l 443 1047 l 443 694 l 675 694 l 675 1047 l 1043 1047 l 1043 331 l 1204 331 l 1204 -250 z "},"ң":{"ha":1060,"x_min":69,"x_max":1039,"o":"m 1039 -194 l 761 -194 l 761 0 l 549 0 l 549 246 l 428 246 l 428 0 l 69 0 l 69 738 l 428 738 l 428 510 l 549 510 l 549 738 l 907 738 l 907 278 l 1039 278 l 1039 -194 z "},"Ү":{"ha":1068,"x_min":-14,"x_max":1082,"o":"m 724 0 l 351 0 l 351 451 l -14 1047 l 417 1047 l 540 774 l 654 1047 l 1082 1047 l 724 451 l 724 0 z "},"ү":{"ha":953,"x_min":-8,"x_max":961,"o":"m 657 -304 l 299 -304 l 299 -1 l -8 738 l 376 738 l 478 361 l 576 738 l 961 738 l 657 -1 l 657 -304 z "},"Ұ":{"ha":1068,"x_min":-14,"x_max":1082,"o":"m 1082 1047 l 724 451 l 724 381 l 886 381 l 886 150 l 724 150 l 724 0 l 351 0 l 351 150 l 189 150 l 189 381 l 351 381 l 351 451 l -14 1047 l 417 1047 l 540 774 l 654 1047 l 1082 1047 z "},"ұ":{"ha":953,"x_min":-8,"x_max":961,"o":"m 961 738 l 657 -1 l 657 -22 l 796 -22 l 796 -210 l 657 -210 l 657 -304 l 299 -304 l 299 -210 l 160 -210 l 160 -22 l 299 -22 l 299 -1 l -8 738 l 376 738 l 478 361 l 576 738 l 961 738 z "},"Ҳ":{"ha":1158,"x_min":-6,"x_max":1161,"o":"m 1161 -250 l 844 -250 l 844 0 l 726 0 l 578 286 l 428 0 l -6 0 l 361 557 l 32 1047 l 461 1047 l 575 813 l 685 1047 l 1114 1047 l 786 557 l 938 331 l 1161 331 l 1161 -250 z "},"ҳ":{"ha":1063,"x_min":0,"x_max":1061,"o":"m 1061 -194 l 783 -194 l 783 0 l 601 0 l 513 161 l 432 0 l 0 0 l 314 385 l 31 738 l 442 738 l 515 583 l 590 738 l 1001 738 l 718 378 l 799 278 l 1061 278 l 1061 -194 z "},"Ҹ":{"ha":1201,"x_min":69,"x_max":1125,"o":"m 758 663 l 758 1047 l 1125 1047 l 1125 0 l 758 0 l 758 346 q 658 339 690 340 l 658 190 l 531 190 l 531 335 l 406 335 q 255 355 318 335 q 157 406 192 375 q 101 487 122 438 q 75 581 81 536 q 69 686 69 626 l 69 1047 l 436 1047 l 436 789 q 455 692 436 718 q 531 660 474 665 l 531 810 l 658 810 l 658 657 q 758 663 715 658 z "},"ҹ":{"ha":1099,"x_min":67,"x_max":1029,"o":"m 671 468 l 671 738 l 1029 738 l 1029 0 l 671 0 l 671 201 l 600 197 l 600 60 l 486 60 l 486 193 l 404 193 q 146 250 225 193 q 67 444 67 307 l 67 738 l 411 738 l 411 556 q 425 486 411 504 q 486 464 439 468 l 486 596 l 600 596 l 600 464 q 671 468 643 464 z "},"Һ":{"ha":1068,"x_min":76,"x_max":999,"o":"m 443 0 l 76 0 l 76 1047 l 443 1047 l 443 701 q 663 713 551 713 q 813 692 750 713 q 911 641 876 672 q 967 560 946 610 q 993 466 988 511 q 999 361 999 421 l 999 0 l 632 0 l 632 258 q 610 358 632 326 q 535 390 589 390 q 443 385 476 390 l 443 0 z "},"һ":{"ha":974,"x_min":69,"x_max":907,"o":"m 428 0 l 69 0 l 69 1126 l 428 1126 l 428 851 q 418 619 428 756 l 421 619 q 524 722 475 690 q 651 754 574 754 q 844 670 781 754 q 907 454 907 586 l 907 0 l 549 0 l 549 360 q 547 412 549 393 q 531 447 544 431 q 493 464 518 464 q 440 435 453 464 q 428 353 428 407 l 428 0 z "},"Ӏ":{"ha":519,"x_min":76,"x_max":443,"o":"m 443 0 l 76 0 l 76 1047 l 443 1047 l 443 0 z "},"ӏ":{"ha":497,"x_min":69,"x_max":428,"o":"m 428 0 l 69 0 l 69 1126 l 428 1126 l 428 0 z "},"Ә":{"ha":1249,"x_min":49,"x_max":1200,"o":"m 628 1064 q 1035 914 871 1064 q 1200 522 1200 764 q 1037 130 1200 276 q 628 -17 874 -17 q 197 149 344 -17 q 49 608 49 315 l 49 617 l 801 617 q 736 712 781 678 q 633 746 692 746 q 453 664 507 746 l 115 790 q 313 988 171 911 q 628 1064 456 1064 m 628 278 q 789 383 738 278 l 451 383 q 628 278 494 278 z "},"ә":{"ha":960,"x_min":42,"x_max":918,"o":"m 474 754 q 794 656 669 754 q 918 375 918 557 q 794 88 918 193 q 488 -17 671 -17 q 166 91 290 -17 q 42 396 42 199 q 43 429 42 418 l 565 429 q 479 556 565 556 q 431 538 451 556 q 403 494 410 521 l 58 494 q 213 687 93 619 q 474 754 333 754 m 419 208 q 430 194 419 208 q 479 181 440 181 q 540 208 518 181 q 564 276 561 235 l 396 276 q 419 208 397 235 z "},"Ө":{"ha":1256,"x_min":49,"x_max":1207,"o":"m 216 913 q 300 988 216 913 q 628 1064 383 1064 q 1040 913 872 1064 q 1207 521 1207 761 q 1041 130 1207 276 q 628 -17 875 -17 q 215 130 381 -17 q 49 521 49 276 q 216 913 49 761 m 789 653 q 628 742 735 742 q 467 653 521 742 l 789 653 m 458 406 q 628 306 510 306 q 797 406 746 306 l 458 406 z "},"ө":{"ha":978,"x_min":42,"x_max":936,"o":"m 169 650 q 233 702 169 650 q 489 754 297 754 q 808 650 681 754 q 936 360 936 546 q 804 84 936 185 q 489 -17 672 -17 q 174 84 306 -17 q 42 360 42 185 q 169 650 42 546 m 489 557 q 406 461 424 557 l 572 461 q 489 557 551 557 m 489 183 q 575 279 556 183 l 404 279 q 489 183 421 183 z "},"Ẁ":{"ha":1635,"x_min":-7,"x_max":1642,"o":"m 1000 1222 l 818 1122 l 547 1322 l 790 1493 l 1000 1222 m 683 0 l 351 0 l -7 1047 l 388 1047 l 519 436 l 671 1047 l 963 1047 l 1106 436 l 1246 1047 l 1642 1047 l 1279 0 l 940 0 l 817 569 l 683 0 z "},"ẁ":{"ha":1318,"x_min":-21,"x_max":1339,"o":"m 838 890 l 656 790 l 385 990 l 628 1161 l 838 890 m 571 0 l 278 0 l -21 738 l 357 738 l 442 328 l 542 738 l 776 738 l 881 328 l 963 738 l 1339 738 l 1036 0 l 747 0 l 660 328 l 571 0 z "},"Ẃ":{"ha":1635,"x_min":-7,"x_max":1642,"o":"m 1049 1322 l 778 1122 l 596 1222 l 806 1493 l 1049 1322 m 683 0 l 351 0 l -7 1047 l 388 1047 l 519 436 l 671 1047 l 963 1047 l 1106 436 l 1246 1047 l 1642 1047 l 1279 0 l 940 0 l 817 569 l 683 0 z "},"ẃ":{"ha":1318,"x_min":-21,"x_max":1339,"o":"m 939 990 l 668 790 l 486 890 l 696 1161 l 939 990 m 571 0 l 278 0 l -21 738 l 357 738 l 442 328 l 542 738 l 776 738 l 881 328 l 963 738 l 1339 738 l 1036 0 l 747 0 l 660 328 l 571 0 z "},"Ẅ":{"ha":1635,"x_min":-7,"x_max":1642,"o":"m 735 1194 q 714 1172 735 1194 q 626 1150 692 1150 q 517 1194 561 1150 q 472 1303 472 1238 q 517 1413 472 1368 q 626 1457 561 1457 q 735 1413 692 1457 q 779 1303 779 1368 q 735 1194 779 1239 m 1120 1194 q 1098 1172 1120 1194 q 1011 1150 1076 1150 q 901 1194 946 1150 q 857 1303 857 1238 q 901 1413 857 1368 q 1011 1457 946 1457 q 1120 1413 1076 1457 q 1164 1303 1164 1368 q 1120 1194 1164 1238 m 683 0 l 351 0 l -7 1047 l 388 1047 l 519 436 l 671 1047 l 963 1047 l 1106 436 l 1246 1047 l 1642 1047 l 1279 0 l 940 0 l 817 569 l 683 0 z "},"ẅ":{"ha":1318,"x_min":-21,"x_max":1339,"o":"m 475 806 q 375 846 415 806 q 335 944 335 886 q 375 1044 335 1004 q 475 1085 415 1085 q 574 1044 533 1085 q 614 944 614 1004 q 574 846 614 886 q 475 806 533 806 m 945 846 q 925 826 945 846 q 846 806 906 806 q 746 846 786 806 q 706 944 706 886 q 746 1044 706 1004 q 846 1085 786 1085 q 945 1044 906 1085 q 985 944 985 1004 q 945 846 985 886 m 571 0 l 278 0 l -21 738 l 357 738 l 442 328 l 542 738 l 776 738 l 881 328 l 963 738 l 1339 738 l 1036 0 l 747 0 l 660 328 l 571 0 z "},"ẞ":{"ha":1232,"x_min":69,"x_max":1197,"o":"m 944 647 l 989 617 q 1144 472 1092 546 q 1197 294 1197 397 q 1098 70 1197 157 q 815 -17 999 -17 q 501 63 628 -17 l 607 304 q 776 233 693 233 q 829 285 829 233 q 732 403 829 338 l 558 518 l 558 525 l 688 769 l 594 769 q 476 726 515 769 q 436 581 436 683 l 436 0 l 69 0 l 69 604 q 594 1047 69 1047 l 1147 1047 l 1147 1039 l 944 647 z "},"Ỳ":{"ha":1068,"x_min":-14,"x_max":1082,"o":"m 717 1222 l 535 1122 l 264 1322 l 507 1493 l 717 1222 m 724 0 l 351 0 l 351 451 l -14 1047 l 417 1047 l 540 774 l 654 1047 l 1082 1047 l 724 451 l 724 0 z "},"ỳ":{"ha":958,"x_min":-8,"x_max":967,"o":"m 447 1161 l 657 890 l 475 790 l 204 990 l 447 1161 m 481 342 l 590 738 l 967 738 l 494 -304 l 117 -304 l 306 76 l -8 738 l 378 738 l 481 342 z "}," ":{"ha":208,"x_min":0,"x_max":0,"o":""},"‐":{"ha":551,"x_min":28,"x_max":524,"o":"m 524 229 l 28 229 l 28 535 l 524 535 l 524 229 z "},"‑":{"ha":551,"x_min":28,"x_max":524,"o":"m 524 229 l 28 229 l 28 535 l 524 535 l 524 229 z "},"–":{"ha":694,"x_min":-1,"x_max":696,"o":"m 696 257 l -1 257 l -1 563 l 696 563 l 696 257 z "},"—":{"ha":1389,"x_min":-1,"x_max":1390,"o":"m 1390 257 l -1 257 l -1 563 l 1390 563 l 1390 257 z "},"―":{"ha":1389,"x_min":-1,"x_max":1390,"o":"m 1390 257 l -1 257 l -1 563 l 1390 563 l 1390 257 z "},"‗":{"ha":597,"x_min":0,"x_max":597,"o":"m 597 -242 l 0 -242 l 0 -86 l 597 -86 l 597 -242 m 597 -447 l 0 -447 l 0 -292 l 597 -292 l 597 -447 z "},"‘":{"ha":625,"x_min":28,"x_max":556,"o":"m 556 1047 l 388 529 l 28 529 l 275 1047 l 556 1047 z "},"’":{"ha":625,"x_min":69,"x_max":597,"o":"m 597 1047 l 349 529 l 69 529 l 238 1047 l 597 1047 z "},"‚":{"ha":685,"x_min":79,"x_max":607,"o":"m 607 288 l 358 -231 l 79 -231 l 247 288 l 607 288 z "},"‛":{"ha":625,"x_min":28,"x_max":556,"o":"m 556 529 l 276 529 l 28 1047 l 388 1047 l 556 529 z "},"“":{"ha":1038,"x_min":28,"x_max":968,"o":"m 556 1047 l 388 529 l 28 529 l 275 1047 l 556 1047 m 968 1047 l 800 529 l 440 529 l 688 1047 l 968 1047 z "},"”":{"ha":1042,"x_min":69,"x_max":1014,"o":"m 597 1047 l 349 529 l 69 529 l 238 1047 l 597 1047 m 1014 1047 l 765 529 l 486 529 l 654 1047 l 1014 1047 z "},"„":{"ha":1096,"x_min":79,"x_max":1018,"o":"m 607 288 l 358 -231 l 79 -231 l 247 288 l 607 288 m 1018 288 l 769 -231 l 490 -231 l 658 288 l 1018 288 z "},"†":{"ha":1100,"x_min":97,"x_max":1003,"o":"m 708 -210 l 392 -210 l 392 426 l 97 426 l 97 700 l 392 700 l 392 1047 l 708 1047 l 708 700 l 1003 700 l 1003 426 l 708 426 l 708 -210 z "},"‡":{"ha":1050,"x_min":97,"x_max":953,"o":"m 683 -210 l 367 -210 l 367 179 l 97 179 l 97 410 l 367 410 l 367 567 l 97 567 l 97 797 l 367 797 l 367 1047 l 683 1047 l 683 797 l 953 797 l 953 567 l 683 567 l 683 410 l 953 410 l 953 179 l 683 179 l 683 -210 z "},"•":{"ha":688,"x_min":82,"x_max":606,"o":"m 531 339 q 493 301 531 339 q 344 263 456 263 q 158 339 233 263 q 82 524 82 415 q 158 710 82 633 q 344 786 233 786 q 531 710 456 786 q 606 524 606 633 q 531 339 606 415 z "},"…":{"ha":1501,"x_min":82,"x_max":1419,"o":"m 433 31 q 402 7 433 31 q 289 -17 371 -17 q 144 31 207 -17 q 82 156 82 78 q 144 283 82 235 q 289 332 207 332 q 433 283 371 332 q 496 156 496 235 q 433 31 496 78 m 897 31 q 866 7 897 31 q 753 -17 835 -17 q 608 31 671 -17 q 546 156 546 78 q 608 283 546 235 q 753 332 671 332 q 897 283 835 332 q 960 156 960 235 q 897 31 960 78 m 1357 31 q 1326 7 1357 31 q 1213 -17 1294 -17 q 1068 31 1131 -17 q 1006 156 1006 78 q 1068 283 1006 235 q 1213 332 1131 332 q 1357 283 1294 332 q 1419 156 1419 235 q 1357 31 1419 78 z "},"‰":{"ha":2313,"x_min":56,"x_max":2257,"o":"m 626 561 q 577 524 626 561 q 389 486 529 486 q 152 561 249 486 q 56 778 56 636 q 149 992 56 919 q 389 1064 243 1064 q 628 992 535 1064 q 722 778 722 919 q 626 561 722 636 m 1232 957 l 492 25 l 367 129 l 1106 1053 l 1232 957 m 339 725 q 347 715 339 725 q 389 704 356 704 q 439 725 422 704 q 456 778 456 746 q 438 833 456 810 q 389 856 421 856 q 340 833 357 856 q 322 778 322 810 q 339 725 322 746 m 1430 58 q 1382 21 1430 58 q 1193 -17 1333 -17 q 956 58 1053 -17 q 860 275 860 133 q 953 489 860 417 q 1193 561 1047 561 q 1433 489 1339 561 q 1526 275 1526 417 q 1430 58 1526 133 m 2160 58 q 2112 21 2160 58 q 1924 -17 2064 -17 q 1687 58 1783 -17 q 1590 275 1590 133 q 1684 489 1590 417 q 1924 561 1778 561 q 2163 489 2069 561 q 2257 275 2257 417 q 2160 58 2257 133 m 1143 222 q 1151 212 1143 222 q 1193 201 1160 201 q 1243 222 1226 201 q 1260 275 1260 243 q 1242 330 1260 307 q 1193 353 1225 353 q 1144 330 1161 353 q 1126 275 1126 307 q 1143 222 1126 243 m 1874 222 q 1882 212 1874 222 q 1924 201 1890 201 q 1974 222 1957 201 q 1990 275 1990 243 q 1973 330 1990 307 q 1924 353 1956 353 q 1874 330 1892 353 q 1857 275 1857 307 q 1874 222 1857 243 z "},"‹":{"ha":538,"x_min":42,"x_max":496,"o":"m 496 126 l 279 15 l 42 375 l 279 733 l 496 622 l 358 375 l 496 126 z "},"›":{"ha":538,"x_min":42,"x_max":496,"o":"m 496 375 l 258 15 l 42 126 l 179 375 l 42 622 l 258 733 l 496 375 z "},"‼":{"ha":1117,"x_min":82,"x_max":1035,"o":"m 472 400 l 106 400 l 106 1047 l 472 1047 l 472 400 m 1011 400 l 644 400 l 644 1047 l 1011 1047 l 1011 400 m 433 31 q 402 7 433 31 q 289 -17 371 -17 q 144 31 207 -17 q 82 156 82 78 q 144 283 82 235 q 289 332 207 332 q 433 283 371 332 q 496 156 496 235 q 433 31 496 78 m 972 31 q 941 7 972 31 q 828 -17 910 -17 q 683 31 746 -17 q 621 156 621 78 q 683 283 621 235 q 828 332 746 332 q 972 283 910 332 q 1035 156 1035 235 q 972 31 1035 78 z "},"‽":{"ha":922,"x_min":49,"x_max":874,"o":"m 457 1065 q 760 979 646 1065 q 874 749 874 893 q 653 488 874 531 l 653 379 l 314 379 l 314 694 l 517 694 q 525 738 525 714 q 461 806 525 806 q 390 726 390 806 l 390 722 l 49 722 l 49 726 q 159 976 49 886 q 457 1065 269 1065 m 336 283 q 367 308 336 283 q 481 332 399 332 q 625 283 563 332 q 688 156 688 235 q 625 31 688 78 q 481 -17 563 -17 q 336 31 399 -17 q 274 156 274 78 q 336 283 274 235 z "},"‾":{"ha":597,"x_min":0,"x_max":597,"o":"m 597 967 l 0 967 l 0 1122 l 597 1122 l 597 967 z "},"⁄":{"ha":176,"x_min":-346,"x_max":522,"o":"m 522 1047 l -192 0 l -346 0 l 372 1047 l 522 1047 z "},"⁰":{"ha":675,"x_min":46,"x_max":629,"o":"m 548 703 q 507 659 548 703 q 338 615 467 615 q 127 703 208 615 q 46 944 46 792 q 128 1176 46 1090 q 338 1263 211 1263 q 547 1176 464 1263 q 629 944 629 1090 q 548 703 629 792 m 282 939 q 338 821 282 821 q 393 939 393 821 q 338 1050 393 1050 q 282 939 282 1050 z "},"⁴":{"ha":647,"x_min":22,"x_max":610,"o":"m 546 907 l 610 907 l 610 728 l 540 728 l 546 625 l 308 625 l 315 728 l 22 728 l 22 854 l 317 1263 l 546 1263 l 546 907 m 239 907 l 315 907 l 318 961 q 325 1032 322 1010 l 239 907 z "},"⁵":{"ha":632,"x_min":42,"x_max":590,"o":"m 294 614 q 42 669 144 614 l 89 856 q 265 806 172 806 q 346 849 346 806 q 247 894 346 894 q 99 882 167 894 l 71 882 l 136 1253 l 550 1253 l 550 1068 l 308 1068 q 294 1014 306 1036 q 379 1032 321 1032 q 530 980 469 1032 q 590 843 590 928 q 505 672 590 731 q 294 614 419 614 z "},"⁶":{"ha":646,"x_min":40,"x_max":606,"o":"m 524 679 q 483 647 524 679 q 326 614 442 614 q 126 683 211 614 q 40 865 40 753 q 139 1093 40 978 l 275 1251 l 581 1251 l 446 1115 q 382 1053 410 1079 q 407 1057 397 1057 q 550 1000 494 1057 q 606 857 606 943 q 524 679 606 744 m 284 819 q 291 811 284 819 q 322 804 299 804 q 361 818 346 804 q 376 857 376 832 q 361 896 376 881 q 322 911 346 911 q 284 896 299 911 q 269 857 269 881 q 284 819 269 833 z "},"⁷":{"ha":631,"x_min":33,"x_max":644,"o":"m 33 1032 l 33 1253 l 644 1253 l 644 1251 l 310 618 l 42 618 l 260 1032 l 33 1032 z "},"⁸":{"ha":674,"x_min":56,"x_max":619,"o":"m 537 659 q 495 636 537 659 q 338 614 454 614 q 138 659 221 614 q 56 800 56 704 q 87 890 56 849 q 165 951 118 931 q 75 1079 75 997 q 153 1217 75 1169 q 338 1265 231 1265 q 523 1217 446 1265 q 600 1079 600 1169 q 510 951 600 996 q 590 891 560 932 q 619 801 619 850 q 537 659 619 704 m 338 1013 q 364 1024 353 1013 q 375 1051 375 1035 q 339 1092 375 1092 q 301 1051 301 1092 q 338 1013 301 1013 m 338 783 q 373 797 360 783 q 386 835 386 811 q 373 869 386 856 q 339 883 360 883 q 303 869 317 883 q 290 835 290 856 q 303 797 290 811 q 338 783 317 783 z "},"⁹":{"ha":646,"x_min":40,"x_max":606,"o":"m 507 783 l 371 625 l 65 625 l 200 761 q 264 824 236 797 q 239 819 250 819 q 96 876 151 819 q 40 1019 40 933 q 122 1197 40 1132 q 319 1263 204 1263 q 520 1193 435 1263 q 606 1011 606 1124 q 507 783 606 899 m 285 981 q 292 973 285 981 q 324 965 300 965 q 362 981 347 965 q 376 1019 376 996 q 362 1058 376 1043 q 324 1072 347 1072 q 285 1058 300 1072 q 269 1019 269 1044 q 285 981 269 996 z "},"⁺":{"ha":582,"x_min":42,"x_max":540,"o":"m 381 633 l 200 633 l 200 792 l 42 792 l 42 972 l 200 972 l 200 1131 l 381 1131 l 381 972 l 540 972 l 540 792 l 381 792 l 381 633 z "},"⁻":{"ha":582,"x_min":42,"x_max":540,"o":"m 540 785 l 42 785 l 42 965 l 540 965 l 540 785 z "},"⁼":{"ha":582,"x_min":42,"x_max":540,"o":"m 540 904 l 42 904 l 42 1085 l 540 1085 l 540 904 m 540 672 l 42 672 l 42 853 l 540 853 l 540 672 z "},"ⁿ":{"ha":549,"x_min":46,"x_max":510,"o":"m 238 617 l 46 617 l 46 1047 l 235 1047 l 232 976 l 235 976 q 367 1057 289 1057 q 510 888 510 1057 l 510 617 l 318 617 l 318 822 q 317 860 318 849 q 307 883 315 872 q 282 894 299 894 q 248 878 258 894 q 238 817 238 861 l 238 617 z "},"₀":{"ha":675,"x_min":46,"x_max":629,"o":"m 548 -130 q 507 -174 548 -130 q 338 -218 467 -218 q 127 -130 208 -218 q 46 111 46 -42 q 128 343 46 257 q 338 429 211 429 q 547 343 464 429 q 629 111 629 257 q 548 -130 629 -42 m 282 106 q 338 -12 282 -12 q 393 106 393 -12 q 338 217 393 217 q 282 106 282 217 z "},"₁":{"ha":442,"x_min":28,"x_max":372,"o":"m 372 -208 l 128 -208 l 128 197 l 28 192 l 28 411 l 372 419 l 372 -208 z "},"₂":{"ha":649,"x_min":-14,"x_max":600,"o":"m 410 0 l 369 -24 q 600 7 507 7 l 600 -208 l -14 -208 l -14 -207 l 215 22 q 317 132 288 94 q 347 197 347 169 q 321 225 347 225 q 283 168 290 225 l 40 168 q 130 369 63 307 q 331 432 197 432 q 522 379 453 432 q 590 226 590 326 q 410 0 590 106 z "},"₃":{"ha":671,"x_min":35,"x_max":615,"o":"m 332 -218 q 35 15 50 -218 l 281 15 q 329 -35 285 -35 q 372 13 372 -35 q 318 61 372 61 q 293 58 301 61 l 293 186 q 318 185 303 185 q 360 221 360 185 q 331 251 360 251 q 300 219 306 251 l 57 219 q 339 431 85 431 q 517 385 440 431 q 593 254 593 339 q 511 129 593 169 q 587 76 558 115 q 615 -14 615 38 q 529 -166 615 -114 q 332 -218 443 -218 z "},"₄":{"ha":647,"x_min":22,"x_max":610,"o":"m 546 74 l 610 74 l 610 -106 l 540 -106 l 546 -208 l 308 -208 l 315 -106 l 22 -106 l 22 21 l 317 429 l 546 429 l 546 74 m 239 74 l 315 74 l 318 128 q 325 199 322 176 l 239 74 z "},"₅":{"ha":632,"x_min":42,"x_max":590,"o":"m 294 -219 q 42 -164 144 -219 l 89 22 q 265 -28 172 -28 q 346 15 346 -28 q 247 61 346 61 q 99 49 167 61 l 71 49 l 136 419 l 550 419 l 550 235 l 308 235 q 294 181 306 203 q 379 199 321 199 q 530 147 469 199 q 590 10 590 94 q 505 -161 590 -103 q 294 -219 419 -219 z "},"₆":{"ha":646,"x_min":40,"x_max":606,"o":"m 524 -154 q 483 -187 524 -154 q 326 -219 442 -219 q 126 -150 211 -219 q 40 32 40 -81 q 139 260 40 144 l 275 418 l 581 418 l 446 282 q 382 219 410 246 q 407 224 397 224 q 550 167 494 224 q 606 24 606 110 q 524 -154 606 -89 m 284 -15 q 291 -22 284 -15 q 322 -29 299 -29 q 361 -15 346 -29 q 376 24 376 -1 q 361 63 376 47 q 322 78 346 78 q 284 63 299 78 q 269 24 269 47 q 284 -15 269 0 z "},"₇":{"ha":631,"x_min":33,"x_max":644,"o":"m 33 199 l 33 419 l 644 419 l 644 418 l 310 -215 l 42 -215 l 260 199 l 33 199 z "},"₈":{"ha":674,"x_min":56,"x_max":619,"o":"m 537 -174 q 495 -197 537 -174 q 338 -219 454 -219 q 138 -174 221 -219 q 56 -33 56 -129 q 87 56 56 15 q 165 118 118 97 q 75 246 75 164 q 153 384 75 336 q 338 432 231 432 q 523 384 446 432 q 600 246 600 336 q 510 118 600 163 q 590 58 560 99 q 619 -32 619 17 q 537 -174 619 -129 m 338 179 q 364 190 353 179 q 375 218 375 201 q 339 258 375 258 q 301 218 301 258 q 338 179 301 179 m 338 -50 q 373 -36 360 -50 q 386 1 386 -22 q 373 36 386 22 q 339 50 360 50 q 303 36 317 50 q 290 1 290 22 q 303 -36 290 -22 q 338 -50 317 -50 z "},"₉":{"ha":646,"x_min":40,"x_max":606,"o":"m 507 -50 l 371 -208 l 65 -208 l 200 -72 q 264 -10 236 -36 q 239 -14 250 -14 q 96 43 151 -14 q 40 186 40 100 q 122 364 40 299 q 319 429 204 429 q 520 360 435 429 q 606 178 606 290 q 507 -50 606 65 m 285 147 q 292 140 285 147 q 324 132 300 132 q 362 147 347 132 q 376 186 376 163 q 362 224 376 210 q 324 239 347 239 q 285 225 300 239 q 269 186 269 211 q 285 147 269 163 z "},"₊":{"ha":582,"x_min":42,"x_max":540,"o":"m 381 -200 l 200 -200 l 200 -42 l 42 -42 l 42 139 l 200 139 l 200 297 l 381 297 l 381 139 l 540 139 l 540 -42 l 381 -42 l 381 -200 z "},"₋":{"ha":582,"x_min":42,"x_max":540,"o":"m 540 -49 l 42 -49 l 42 132 l 540 132 l 540 -49 z "},"₌":{"ha":582,"x_min":42,"x_max":540,"o":"m 540 71 l 42 71 l 42 251 l 540 251 l 540 71 m 540 -161 l 42 -161 l 42 19 l 540 19 l 540 -161 z "},"₍":{"ha":389,"x_min":61,"x_max":372,"o":"m 372 -271 l 199 -372 q 61 74 61 -160 q 199 518 61 300 l 372 417 q 282 74 282 238 q 372 -271 282 -87 z "},"₎":{"ha":389,"x_min":17,"x_max":328,"o":"m 189 -372 l 17 -271 q 107 74 107 -86 q 17 417 107 238 l 189 518 q 328 74 328 300 q 189 -372 328 -160 z "},"ₙ":{"ha":549,"x_min":46,"x_max":510,"o":"m 238 -139 l 46 -139 l 46 292 l 235 292 l 232 221 l 235 221 q 367 301 289 301 q 510 132 510 301 l 510 -139 l 318 -139 l 318 67 q 317 105 318 93 q 307 128 315 117 q 282 139 299 139 q 248 122 258 139 q 238 61 238 106 l 238 -139 z "},"₣":{"ha":833,"x_min":32,"x_max":792,"o":"m 792 1047 l 792 747 l 457 747 l 457 639 l 753 639 l 753 364 l 457 364 l 457 297 l 626 297 l 626 169 l 457 169 l 457 0 l 90 0 l 90 169 l 32 169 l 32 297 l 90 297 l 90 1047 l 792 1047 z "},"₤":{"ha":1079,"x_min":42,"x_max":1079,"o":"m 915 356 l 1079 147 q 913 21 981 56 q 757 -14 846 -14 q 558 21 692 -14 q 378 56 425 56 q 288 42 331 56 q 178 -15 246 28 l 42 211 q 300 326 193 313 q 303 371 303 360 l 303 385 l 96 385 l 96 490 l 265 490 q 256 509 263 497 q 244 531 250 521 q 235 551 239 542 l 96 551 l 96 657 l 190 657 q 175 754 175 706 q 287 978 175 890 q 604 1065 399 1065 q 901 979 797 1065 q 1010 753 1004 893 l 704 722 q 604 819 694 819 q 540 794 564 819 q 515 726 515 768 q 526 657 515 694 l 789 657 l 789 551 l 569 551 q 596 490 583 522 l 789 490 l 789 385 l 624 385 q 625 365 625 378 q 613 290 625 332 q 740 264 703 264 q 824 283 786 264 q 915 356 861 303 z "},"₧":{"ha":1061,"x_min":8,"x_max":1075,"o":"m 982 704 l 1075 704 l 1075 646 l 982 646 q 856 390 972 478 q 558 301 740 301 l 443 301 l 443 0 l 76 0 l 76 646 l 8 646 l 8 704 l 76 704 l 76 1047 l 558 1047 q 856 958 740 1047 q 982 704 972 869 m 493 761 l 443 761 l 443 704 l 613 704 q 493 761 596 761 m 443 579 l 494 579 q 614 646 596 579 l 443 646 l 443 579 z "},"€":{"ha":1008,"x_min":69,"x_max":1008,"o":"m 747 242 q 921 282 857 242 l 964 31 q 710 -18 869 -18 q 401 74 525 -18 q 229 326 276 165 l 69 326 l 136 489 l 204 489 l 204 517 q 206 563 204 547 l 75 563 l 142 725 l 235 725 q 422 976 286 889 q 760 1064 558 1064 q 1008 1029 911 1064 l 908 781 q 772 806 843 806 q 586 725 656 806 l 894 725 l 829 563 l 517 563 q 515 525 515 550 q 517 489 515 500 l 821 489 l 756 326 l 568 326 q 747 242 626 242 z "},"₸":{"ha":828,"x_min":14,"x_max":814,"o":"m 814 818 l 14 818 l 14 1047 l 814 1047 l 814 818 m 604 0 l 224 0 l 224 499 l 14 499 l 14 728 l 814 728 l 814 499 l 604 499 l 604 0 z "}}}
